{"glyphs":{"0":{"ha":739,"x_min":18,"x_max":760,"o":"m 183 -51 q 167 -47 178 -47 q 160 -50 163 -47 q 147 -44 154 -44 q 144 -46 146 -44 q 140 -47 143 -47 q 133 -42 139 -47 q 125 -37 126 -37 q 122 -39 124 -37 q 118 -40 121 -40 q 110 -34 117 -40 q 101 -28 103 -28 q 100 -29 100 -28 q 99 -31 100 -31 q 99 -31 99 -31 l 99 -31 q 93 -24 101 -29 q 78 -15 88 -21 q 57 0 68 -10 q 40 21 56 3 l 36 35 q 27 61 28 40 q 19 89 26 82 q 18 88 19 88 l 18 104 q 19 113 18 108 q 21 122 19 117 q 19 133 19 126 q 19 147 19 139 l 32 196 l 35 199 q 39 210 36 204 q 44 224 42 217 q 43 226 44 225 l 43 231 q 50 240 53 233 q 56 245 51 240 q 69 269 61 250 l 69 278 l 83 290 q 92 296 92 290 q 103 311 93 301 l 119 340 q 142 363 132 350 q 146 364 144 363 q 175 398 158 381 q 232 450 192 415 q 249 459 239 453 q 269 472 258 465 l 282 483 q 298 492 289 489 q 317 499 307 496 q 318 504 318 500 q 322 503 321 503 q 322 503 322 503 q 336 509 322 503 q 351 515 350 515 l 353 515 q 354 514 353 514 q 367 519 356 514 q 381 525 379 525 q 383 524 383 525 l 385 524 q 390 531 386 524 l 393 528 q 408 535 404 535 q 417 531 413 535 q 425 528 421 528 q 428 531 428 528 q 432 528 429 531 q 446 533 444 533 q 461 528 460 533 q 468 532 465 532 q 472 529 469 532 q 475 526 474 526 q 484 525 481 525 q 489 525 488 525 q 492 531 492 525 l 494 528 q 499 534 497 533 q 532 547 501 535 q 539 553 544 553 q 543 551 542 553 l 547 551 q 590 564 540 551 q 608 564 596 563 q 614 563 611 564 q 614 564 614 564 q 619 565 614 564 q 633 565 624 565 q 633 565 633 565 q 635 563 633 564 l 639 565 q 650 561 647 561 q 651 563 651 561 q 654 560 651 560 q 658 561 657 560 l 681 549 l 683 553 q 700 539 692 547 l 706 539 l 718 522 q 732 501 721 515 l 738 485 q 742 481 740 483 q 747 475 744 478 q 750 465 750 469 q 746 453 750 460 l 746 444 q 758 433 749 443 q 757 426 757 435 q 760 421 760 424 q 754 403 760 414 q 757 396 756 403 q 749 367 747 374 l 743 367 q 742 363 742 365 q 744 358 742 360 q 747 353 747 357 q 738 337 747 350 q 726 322 728 324 q 728 308 728 318 l 718 288 l 718 285 q 716 274 718 281 q 704 261 714 268 q 695 240 704 247 q 686 218 686 233 l 683 218 q 661 188 678 218 q 648 176 656 182 q 631 160 640 169 q 624 147 629 154 q 606 135 619 140 q 588 111 608 132 q 586 106 588 108 q 571 86 574 86 q 569 88 569 86 l 568 88 q 554 78 564 88 l 547 78 q 511 47 528 58 q 503 44 508 47 q 488 32 497 42 q 485 36 488 33 l 426 1 l 414 1 q 386 -11 410 -3 l 369 -22 q 363 -24 364 -24 q 364 -24 363 -24 l 361 -24 q 357 -22 360 -22 q 349 -26 356 -22 q 340 -31 342 -31 q 339 -29 339 -31 q 336 -28 339 -28 q 329 -32 339 -28 q 324 -35 328 -33 q 318 -39 321 -36 l 315 -36 l 299 -36 q 283 -42 296 -36 q 268 -47 269 -47 l 254 -47 q 247 -43 249 -43 q 242 -46 244 -43 l 228 -46 q 216 -47 218 -47 q 214 -49 214 -47 l 207 -49 q 203 -47 206 -47 l 189 -47 l 183 -51 m 168 -35 l 186 -35 q 192 -26 188 -31 l 192 -21 l 189 -21 l 200 -15 l 204 -18 l 210 -18 q 214 -15 213 -15 q 215 -17 215 -15 q 217 -18 214 -18 q 219 -17 219 -18 l 219 -28 q 233 -19 225 -26 q 238 -22 236 -22 q 251 -14 243 -22 l 256 -18 l 258 -18 q 260 -17 258 -17 q 260 -17 263 -17 q 269 -21 258 -18 q 271 -17 269 -19 q 274 -12 272 -15 q 289 -4 281 -10 q 292 -10 292 -7 q 296 -3 293 -7 q 301 4 299 0 l 306 1 l 303 -4 l 311 -4 l 315 1 q 321 -1 318 0 q 326 -6 324 -3 q 333 4 326 1 q 339 1 336 1 q 347 10 342 10 q 349 8 349 10 l 350 8 q 364 22 358 8 q 369 17 365 17 q 372 24 369 18 q 378 21 375 21 q 391 30 382 21 q 401 39 400 39 l 421 46 q 431 55 425 49 q 438 61 436 61 l 439 61 q 442 60 439 60 q 445 64 443 60 q 449 68 447 68 q 450 67 450 68 q 451 65 450 65 q 479 86 469 76 l 485 89 q 490 97 488 92 q 499 108 493 103 q 517 121 507 111 q 522 123 519 122 q 525 129 524 124 l 538 139 q 556 154 546 144 q 588 189 567 172 l 613 218 l 624 236 l 631 244 q 645 267 638 263 q 663 283 653 272 q 663 294 663 288 q 665 307 664 300 q 674 322 667 310 l 682 340 q 681 343 682 340 q 681 349 681 346 l 686 365 l 699 381 q 701 394 701 389 q 700 401 701 397 q 699 407 699 406 q 699 444 699 433 q 700 449 699 454 q 697 455 700 451 q 693 460 693 458 q 701 483 693 474 l 701 488 q 693 499 699 493 q 682 510 688 504 q 683 515 685 511 q 674 525 682 525 q 667 524 668 525 l 667 533 l 651 543 q 638 542 643 542 q 632 542 633 542 q 627 544 629 542 q 624 546 625 546 q 606 542 618 546 q 592 538 594 538 l 582 538 q 575 536 579 536 q 569 538 574 536 q 561 540 564 540 q 539 532 560 540 q 522 526 529 528 q 513 522 515 524 l 517 506 q 535 494 524 506 q 536 489 535 490 q 556 468 554 474 l 556 458 q 559 449 557 456 q 567 438 561 443 q 560 417 564 435 l 554 417 q 546 425 546 417 q 544 441 544 435 q 543 450 543 447 l 536 446 q 529 461 528 457 q 523 465 526 463 q 514 471 519 468 l 510 478 l 504 476 q 488 485 503 476 q 488 485 488 485 q 486 488 488 486 q 474 490 475 489 q 465 483 469 489 q 453 476 460 476 q 450 476 451 476 q 443 474 449 476 q 432 471 440 474 l 415 450 l 415 447 q 403 439 410 439 q 397 446 397 439 q 408 469 397 439 l 406 472 q 394 467 403 472 q 382 461 385 461 q 373 459 379 461 q 364 457 367 457 q 363 451 364 453 q 358 454 360 454 q 341 444 353 454 q 328 429 329 433 q 325 424 328 426 q 321 426 322 426 q 317 424 319 426 q 313 422 314 422 l 311 422 q 310 424 311 424 q 298 418 307 424 q 288 413 289 413 q 288 413 288 413 l 288 413 q 279 415 288 414 l 279 413 q 260 401 279 403 q 249 388 257 396 q 236 379 240 379 q 235 381 235 379 l 233 381 q 207 360 231 381 q 168 326 193 344 q 164 321 168 324 l 153 304 q 149 303 150 304 q 138 289 142 290 q 111 264 111 271 l 114 257 q 104 246 113 254 l 101 249 l 99 243 q 93 235 101 235 l 92 235 q 90 236 93 236 q 85 228 89 236 q 88 229 88 229 q 89 229 89 229 q 89 226 92 229 q 68 199 86 214 q 68 192 71 194 q 56 167 64 181 q 47 146 47 154 l 47 139 q 43 138 47 140 q 46 129 43 138 q 42 119 44 126 q 39 111 39 113 q 43 103 39 106 q 39 78 42 99 l 44 82 l 47 79 l 39 72 q 42 60 40 67 q 46 46 43 54 q 51 50 47 46 q 57 42 57 40 l 57 39 q 61 40 58 39 q 72 22 61 40 l 81 18 l 81 11 q 83 13 82 11 q 85 13 83 13 q 84 13 85 13 q 83 13 83 13 q 93 8 82 11 l 97 4 q 93 -6 92 -4 q 110 -18 104 -7 q 119 -20 114 -18 q 126 -22 125 -22 l 129 -22 q 131 -21 129 -21 q 134 -23 132 -21 q 138 -25 136 -25 l 143 -24 l 139 -15 q 154 -12 144 -12 l 156 -12 q 153 -21 151 -17 l 157 -28 q 160 -26 160 -26 q 161 -26 161 -26 q 165 -31 163 -26 q 168 -35 167 -35 m 449 478 q 449 478 449 478 q 450 478 449 478 l 450 478 l 449 478 m 567 438 l 567 436 l 567 438 q 567 438 567 438 z "},"1":{"ha":514,"x_min":11,"x_max":608,"o":"m 193 -46 q 181 -25 172 -39 q 179 -17 181 -21 q 172 -19 176 -19 q 164 -18 171 -19 q 154 -17 157 -17 q 153 -18 153 -17 q 151 -19 153 -19 q 149 -18 149 -19 q 147 -17 150 -17 l 144 -19 q 132 -19 139 -19 q 115 -21 125 -19 q 97 -24 100 -22 q 99 -24 97 -24 q 97 -24 96 -24 q 94 -21 96 -22 l 90 -25 q 81 -22 88 -22 q 63 -24 68 -22 q 60 -25 58 -25 l 56 -21 q 50 -25 56 -25 q 29 -14 25 -14 l 28 -14 q 26 -15 28 -15 q 14 -4 25 -15 q 11 1 11 1 l 15 7 q 14 19 18 10 q 21 26 17 21 q 28 31 25 31 q 32 28 29 31 q 36 26 35 26 q 40 28 38 26 q 43 31 42 31 q 48 31 44 31 q 57 29 51 31 l 69 29 q 74 32 71 29 q 79 35 76 35 q 89 33 81 35 q 101 31 97 31 q 110 17 107 17 l 126 21 q 130 19 128 21 q 133 18 132 18 l 142 21 q 142 21 142 21 l 143 21 l 142 21 q 156 17 142 21 l 165 17 q 179 17 172 17 q 194 15 186 17 l 236 114 q 235 121 235 113 q 238 124 236 122 q 242 128 240 125 q 244 138 242 129 q 258 167 260 163 l 274 192 q 277 194 275 193 q 281 199 279 196 q 292 221 286 208 q 308 249 299 233 q 317 271 313 254 q 323 283 319 276 q 332 296 326 289 l 335 299 q 346 322 346 321 q 344 326 344 325 q 340 328 343 328 q 324 315 339 328 q 297 298 304 301 q 281 285 289 294 q 276 286 278 285 q 267 279 274 283 q 250 269 260 275 q 246 264 243 264 l 244 264 q 243 265 244 265 q 233 259 244 265 q 213 250 222 253 q 197 238 196 243 l 190 240 q 180 235 189 240 q 168 229 171 229 q 168 231 167 229 q 167 232 168 232 q 165 231 165 232 q 163 229 164 229 q 160 233 163 229 q 154 244 157 236 q 165 250 165 250 l 167 250 q 168 249 167 249 l 178 251 q 183 255 179 251 q 188 258 186 258 q 189 257 190 258 l 190 257 l 203 264 q 226 281 213 267 q 242 297 243 293 l 246 293 l 250 296 q 254 293 253 293 q 266 303 253 293 q 304 336 279 313 q 308 335 307 335 q 308 335 308 335 q 317 344 315 335 q 331 351 322 347 q 354 367 340 356 l 354 375 q 360 381 358 381 q 361 379 361 381 l 363 379 q 385 397 381 388 q 394 404 388 400 q 407 414 400 408 q 415 428 406 418 q 425 442 425 439 l 433 453 q 442 468 440 461 q 456 492 444 475 q 472 514 463 496 q 476 518 475 518 q 479 517 479 518 q 481 515 479 515 q 483 517 482 515 q 486 519 485 519 q 499 510 493 519 l 501 513 q 507 507 506 507 l 517 517 l 526 522 q 533 532 528 526 q 546 547 538 538 q 546 550 547 549 q 560 563 549 551 q 582 589 568 567 q 589 590 585 590 q 594 586 593 590 l 599 593 q 608 581 608 585 q 588 558 608 579 q 572 542 578 549 q 565 532 567 535 l 519 488 q 502 473 513 483 q 476 439 492 463 l 468 432 q 454 406 464 421 q 442 386 449 400 l 436 381 q 436 372 439 379 q 422 353 426 371 q 403 321 404 338 l 390 301 q 392 299 390 300 q 389 290 392 299 l 372 269 q 374 263 371 265 q 368 254 371 261 q 360 242 365 254 l 360 236 q 352 228 356 236 q 350 219 349 221 q 344 207 346 215 q 340 200 342 204 l 340 190 l 333 168 l 328 164 q 322 145 325 156 q 317 122 319 135 q 313 112 315 119 q 307 93 310 104 l 300 94 q 299 91 300 94 q 297 81 299 88 q 288 68 296 75 q 279 56 279 61 q 271 47 275 56 q 265 50 268 50 q 259 48 263 50 q 253 44 256 46 l 249 44 q 240 44 244 44 q 231 42 236 43 q 219 25 219 26 l 219 18 l 224 14 l 231 21 q 239 15 233 21 l 244 21 q 249 19 247 21 q 253 17 251 17 l 265 19 q 265 19 265 19 l 265 19 q 275 14 265 19 q 276 18 278 17 q 285 15 282 15 l 314 21 q 317 19 315 21 q 322 18 319 18 q 324 20 324 18 q 328 22 325 22 l 363 17 q 367 19 364 17 q 374 22 371 22 q 378 21 375 22 q 382 19 381 19 q 395 24 383 19 q 408 28 407 28 q 419 22 415 28 l 424 28 q 425 26 425 28 l 426 26 q 429 28 428 26 q 432 31 431 31 q 435 29 435 31 q 438 28 435 28 q 453 38 439 28 q 471 47 468 47 l 472 47 q 474 46 471 46 q 478 51 472 46 l 492 51 q 493 47 493 49 q 493 44 493 44 q 478 25 493 36 q 456 18 469 19 l 453 13 q 448 14 450 14 q 446 14 446 14 q 440 11 443 14 q 436 15 435 15 l 410 10 l 386 6 q 385 4 386 6 q 381 3 383 3 q 376 4 378 3 q 367 4 374 7 l 333 -1 l 328 -6 q 325 -3 325 -6 q 324 -1 325 -1 q 309 -6 321 -1 q 296 -10 297 -10 q 292 -8 293 -10 q 290 -7 292 -7 q 276 -10 289 -7 q 260 -14 263 -14 q 253 -12 258 -14 q 246 -11 249 -11 l 236 -11 q 225 -14 225 -12 l 224 -15 q 206 -14 210 -15 q 196 -26 199 -25 q 197 -31 196 -29 l 193 -42 l 193 -46 m 351 219 l 351 217 l 350 219 q 351 219 351 219 z "},"2":{"ha":711,"x_min":38,"x_max":726,"o":"m 522 -129 q 519 -127 521 -129 q 515 -125 518 -125 q 514 -126 514 -125 l 511 -126 q 503 -121 504 -126 l 500 -121 q 499 -122 501 -122 q 494 -120 497 -122 q 489 -118 492 -118 q 483 -121 486 -118 q 465 -106 471 -106 q 464 -107 463 -106 l 463 -107 l 439 -93 l 438 -93 q 436 -94 438 -94 q 411 -82 443 -94 q 382 -61 406 -69 q 368 -49 369 -49 q 364 -50 365 -50 q 350 -42 361 -47 l 346 -36 l 338 -36 q 335 -28 335 -28 q 330 -25 333 -26 q 324 -21 326 -24 l 308 -17 q 294 -8 304 -15 q 288 -1 285 -1 q 277 -6 286 -1 q 267 -11 268 -11 l 265 -11 q 264 -10 265 -10 q 254 -17 257 -10 l 244 -18 q 235 -7 235 -18 q 243 3 235 -3 l 250 3 q 254 6 251 3 q 268 10 265 -1 q 251 21 265 21 q 218 7 256 21 q 186 -6 192 -6 q 185 -4 185 -6 l 182 -4 q 180 -6 181 -4 q 178 -8 179 -8 q 175 -7 175 -8 q 174 -6 175 -6 q 161 -10 172 -6 q 149 -15 150 -15 l 146 -15 q 144 -14 144 -14 q 126 -21 143 -17 l 101 -25 q 97 -29 96 -29 q 92 -29 92 -29 q 89 -31 90 -31 q 86 -29 86 -31 q 83 -28 86 -28 q 63 -37 78 -28 l 57 -32 l 57 -25 l 56 -24 l 56 -18 l 64 -14 q 69 -15 67 -14 l 76 -15 l 100 -8 q 103 -9 101 -8 q 107 -11 104 -10 q 108 -7 108 -10 q 112 -8 111 -8 q 113 -8 113 -8 q 128 -1 121 -8 l 143 -1 q 147 1 144 -1 q 164 10 150 3 q 165 8 165 10 l 167 8 q 172 12 169 8 q 176 15 174 15 q 182 13 179 15 q 183 17 183 13 l 199 17 q 206 19 201 17 q 211 21 210 21 q 214 19 214 21 l 215 19 q 232 33 226 19 q 211 51 214 51 l 210 51 q 208 50 208 50 l 208 50 l 207 50 q 208 50 208 50 q 194 56 208 51 q 192 71 190 71 q 185 69 189 71 q 179 68 182 68 q 175 75 176 75 q 174 74 174 75 l 171 74 q 159 81 168 74 q 150 88 150 89 l 149 88 q 147 86 149 86 q 139 91 144 86 q 132 96 133 96 q 128 94 129 96 l 124 94 q 107 104 117 94 q 106 103 106 104 l 104 103 l 96 110 q 88 110 94 108 q 68 117 85 113 q 58 113 63 117 q 56 103 57 107 q 56 96 56 99 q 59 81 56 93 q 63 68 63 69 q 53 57 63 63 l 47 61 q 45 76 46 68 q 44 89 44 83 q 38 90 43 90 q 43 124 39 92 q 51 143 49 131 q 53 154 53 144 q 65 163 64 158 q 71 163 68 163 q 79 164 74 163 q 108 143 82 160 l 122 131 q 129 128 124 131 q 165 103 139 118 q 176 94 169 97 l 207 79 l 211 74 l 213 74 q 214 75 213 75 q 231 63 217 75 q 247 51 246 51 q 253 48 249 51 q 261 43 258 44 q 272 49 263 44 q 282 51 278 50 q 296 61 286 53 q 323 73 311 68 q 344 79 335 78 q 367 97 353 88 l 397 114 l 424 136 q 454 157 433 146 q 454 158 454 157 q 456 161 454 160 q 464 167 460 164 q 471 175 468 171 q 481 185 479 179 q 510 210 496 188 q 511 210 510 210 q 514 211 513 210 q 585 294 543 240 l 614 336 l 619 354 q 626 371 626 375 q 639 404 642 396 q 643 417 640 408 q 646 433 646 425 q 642 468 646 454 l 624 485 q 622 489 622 486 q 621 494 622 492 q 606 500 611 500 l 596 497 l 583 506 q 561 510 576 506 l 558 507 l 535 511 l 532 508 q 528 508 531 508 q 521 510 525 508 l 517 507 q 511 508 515 508 q 498 506 503 508 q 489 504 493 504 q 465 502 486 504 q 406 494 444 500 q 403 493 404 494 q 372 485 392 493 q 346 478 351 478 l 343 478 q 342 479 343 479 q 308 463 336 479 l 306 465 l 303 460 q 300 461 301 461 q 290 454 297 454 q 287 453 289 454 q 282 451 285 451 q 282 453 281 451 q 281 454 283 454 q 275 451 279 454 q 269 442 271 449 q 268 439 268 440 q 257 438 257 439 l 253 442 l 224 425 q 215 415 222 421 q 189 404 208 408 q 187 399 188 403 q 183 388 186 394 q 172 374 172 382 q 160 361 168 368 q 149 350 158 357 q 151 344 151 347 q 149 334 151 340 q 147 324 147 328 q 143 325 144 324 l 143 321 q 163 294 143 311 q 183 288 169 293 q 199 283 197 283 q 201 285 201 283 q 203 286 201 286 q 207 284 204 286 q 211 282 210 282 l 226 282 l 229 285 q 235 283 231 283 q 242 288 238 283 l 246 282 q 257 290 251 285 l 263 290 l 268 285 q 281 292 279 292 l 282 292 q 283 290 282 290 q 296 296 281 290 l 300 281 q 296 282 299 282 l 283 282 q 272 275 279 275 q 268 274 271 275 q 264 272 265 272 q 256 274 261 272 q 249 275 250 275 q 240 273 246 275 q 233 271 235 271 l 228 275 l 224 271 l 211 271 q 208 269 210 269 q 207 269 207 269 q 203 271 204 269 q 201 272 203 272 q 199 271 200 272 q 196 269 199 269 q 192 271 194 269 q 189 272 190 272 q 187 271 188 272 q 185 269 186 269 q 177 272 183 269 q 168 274 171 274 q 165 272 167 274 q 163 271 164 271 q 157 272 160 271 l 146 272 q 142 274 147 272 q 128 282 138 275 l 125 279 l 106 299 l 106 303 q 101 306 103 306 q 104 311 101 308 q 97 315 103 315 l 97 339 q 121 372 97 357 q 129 383 124 378 q 129 388 132 386 l 153 411 l 175 431 q 199 447 185 433 q 218 458 217 458 l 219 458 q 219 457 219 457 q 249 472 222 461 q 258 479 251 475 q 282 483 265 483 q 300 485 286 485 l 318 504 q 331 500 326 500 l 338 504 q 340 503 339 504 q 343 501 340 501 q 353 508 343 501 l 356 506 q 364 508 364 508 l 367 508 q 369 510 368 510 q 374 508 372 510 l 378 508 q 387 513 379 508 q 397 517 394 517 q 401 515 399 517 q 404 514 403 514 q 406 516 406 514 q 410 518 407 518 l 413 518 q 417 517 414 517 q 418 518 418 517 q 419 519 418 519 l 422 517 l 425 519 l 435 519 q 436 518 436 519 q 438 517 436 517 q 441 517 439 517 q 447 518 443 518 q 450 524 453 524 l 460 524 q 467 522 464 522 q 471 522 469 522 q 476 525 472 522 q 483 528 481 528 q 490 522 488 522 l 500 522 q 508 526 501 522 q 515 529 514 529 q 528 525 519 529 q 543 521 538 521 q 551 524 544 521 q 560 528 558 528 q 566 524 561 528 q 572 521 571 521 q 575 522 575 521 l 578 522 q 585 519 579 522 q 594 517 592 517 q 595 517 594 517 q 597 518 596 517 l 601 515 q 608 517 606 515 l 615 517 q 620 515 617 517 q 625 513 624 513 q 628 515 628 513 q 636 510 632 510 l 638 510 q 640 511 638 511 q 643 509 642 511 q 646 507 644 507 l 649 507 q 650 508 649 508 q 653 506 651 508 q 656 504 654 504 l 657 504 q 658 506 657 506 l 669 499 q 676 497 674 499 q 689 486 689 488 q 692 479 689 485 q 701 474 696 476 q 711 468 706 471 q 710 467 711 468 q 710 465 710 467 q 719 444 710 461 q 724 404 719 432 l 726 382 q 716 361 726 379 q 707 333 706 343 l 697 319 q 691 311 693 317 q 683 294 689 306 q 670 282 678 289 q 653 264 663 275 q 650 258 651 263 q 646 246 649 253 q 632 239 642 246 q 621 225 635 239 q 612 218 617 222 q 603 207 607 214 l 599 204 q 585 188 594 188 l 583 188 q 582 189 583 189 q 579 187 579 189 q 578 185 579 185 l 576 185 q 575 186 576 186 q 556 169 567 186 l 556 161 q 546 153 543 153 l 544 153 q 543 154 544 154 q 519 139 538 154 l 519 135 q 489 107 499 121 q 483 109 485 108 q 481 110 481 110 q 453 94 483 110 l 453 89 q 443 83 450 88 q 435 79 436 79 q 433 81 433 79 l 432 81 q 424 73 429 78 q 417 67 418 68 q 417 65 418 65 l 415 65 q 414 67 415 67 q 383 47 415 67 q 338 26 349 26 q 336 28 336 26 l 335 28 q 326 18 336 28 q 337 8 329 15 q 367 -12 344 1 l 371 -17 l 414 -39 q 417 -41 417 -40 q 417 -42 418 -42 l 422 -42 q 428 -43 425 -43 q 434 -45 432 -44 q 436 -46 436 -46 l 438 -46 q 440 -44 438 -44 q 465 -54 444 -44 q 492 -64 486 -64 q 501 -61 493 -64 l 506 -64 l 515 -64 q 528 -58 522 -64 q 532 -60 531 -60 q 535 -61 533 -61 q 538 -60 536 -61 q 542 -58 540 -58 q 544 -60 543 -58 q 546 -61 544 -61 q 551 -60 549 -61 q 554 -58 553 -58 q 568 -54 563 -58 q 573 -49 569 -53 q 589 -43 576 -46 q 596 -33 596 -40 q 606 -19 606 -32 q 604 -7 606 -11 q 614 -3 604 -4 q 621 -24 621 -19 q 614 -46 621 -29 q 611 -44 613 -46 q 603 -53 610 -49 q 604 -58 603 -56 l 604 -61 q 592 -83 604 -71 l 561 -101 q 563 -107 563 -103 q 556 -121 563 -114 q 543 -128 550 -128 q 539 -129 540 -128 l 531 -129 q 529 -128 531 -128 q 525 -129 526 -128 l 522 -129 z "},"3":{"ha":838,"x_min":-36,"x_max":871,"o":"m 182 -354 q 174 -352 175 -354 q 151 -350 172 -350 q 147 -351 150 -350 q 143 -353 144 -353 q 139 -350 142 -353 q 133 -347 136 -347 l 108 -350 q 101 -342 108 -350 q 90 -338 97 -342 q 81 -335 82 -335 l 79 -335 q 78 -336 79 -336 q 74 -333 76 -336 q 69 -331 71 -331 q 65 -333 71 -332 q 54 -326 63 -329 l 25 -297 q 16 -285 22 -293 q 3 -267 10 -278 l -1 -251 q -8 -240 -6 -240 l -12 -240 q -11 -237 -12 -239 q -16 -231 -12 -236 q -22 -211 -19 -226 q -31 -200 -22 -210 l -31 -193 q -35 -171 -31 -183 q -33 -164 -35 -165 q -35 -158 -32 -161 q -33 -155 -35 -156 q -31 -154 -31 -154 q -36 -143 -36 -149 q -35 -137 -36 -140 q -33 -131 -35 -135 q -29 -114 -31 -129 l -22 -101 q -22 -95 -22 -99 q -21 -86 -22 -92 q -10 -62 -21 -87 q -8 -54 -10 -58 q 15 -24 3 -40 q 42 15 28 -7 l 44 13 q 69 35 50 19 q 78 44 78 39 l 82 44 l 85 42 q 94 51 85 42 q 107 60 104 60 l 108 60 q 110 58 108 58 q 118 65 111 58 q 125 65 121 65 q 135 67 129 65 q 144 72 139 71 q 151 68 147 69 q 134 53 150 61 q 117 36 118 44 q 114 38 117 38 q 72 3 108 38 l 72 -1 l 54 -24 q 43 -37 54 -24 q 43 -43 40 -40 q 35 -54 42 -43 l 29 -62 l 13 -93 q 10 -101 10 -97 q 7 -107 10 -104 l -1 -143 q 0 -153 -3 -144 q -3 -160 3 -157 q 0 -164 -3 -172 q -1 -171 -1 -168 q -1 -176 -1 -174 q 8 -226 -1 -192 q 21 -237 11 -228 l 26 -249 q 44 -265 38 -260 q 50 -271 50 -271 l 51 -271 q 53 -269 50 -269 q 58 -274 54 -269 q 64 -278 63 -278 q 67 -274 67 -278 q 76 -283 72 -282 q 100 -292 96 -292 q 103 -290 103 -292 l 106 -290 q 110 -292 108 -290 q 115 -294 111 -294 q 135 -297 121 -294 q 151 -299 150 -299 q 156 -297 153 -299 q 161 -294 160 -294 q 172 -296 174 -294 q 215 -287 188 -294 q 229 -287 225 -289 l 235 -286 q 238 -287 236 -286 q 242 -289 240 -289 q 247 -285 243 -289 q 251 -281 250 -282 q 318 -264 275 -278 q 330 -255 322 -262 q 340 -247 338 -247 l 342 -247 q 343 -249 340 -249 q 353 -242 346 -249 q 353 -242 353 -242 q 354 -244 353 -243 l 374 -236 q 382 -231 378 -235 q 392 -222 386 -228 q 412 -212 397 -219 q 426 -201 426 -204 q 431 -200 428 -200 l 432 -200 q 433 -201 431 -201 q 436 -199 435 -201 q 439 -194 438 -196 q 464 -178 451 -192 l 489 -162 q 493 -156 493 -160 q 496 -157 494 -156 q 508 -145 501 -151 q 522 -131 515 -139 q 526 -128 524 -129 q 533 -125 528 -126 q 538 -115 536 -122 q 545 -108 540 -114 q 551 -101 550 -101 l 557 -103 l 561 -89 l 611 -26 q 617 -17 615 -22 q 628 -1 628 -8 q 642 28 629 6 q 646 46 642 36 l 646 49 q 649 54 647 51 q 651 58 650 57 q 650 67 653 60 q 660 92 657 74 q 665 117 663 111 q 672 133 671 129 q 668 139 671 132 q 668 149 668 139 q 667 176 668 158 q 665 178 667 176 q 661 183 664 181 l 658 183 q 661 190 661 186 q 651 218 661 200 q 638 239 644 229 q 614 263 631 249 q 601 268 613 264 q 590 282 600 272 q 579 288 586 282 l 576 285 l 569 290 q 556 292 564 292 q 540 292 549 293 q 531 296 535 296 q 526 296 529 296 q 517 294 522 296 q 508 291 514 294 q 501 288 503 288 q 499 289 499 288 l 496 289 q 478 275 493 289 q 458 263 461 263 l 457 263 q 456 264 456 264 q 456 263 456 264 q 453 260 456 263 q 446 256 451 258 q 431 243 438 250 l 404 228 l 378 203 q 372 201 376 201 q 349 181 363 196 q 311 146 336 167 q 310 139 310 146 q 293 121 300 138 l 282 110 q 275 113 279 115 q 274 122 274 115 q 288 144 274 126 l 288 147 q 304 158 303 150 q 312 167 304 164 q 326 185 319 171 q 364 214 346 197 l 368 222 l 394 244 q 401 246 397 244 q 423 264 413 256 q 443 282 433 272 l 446 282 q 452 284 449 282 q 461 288 456 286 l 461 289 q 478 310 461 297 l 500 331 l 517 336 q 538 356 524 346 l 542 363 q 543 357 542 358 l 557 364 l 564 372 l 574 378 q 578 386 576 383 q 589 393 581 389 q 600 404 600 404 q 600 404 600 404 l 600 404 q 604 401 599 403 l 607 406 q 642 435 625 415 q 654 444 643 438 l 654 449 q 640 455 653 453 q 608 457 626 457 q 606 460 606 460 q 601 458 603 460 q 601 457 603 458 q 601 458 601 458 q 599 460 601 460 q 597 457 594 460 q 588 460 594 460 l 578 457 q 574 458 576 457 q 571 460 572 460 q 543 464 533 464 q 515 457 522 464 l 510 463 q 501 460 501 460 q 498 461 499 460 q 496 463 497 463 q 493 461 494 463 q 489 460 492 460 q 485 462 488 460 q 481 464 482 464 q 478 463 478 464 q 476 461 478 461 q 474 463 474 461 l 472 463 q 463 459 469 463 q 454 456 456 456 q 447 460 450 456 q 442 458 446 460 q 438 456 439 456 q 438 456 438 456 l 438 456 q 436 460 439 457 q 431 454 432 460 q 396 443 400 443 q 396 443 396 443 l 396 443 q 394 444 396 443 q 392 444 393 444 q 392 442 392 444 q 390 438 392 440 l 372 418 q 351 401 372 417 l 339 381 q 331 376 335 381 q 332 382 329 382 q 337 390 335 385 q 340 400 339 394 q 339 410 339 401 q 347 431 342 419 q 361 453 353 442 q 361 454 361 453 q 360 457 361 456 q 390 486 372 467 q 410 496 394 490 q 422 506 415 506 l 425 506 q 428 504 426 504 q 435 508 429 504 q 444 511 440 511 q 464 513 456 513 q 478 513 472 513 q 492 509 479 513 q 508 506 506 506 l 522 506 q 526 500 529 500 l 529 500 q 532 501 531 501 q 534 500 533 501 q 536 499 535 499 l 544 499 q 554 500 550 500 q 560 495 556 500 q 568 490 565 490 l 575 490 q 597 479 582 490 l 610 479 q 619 474 611 474 q 622 478 622 474 q 626 475 622 475 q 629 476 628 475 q 633 478 631 478 q 642 472 640 478 l 646 475 q 647 474 647 475 q 649 472 646 472 q 654 474 656 472 q 685 467 665 467 l 713 492 q 722 500 714 492 q 735 511 728 501 q 747 519 746 515 q 756 521 751 519 q 761 526 757 526 q 762 525 763 526 q 764 524 761 524 q 769 528 765 524 q 774 532 772 532 q 775 531 775 532 l 776 531 q 788 534 786 533 q 799 540 790 535 q 807 531 801 539 l 817 531 l 817 528 q 828 522 817 522 q 831 524 829 522 q 833 526 832 526 q 853 532 843 526 l 853 538 l 860 542 l 871 533 q 869 528 871 531 l 869 522 l 850 510 q 849 503 849 510 l 843 501 q 842 503 842 501 q 840 504 843 504 q 824 500 832 504 q 808 490 822 492 q 789 469 794 489 q 792 450 799 463 l 789 440 q 785 443 781 443 q 779 442 782 443 q 774 440 776 440 q 769 443 772 440 q 764 446 765 446 q 760 444 763 446 q 756 442 758 442 q 755 442 756 442 q 751 443 754 442 l 742 443 q 735 444 738 444 q 730 442 735 444 q 715 435 725 440 l 699 421 q 697 413 697 419 q 692 411 694 411 q 690 411 690 411 q 688 415 692 411 q 667 396 674 410 q 654 389 650 389 q 653 390 653 389 l 651 390 q 640 381 642 390 l 635 381 q 630 383 633 381 q 625 386 626 386 q 611 381 625 386 q 593 364 611 378 l 582 364 q 574 358 582 363 q 536 338 557 353 q 522 326 532 336 q 518 315 519 324 q 524 315 521 315 q 532 314 526 315 q 536 312 535 313 q 538 311 538 311 l 547 317 l 550 322 q 561 324 557 322 q 567 315 560 315 q 574 319 569 315 q 585 322 578 322 q 596 317 590 322 l 604 317 q 630 311 618 315 q 651 301 642 307 q 663 292 656 299 q 672 285 669 285 q 674 286 674 285 l 676 286 q 700 269 686 286 q 708 251 703 260 q 739 211 740 228 q 746 201 736 208 q 749 183 746 192 q 749 146 747 174 q 751 131 749 143 q 754 121 754 119 q 754 118 754 121 l 754 121 q 751 115 753 121 q 747 99 750 108 q 740 75 743 89 q 740 51 742 65 q 735 47 738 49 q 731 42 732 44 q 729 44 731 44 q 726 31 728 39 q 719 13 724 22 q 706 -21 701 -1 l 694 -31 l 685 -24 q 688 -33 682 -26 q 677 -42 682 -37 q 669 -50 672 -46 l 678 -67 q 668 -72 672 -65 l 661 -72 l 649 -92 l 644 -89 l 632 -99 q 631 -104 632 -103 q 613 -122 622 -108 q 593 -140 607 -124 q 591 -149 593 -144 q 576 -157 589 -154 l 571 -168 q 555 -182 560 -176 q 538 -192 550 -187 q 524 -200 538 -193 q 517 -212 521 -208 q 493 -237 507 -215 q 476 -249 476 -239 q 465 -253 471 -250 q 450 -265 458 -256 q 447 -267 449 -265 q 442 -268 444 -268 l 440 -268 q 438 -267 440 -267 q 428 -276 432 -267 l 426 -276 q 413 -287 424 -276 q 400 -297 400 -289 l 396 -294 q 392 -296 394 -294 q 388 -297 390 -297 q 385 -296 386 -297 l 382 -296 q 369 -307 375 -296 q 369 -308 371 -307 l 369 -307 q 367 -307 369 -307 q 355 -311 365 -307 q 343 -315 344 -315 l 340 -315 q 339 -314 340 -314 q 321 -324 336 -314 q 301 -333 306 -333 q 298 -332 300 -333 q 294 -331 296 -331 q 282 -340 288 -331 q 276 -337 274 -337 q 271 -340 276 -337 l 267 -340 q 258 -342 263 -340 q 249 -346 254 -343 q 243 -343 249 -343 q 233 -347 242 -343 q 222 -350 225 -350 q 219 -349 221 -350 q 217 -347 218 -347 q 208 -349 215 -347 q 197 -351 200 -351 q 195 -350 196 -351 q 192 -349 194 -349 q 187 -351 190 -349 q 182 -354 183 -354 m 454 264 l 454 264 q 454 264 456 264 z "},"4":{"ha":840,"x_min":31,"x_max":888,"o":"m 436 -97 q 419 -83 428 -92 l 426 -75 l 424 -61 q 426 -53 424 -58 q 428 -46 428 -47 l 428 -29 q 417 -28 421 -26 q 402 -31 414 -28 q 389 -35 390 -35 q 381 -32 383 -35 q 378 -35 382 -33 q 367 -37 374 -37 q 358 -35 361 -39 l 325 -46 q 319 -53 322 -51 q 319 -53 319 -53 l 319 -53 q 317 -51 318 -51 q 313 -58 313 -51 l 306 -54 l 297 -58 l 294 -56 l 290 -60 q 283 -61 288 -61 q 272 -62 278 -61 q 268 -61 269 -62 l 264 -65 q 249 -69 260 -65 q 238 -74 239 -74 q 230 -68 236 -74 q 224 -60 224 -62 q 232 -51 224 -58 q 242 -40 240 -43 q 262 -32 250 -37 q 292 -21 274 -26 q 301 -22 293 -22 q 310 -19 304 -21 q 322 -17 315 -18 q 325 -12 325 -14 q 328 -17 325 -14 q 332 -12 332 -14 q 332 -13 332 -12 q 333 -15 332 -14 q 335 -12 333 -14 l 339 -12 q 343 -15 339 -12 q 344 -13 344 -15 q 346 -11 344 -11 q 346 -11 346 -11 l 346 -11 q 347 -14 344 -11 q 353 -10 350 -12 q 361 -4 357 -7 l 367 -4 q 374 -6 371 -4 l 381 -6 l 399 1 q 407 0 401 0 q 418 -1 413 0 q 436 4 425 -1 q 432 7 433 7 l 446 46 q 465 89 453 54 q 469 99 465 92 q 478 119 472 107 q 478 127 478 122 q 481 138 479 132 l 489 154 q 494 153 493 154 q 499 158 499 156 q 498 166 499 164 q 497 168 497 168 q 510 178 501 169 q 503 181 507 183 l 504 183 l 504 189 q 485 192 496 190 q 461 196 475 193 q 451 196 457 196 q 439 197 446 196 l 403 206 q 390 204 400 204 q 377 207 389 204 q 363 210 365 210 l 360 210 q 357 208 358 208 q 338 212 354 208 q 318 215 321 215 q 318 214 317 215 q 317 211 318 211 l 313 215 q 311 213 311 214 q 310 211 311 211 l 281 218 l 261 222 q 253 221 258 221 q 243 219 249 221 q 240 222 243 219 l 228 217 q 226 215 228 217 q 210 207 225 214 q 201 194 204 203 l 197 199 q 193 194 197 199 q 182 185 189 190 q 178 186 181 186 q 172 182 175 186 q 157 175 165 179 q 142 164 149 171 q 138 167 140 164 q 121 154 125 154 q 120 154 121 154 q 118 156 119 154 l 90 143 q 86 144 90 144 q 69 138 76 144 q 56 160 61 142 q 67 160 57 158 q 92 166 86 160 q 107 181 97 172 q 110 179 110 181 l 111 179 q 126 194 114 179 l 129 192 q 135 196 129 194 q 136 196 135 196 q 139 194 138 196 q 165 210 142 194 l 178 222 l 178 225 q 163 225 171 225 q 146 226 156 225 q 131 231 136 231 l 125 228 l 117 228 q 108 229 113 229 q 90 228 96 228 q 83 228 83 228 q 69 217 76 217 q 64 218 68 218 q 56 213 60 214 q 57 207 57 211 l 39 197 l 31 199 q 38 207 32 204 l 33 214 q 49 232 43 218 q 61 236 51 232 q 78 249 65 243 q 82 247 81 249 l 86 256 l 107 267 l 131 274 q 137 276 133 275 q 144 279 140 278 l 181 279 q 190 282 182 279 q 200 285 197 285 q 207 281 203 282 l 210 281 q 211 282 208 282 q 235 272 217 282 l 232 265 l 236 257 q 239 260 238 258 q 243 264 240 263 l 244 263 l 246 263 q 258 269 251 265 q 272 276 265 274 l 274 276 q 276 275 274 275 q 283 282 283 275 q 288 281 286 282 q 319 304 297 286 q 325 306 322 304 l 346 326 q 354 332 349 326 q 364 331 360 331 q 383 346 368 331 l 390 354 q 419 372 401 363 q 439 383 429 378 q 449 396 449 389 l 463 406 q 471 403 465 406 q 485 415 476 404 q 486 410 485 411 q 490 415 485 411 q 510 428 501 428 q 510 428 510 428 l 510 428 q 511 427 510 428 q 514 426 513 426 q 515 432 515 428 q 525 431 521 431 l 528 442 q 532 440 531 442 q 538 447 532 443 l 543 446 q 546 454 543 446 q 563 469 551 456 q 568 472 564 471 q 579 476 572 474 q 590 489 582 483 l 607 497 q 615 505 610 500 q 628 515 621 510 q 633 517 629 515 q 640 526 636 519 q 645 525 643 525 q 647 525 647 525 q 678 539 656 531 q 681 550 678 542 l 683 550 l 700 568 q 707 571 701 569 l 711 579 l 715 579 q 756 611 739 597 q 785 635 774 625 l 796 640 q 799 633 797 640 q 783 617 799 629 l 772 603 q 762 597 768 603 q 742 579 756 590 q 722 566 733 575 q 701 543 710 557 l 681 529 l 668 517 q 665 516 667 517 q 661 514 664 515 q 645 497 660 504 q 619 482 631 489 q 619 475 618 481 l 586 450 q 561 432 572 443 q 547 419 547 428 l 542 419 q 507 399 540 419 q 483 379 499 390 l 481 379 q 479 381 481 381 l 450 360 q 425 343 440 358 q 399 326 415 336 q 361 306 383 317 l 354 300 q 339 289 349 297 q 315 269 329 281 q 308 265 308 267 l 308 258 q 321 251 318 251 q 333 254 326 253 q 346 257 339 256 q 353 256 346 257 q 378 250 361 256 l 381 253 q 393 254 392 253 l 394 254 q 399 253 396 256 q 403 253 401 253 q 407 254 406 254 q 421 250 415 254 l 428 254 q 437 244 433 250 q 447 239 440 239 l 457 247 l 461 244 l 474 249 q 489 235 482 235 q 496 242 493 235 q 507 239 504 239 q 508 241 508 239 q 510 243 508 243 q 515 241 513 243 q 519 239 518 239 l 532 239 q 549 263 540 239 q 549 269 549 265 q 551 279 550 274 q 567 292 567 290 q 564 297 567 294 q 569 308 567 301 q 578 321 572 314 l 578 326 q 579 324 578 325 l 592 340 q 600 347 599 340 q 607 369 601 353 l 628 399 q 638 405 631 399 q 639 419 646 411 l 653 429 q 657 439 653 433 l 657 447 q 665 453 664 450 q 665 464 669 458 q 683 471 674 467 q 690 486 692 475 l 699 492 q 700 499 700 493 l 706 501 q 715 515 708 507 q 728 532 721 522 l 728 538 l 747 556 q 761 546 761 556 l 747 528 q 706 460 711 482 q 699 454 703 458 q 692 444 696 450 l 692 436 q 685 428 689 435 q 671 410 682 421 q 663 394 671 404 q 651 379 654 385 l 651 369 q 647 367 650 369 q 635 333 642 357 q 632 328 633 332 q 622 310 631 324 q 615 293 615 296 q 613 279 614 290 l 606 274 q 592 236 592 246 q 597 233 592 232 q 596 225 594 231 q 597 225 596 225 q 600 224 599 225 l 608 231 q 623 221 621 221 q 632 219 625 221 q 639 224 635 222 q 643 222 642 224 l 647 222 q 651 224 649 222 q 656 226 654 226 q 660 224 658 226 q 665 222 663 222 l 669 222 q 673 220 671 221 q 682 218 675 219 l 689 218 q 690 225 690 219 q 694 228 692 225 l 699 225 l 707 221 l 713 221 q 718 219 715 219 q 726 225 722 224 q 733 223 729 225 q 738 221 736 221 q 746 224 740 221 q 754 229 751 228 q 756 228 754 228 l 757 228 l 765 232 l 772 232 q 779 231 775 231 q 790 242 782 235 l 806 246 q 808 244 808 246 l 811 244 l 822 250 q 822 250 822 250 l 822 250 q 828 247 822 249 l 835 258 q 842 268 838 261 q 854 288 846 275 l 867 301 q 875 329 875 321 l 874 336 q 886 338 875 338 q 885 321 881 333 q 888 318 886 322 q 885 313 888 317 q 883 306 883 308 q 876 283 882 294 q 861 261 871 272 l 861 256 q 857 249 857 254 q 842 240 850 246 q 840 236 840 236 q 826 224 835 231 q 806 207 817 217 l 793 200 q 790 201 794 201 q 783 195 790 203 q 768 188 776 188 q 765 188 765 186 q 763 188 765 189 q 749 182 761 188 q 735 176 736 176 q 716 175 728 175 q 689 174 704 175 q 683 165 683 172 q 680 169 681 168 q 674 174 679 171 q 664 174 672 175 l 651 167 q 648 171 650 167 q 640 175 646 175 q 626 168 638 175 l 625 167 q 619 172 625 172 q 617 169 619 172 q 615 171 615 169 q 611 172 614 172 q 610 172 611 172 q 607 171 610 172 q 598 174 606 171 q 588 178 590 178 q 585 176 586 178 q 583 175 585 175 q 576 179 581 172 q 572 175 575 178 q 567 169 569 172 q 546 106 563 163 q 533 64 536 93 l 531 58 q 533 53 528 56 l 529 47 q 524 28 526 35 q 522 18 522 21 q 526 15 524 17 q 528 8 528 14 q 538 8 529 8 q 565 10 547 8 q 575 6 567 8 q 578 8 576 6 q 581 10 579 10 q 583 8 583 10 q 585 7 583 7 q 592 11 588 10 q 599 9 593 11 q 608 7 606 7 l 611 7 q 614 8 611 8 q 618 6 614 8 q 629 10 625 6 l 629 13 l 638 6 q 645 7 640 7 q 656 8 650 7 q 669 -7 661 8 q 657 -15 668 -15 l 614 -11 q 608 -8 613 -11 q 603 -6 604 -6 q 592 -15 601 -6 q 576 -11 586 -11 q 569 -12 575 -12 q 564 -10 568 -12 q 557 -8 560 -8 q 542 -11 557 -8 q 519 -14 528 -14 q 513 -39 519 -18 q 499 -31 508 -35 l 499 -25 q 483 -19 488 -18 q 476 -22 483 -19 q 471 -21 476 -21 q 464 -26 465 -21 l 464 -35 q 458 -37 464 -35 q 446 -67 457 -51 q 446 -82 450 -72 q 442 -97 442 -92 l 436 -97 z "},"5":{"ha":844,"x_min":-17,"x_max":874,"o":"m 231 -232 l 217 -229 q 206 -231 210 -229 l 140 -231 q 118 -226 138 -231 q 106 -222 114 -226 q 96 -217 99 -217 q 92 -218 94 -218 q 85 -219 89 -218 q 80 -216 83 -219 q 75 -212 76 -212 q 74 -214 72 -212 l 72 -214 q 43 -197 63 -214 l 39 -186 q 4 -157 25 -181 q 3 -146 4 -150 q -3 -135 3 -142 q -3 -125 -4 -129 q -10 -106 -10 -112 q -14 -92 -11 -99 q -14 -72 -17 -79 q 0 -42 -10 -58 q 13 -31 6 -37 q 29 -14 19 -24 q 57 14 39 -8 q 71 26 63 19 q 90 40 79 32 q 114 53 107 53 l 118 50 q 132 64 119 54 q 151 76 146 67 q 177 81 163 78 q 210 90 192 85 q 214 94 210 93 q 217 92 217 92 q 257 111 222 92 l 258 111 q 282 117 268 111 q 299 122 296 122 q 301 121 300 122 q 304 119 303 119 q 312 122 307 121 q 322 125 317 124 q 338 127 332 126 q 346 128 343 128 l 383 128 q 390 124 389 128 l 390 115 q 378 117 386 114 q 368 112 376 117 q 358 107 360 107 l 350 107 q 336 110 339 107 q 335 104 335 108 q 329 106 331 104 l 326 103 l 322 106 q 316 103 322 106 q 297 99 310 101 q 289 96 297 99 q 260 88 271 94 q 239 74 250 82 q 235 75 236 74 l 231 75 q 217 67 225 75 q 206 53 217 53 q 183 44 194 53 q 164 39 172 38 q 146 17 160 21 q 135 14 143 17 q 108 -4 126 4 q 100 -3 103 -6 l 96 -25 l 88 -29 q 72 -48 81 -39 q 53 -67 63 -57 l 46 -67 l 42 -83 q 29 -104 29 -92 q 31 -119 29 -115 q 33 -121 32 -124 q 26 -137 26 -146 q 40 -162 29 -162 q 46 -161 42 -161 q 53 -172 44 -165 q 65 -178 61 -178 q 65 -181 67 -179 q 76 -185 69 -182 q 82 -187 83 -187 q 83 -186 83 -187 q 86 -185 83 -185 q 100 -194 82 -185 q 126 -203 118 -203 q 130 -201 128 -203 q 135 -200 132 -200 l 135 -201 l 136 -203 q 143 -200 138 -201 q 147 -201 146 -200 q 151 -203 149 -203 q 153 -200 153 -203 q 233 -196 172 -203 q 244 -187 239 -193 q 251 -187 247 -187 q 261 -186 256 -187 q 261 -186 261 -186 l 261 -186 q 269 -190 260 -186 l 276 -182 q 283 -181 279 -182 q 292 -179 286 -181 q 296 -175 292 -176 l 299 -175 q 300 -176 299 -176 q 313 -169 306 -171 q 315 -171 315 -169 l 317 -171 l 338 -164 q 344 -158 340 -161 q 353 -149 347 -154 q 358 -150 354 -150 q 367 -153 363 -150 l 367 -149 l 394 -132 l 396 -133 l 397 -133 q 407 -124 401 -133 l 410 -124 q 435 -107 425 -124 q 439 -110 435 -110 q 457 -96 449 -110 q 472 -90 465 -96 q 481 -78 475 -78 q 485 -79 481 -79 q 503 -67 486 -79 q 522 -54 519 -54 q 529 -56 525 -54 l 557 -28 q 564 -25 560 -26 q 574 -21 568 -24 q 582 -6 578 -17 q 590 -1 585 -1 q 601 22 608 8 q 635 47 622 33 q 641 58 638 53 q 650 69 644 64 q 651 68 651 69 l 653 68 q 667 96 664 68 q 671 101 668 97 q 679 115 674 106 q 714 168 714 136 q 714 175 714 171 q 713 183 714 179 q 718 194 715 188 q 724 219 721 201 l 714 240 l 717 257 q 710 268 717 258 q 703 272 708 268 q 693 283 699 275 q 661 300 675 290 q 646 304 658 303 q 621 308 628 308 l 606 306 q 600 308 603 306 q 596 311 597 310 l 582 311 q 579 309 581 311 q 576 307 578 307 l 571 311 q 534 308 557 310 q 476 300 511 306 q 456 292 471 296 q 411 278 442 288 q 375 254 404 275 l 360 238 q 344 232 354 238 q 338 213 333 218 l 325 200 q 311 193 313 200 q 304 186 310 186 l 290 185 q 289 187 289 185 q 286 189 289 189 q 283 187 283 189 q 281 185 282 185 q 278 188 279 186 q 274 190 276 189 q 272 189 272 190 l 271 189 q 264 207 267 188 q 272 232 264 219 q 282 254 281 244 q 289 267 289 258 q 294 265 293 267 q 299 275 299 268 l 299 282 q 310 292 304 286 q 322 304 315 297 q 332 296 329 297 q 340 306 333 299 q 342 304 342 306 q 344 303 342 303 q 378 340 356 318 q 378 346 381 343 q 394 363 385 354 q 397 360 394 363 q 409 371 401 365 q 431 394 417 376 l 435 390 q 438 399 438 393 q 448 408 440 400 q 454 418 456 415 l 488 443 q 489 449 489 444 q 488 453 489 456 q 474 461 474 461 q 439 454 463 461 q 432 447 436 449 l 424 447 q 418 453 418 453 l 383 443 q 379 444 381 443 l 376 444 l 357 435 l 354 438 l 319 425 q 314 419 319 421 q 313 421 314 421 q 311 422 311 421 q 299 414 306 418 q 285 406 292 410 q 282 407 283 406 l 278 407 q 243 396 268 407 q 225 383 238 390 q 194 371 215 383 q 190 369 193 369 q 182 368 186 369 q 172 360 181 365 q 171 361 171 360 l 168 361 q 160 355 167 361 q 150 349 153 349 q 146 363 146 349 q 147 388 146 383 q 175 417 154 403 q 224 438 208 435 q 227 435 226 438 q 231 433 228 433 q 233 435 232 433 q 238 436 235 436 q 250 432 250 436 q 260 428 250 428 q 287 440 269 428 q 310 453 304 451 q 319 446 313 453 q 332 450 328 449 q 336 451 336 451 l 340 454 q 360 459 347 454 q 374 464 374 464 q 381 463 375 463 q 384 465 383 463 q 386 467 385 467 l 389 467 q 392 465 389 465 l 439 485 q 475 489 458 492 q 478 492 476 490 q 482 494 479 493 q 497 493 489 493 q 513 493 504 493 q 533 503 522 493 q 565 533 547 510 q 579 529 569 533 q 581 515 579 519 l 571 510 l 571 504 q 583 501 579 501 q 599 524 590 501 q 614 517 619 517 q 646 531 617 517 q 652 525 649 529 q 660 515 656 521 l 675 519 q 686 526 678 524 q 738 535 731 535 q 742 533 740 535 q 744 531 743 531 q 761 533 747 531 q 778 535 775 535 q 781 533 779 535 q 783 531 782 531 l 799 531 l 806 529 q 807 533 810 529 q 829 522 821 522 q 832 524 832 522 l 833 524 q 857 510 843 524 q 863 497 860 508 q 867 490 864 496 q 874 474 871 485 q 873 469 874 472 q 871 442 872 465 q 858 436 867 438 q 850 429 856 431 q 849 431 849 429 l 847 431 q 835 411 843 431 l 794 367 q 788 362 792 365 q 776 356 783 358 l 769 367 q 779 383 776 374 q 788 390 782 393 q 796 417 794 394 q 801 443 800 421 q 803 447 801 444 q 804 453 804 450 q 801 460 804 454 l 801 463 q 782 492 801 478 q 775 493 781 493 q 754 488 771 493 q 733 501 744 503 q 725 499 733 501 l 679 496 q 676 497 678 496 q 672 499 674 499 l 657 492 q 655 493 656 492 q 653 494 654 494 q 640 490 647 492 q 625 485 632 488 l 614 488 q 588 482 606 488 q 581 478 585 479 l 575 478 q 568 479 571 479 q 536 464 560 479 l 532 456 q 426 354 519 444 q 426 353 426 354 q 425 351 426 353 q 400 310 428 346 l 394 299 l 394 293 l 399 293 q 407 299 401 294 q 425 303 413 303 l 428 303 q 429 301 428 301 q 434 304 432 301 q 439 307 436 307 q 440 307 439 307 q 442 306 440 307 l 446 308 q 453 306 451 306 l 469 314 q 575 331 568 331 l 582 331 q 603 325 594 331 l 613 332 q 640 332 628 332 q 658 331 651 332 q 668 328 663 329 q 681 325 674 326 l 696 313 l 700 313 q 711 311 706 313 l 732 299 q 740 292 735 297 q 751 276 744 286 q 760 274 754 272 q 769 247 760 264 q 779 228 778 231 q 785 194 785 211 q 783 188 785 192 q 782 183 782 185 q 765 115 782 160 q 765 103 764 110 q 760 97 764 101 q 751 83 757 93 q 747 74 750 81 q 738 61 743 68 q 722 40 731 50 q 706 22 714 31 l 636 -44 q 614 -66 628 -53 q 578 -96 600 -79 q 553 -110 564 -103 q 532 -124 542 -117 q 524 -125 531 -125 q 482 -156 489 -156 l 479 -156 l 478 -154 q 407 -192 468 -154 l 386 -200 q 385 -199 385 -200 q 382 -197 385 -197 l 364 -204 q 361 -203 361 -204 l 358 -203 q 345 -208 356 -203 q 333 -212 335 -212 q 319 -215 326 -214 q 303 -218 311 -215 q 296 -222 300 -221 q 281 -224 296 -222 q 257 -226 265 -226 q 231 -232 240 -232 z "},"6":{"ha":788,"x_min":46,"x_max":822,"o":"m 285 -82 q 265 -42 271 -75 q 260 -37 264 -37 q 252 -39 257 -39 q 242 -39 247 -39 q 238 -36 240 -39 q 222 -39 233 -36 q 210 -42 211 -42 q 208 -39 211 -40 l 200 -39 q 195 -35 199 -39 q 189 -33 192 -32 q 185 -35 188 -33 q 181 -36 182 -36 q 174 -33 178 -36 q 168 -31 169 -31 q 163 -32 164 -31 q 154 -21 161 -28 q 147 -24 150 -21 q 136 -17 138 -17 q 129 -19 132 -17 q 116 -8 124 -14 q 100 7 108 -1 q 92 13 96 11 q 71 46 82 17 l 58 81 l 54 89 q 46 118 49 106 q 54 126 46 121 l 47 136 q 50 142 47 136 l 50 168 l 54 174 l 54 176 q 60 196 54 190 q 60 193 60 194 q 63 190 61 192 l 57 217 l 63 224 l 61 231 q 61 231 61 231 l 61 231 q 62 229 61 229 q 63 229 63 229 q 67 240 65 229 l 67 244 l 74 253 l 74 254 q 78 266 74 258 q 88 286 82 274 q 94 301 90 290 q 103 329 97 311 q 113 339 108 335 q 122 349 118 343 q 129 365 122 351 l 138 369 l 140 374 q 150 392 143 385 q 154 390 150 390 q 163 406 156 390 q 178 422 171 422 q 184 424 181 422 q 189 435 188 426 l 192 439 l 192 443 q 218 464 200 454 q 224 463 218 463 q 226 467 225 464 q 231 472 228 469 q 250 488 231 479 l 253 493 q 262 500 257 493 q 272 506 267 507 q 272 510 275 508 q 315 542 281 511 q 323 544 318 543 q 335 544 328 544 q 339 543 335 543 q 349 558 340 543 l 357 567 q 362 565 360 565 q 364 565 364 565 q 369 574 372 567 l 383 574 q 401 585 401 579 l 397 588 l 403 592 l 408 590 q 414 599 411 596 l 417 599 l 418 597 l 432 601 q 433 607 433 603 q 449 604 442 604 q 457 614 453 604 q 459 614 457 614 q 464 615 461 614 q 474 624 468 624 q 476 622 475 624 l 478 622 l 511 626 l 517 624 q 526 628 518 624 q 535 633 533 633 l 536 633 l 538 632 q 540 635 538 632 q 547 633 544 636 l 561 633 l 576 638 q 585 635 576 638 q 595 638 586 635 q 607 642 604 642 q 609 639 608 642 q 613 636 610 636 q 622 640 614 638 q 626 638 624 640 q 631 636 629 635 q 635 640 632 636 q 640 643 639 643 q 640 643 640 643 l 640 643 q 646 640 639 643 q 653 649 649 649 q 657 647 653 647 q 668 649 664 647 q 681 640 682 639 q 692 639 679 642 l 696 642 q 710 643 699 643 q 731 636 719 640 q 754 629 742 632 l 760 631 q 789 614 754 631 l 800 600 q 811 590 801 597 q 822 558 822 561 q 814 533 822 549 q 801 515 806 517 l 781 499 q 773 492 778 496 q 763 486 768 489 q 751 483 757 486 q 749 493 750 481 q 753 503 749 501 q 782 543 771 517 q 787 549 785 546 q 790 560 789 553 l 790 564 q 790 572 790 567 q 789 582 790 576 q 792 586 792 585 q 778 601 792 592 q 760 611 765 611 q 759 610 758 611 q 757 608 760 608 l 746 613 q 728 613 738 613 q 710 614 719 613 q 709 614 710 614 q 707 613 708 614 l 697 613 l 692 614 q 690 613 690 614 q 686 611 689 611 q 681 614 685 611 q 674 617 676 617 q 667 614 671 615 q 656 611 663 613 l 596 601 l 594 601 q 581 597 589 601 q 569 592 572 593 q 543 588 560 592 q 537 584 540 586 q 528 579 533 582 q 528 579 528 579 l 528 579 q 525 581 526 581 q 496 567 518 581 q 496 567 496 567 l 496 567 q 493 568 494 568 q 389 517 465 565 q 282 439 325 475 q 197 352 236 400 q 126 249 158 304 l 126 233 l 124 236 l 119 236 q 118 222 117 228 q 109 206 113 213 q 103 192 106 199 q 93 161 103 182 l 86 128 q 90 115 90 122 q 83 104 83 104 q 88 99 83 101 q 86 92 88 94 q 92 67 88 90 q 95 51 94 56 q 103 42 96 47 q 108 32 103 38 q 117 22 110 26 l 118 17 q 149 -3 125 7 q 182 -12 172 -12 q 199 -14 186 -14 q 203 -17 201 -17 l 210 -17 q 224 -10 211 -17 q 228 -14 224 -14 l 240 -14 q 248 -15 246 -15 q 251 -15 250 -15 q 264 -8 257 -15 q 264 7 261 -4 q 263 10 264 8 q 261 14 263 11 q 261 32 258 21 l 271 53 q 270 56 271 53 q 268 65 269 60 q 269 69 269 67 q 271 75 269 72 q 279 99 286 90 l 285 99 q 285 102 285 99 q 283 111 285 106 l 289 111 q 289 117 292 114 l 299 129 q 297 139 300 133 q 306 156 300 147 q 308 153 306 156 q 328 179 314 154 l 335 199 l 344 208 q 353 228 344 214 l 365 239 l 371 239 q 374 247 372 242 q 378 257 375 251 l 410 279 q 419 287 414 282 q 432 299 425 292 l 432 303 q 447 313 439 307 q 463 329 456 319 l 481 339 q 482 338 482 339 l 483 338 q 499 354 485 338 q 506 357 501 356 q 517 361 511 358 q 522 372 519 363 q 525 375 524 374 q 528 378 526 376 q 538 374 529 376 q 542 381 542 376 q 552 385 546 381 q 561 390 558 390 q 568 389 565 390 q 578 393 571 389 q 586 397 585 397 q 590 397 588 397 q 596 396 593 397 q 603 394 597 396 q 611 393 608 393 q 621 397 613 393 q 631 401 629 401 q 635 400 632 401 q 640 399 638 399 q 646 401 643 399 l 649 399 l 660 404 q 690 394 661 406 q 703 396 692 396 q 726 368 713 388 q 735 354 728 363 l 735 347 q 738 333 735 342 q 742 324 742 325 q 739 316 742 322 q 736 307 736 310 q 735 294 736 301 q 733 276 735 286 q 696 208 728 260 q 688 201 690 207 q 675 185 686 196 l 671 174 q 672 168 672 172 q 651 158 663 167 q 648 152 650 156 q 614 128 646 149 q 594 111 613 122 q 590 99 597 99 q 590 99 590 99 q 586 100 589 99 l 578 88 q 542 71 569 82 q 543 63 542 67 q 525 50 539 56 q 525 50 525 50 l 525 50 q 522 51 524 51 q 510 45 518 49 q 489 32 503 42 q 486 35 492 38 l 465 14 l 461 18 q 453 10 460 14 q 447 11 453 11 q 428 6 440 11 q 413 -6 419 3 q 400 -3 410 -3 q 382 -14 393 -3 l 376 -10 q 361 -19 375 -10 l 354 -26 q 349 -24 349 -25 l 332 -31 l 310 -28 q 281 -44 304 -28 q 286 -68 286 -57 q 285 -82 288 -72 m 283 -1 l 290 -1 q 293 1 290 1 q 296 0 294 1 l 297 0 q 301 3 297 1 q 313 1 308 3 q 329 11 318 7 l 331 11 q 333 10 331 10 q 342 15 336 13 q 354 21 347 18 l 365 21 q 373 26 368 24 q 383 29 378 28 q 396 40 390 40 q 397 39 396 39 l 399 39 q 425 54 401 39 q 436 64 429 60 q 460 75 443 68 q 472 89 463 79 q 492 101 483 96 q 507 113 501 107 l 507 117 q 523 129 514 122 q 543 146 532 136 q 544 142 544 144 q 558 154 551 154 q 563 161 560 154 q 588 190 565 163 q 608 210 594 200 q 613 211 610 211 l 629 233 l 635 246 q 644 256 639 249 q 658 276 649 264 l 668 314 q 674 324 671 314 q 678 339 678 333 q 671 358 678 347 q 636 376 660 379 q 629 372 633 374 l 615 375 q 553 347 604 375 q 536 335 546 342 q 513 322 526 329 q 511 318 513 319 q 510 321 507 319 q 492 301 501 319 q 472 283 476 297 l 469 286 l 394 215 l 361 174 l 332 128 l 317 100 q 300 71 317 96 q 301 65 301 69 q 290 39 292 51 q 284 13 288 21 q 281 6 281 4 q 283 -1 281 1 z "},"7":{"ha":589,"x_min":10,"x_max":650,"o":"m 19 -210 q 10 -200 10 -206 q 13 -192 10 -194 q 18 -186 15 -190 q 24 -166 21 -175 q 28 -147 26 -157 q 35 -143 32 -150 q 42 -124 38 -136 q 54 -97 47 -112 q 60 -90 57 -96 q 69 -69 64 -85 q 83 -43 74 -69 q 101 -21 92 -35 q 105 -19 103 -19 q 108 -18 107 -19 q 122 14 114 -8 q 126 19 124 15 q 133 29 129 22 q 144 40 138 32 l 153 60 q 164 65 158 65 q 169 72 167 68 q 172 81 171 75 l 181 88 l 192 114 q 199 124 194 118 q 211 135 204 129 q 213 140 211 138 l 215 138 q 232 163 231 149 q 242 176 236 168 q 272 206 247 185 q 274 213 272 210 q 310 257 307 236 q 314 258 313 257 l 314 261 q 331 279 314 263 q 336 292 333 285 q 344 308 339 299 q 348 312 346 310 q 356 315 350 314 q 360 324 358 318 q 367 339 363 329 q 375 344 371 338 q 390 349 389 350 q 392 360 390 356 q 406 379 403 379 q 407 378 407 379 l 408 378 q 413 379 411 378 l 413 388 q 400 396 399 396 q 397 394 397 396 l 396 394 q 391 397 393 394 q 386 399 389 399 q 384 397 385 399 q 382 396 383 396 l 369 396 q 365 403 367 401 q 363 406 363 406 q 361 404 361 406 l 360 404 q 353 407 357 406 q 342 411 349 408 q 339 408 339 411 q 326 411 336 411 q 317 410 318 411 l 313 414 q 281 425 288 425 l 278 425 q 276 424 278 424 q 274 426 274 424 q 272 428 274 428 q 258 418 264 428 q 256 422 258 422 l 239 429 q 226 438 225 436 q 216 433 224 436 q 207 431 208 431 l 183 436 q 179 443 183 438 q 161 444 172 444 q 135 446 150 444 q 130 449 133 447 q 122 451 126 450 l 88 451 l 72 449 l 69 451 l 61 444 q 50 432 49 433 q 44 434 46 433 q 42 435 42 435 q 36 430 39 435 q 33 421 33 425 q 24 382 24 413 q 26 358 24 371 q 31 331 28 346 q 42 303 32 322 q 51 283 51 285 q 49 279 51 282 q 42 282 49 279 q 29 290 33 293 q 29 301 26 294 l 21 314 q 13 351 15 335 q 11 379 11 368 l 11 424 l 18 458 l 36 494 l 65 517 q 81 525 74 518 q 85 524 83 525 l 90 524 q 98 525 93 524 q 106 528 103 526 q 107 528 106 528 q 107 528 107 528 q 106 528 107 528 q 114 522 104 526 q 126 526 121 526 q 138 523 129 526 q 147 519 146 519 q 149 521 149 519 q 151 522 150 522 q 154 519 154 522 q 156 517 154 517 l 175 517 q 182 511 179 511 l 186 511 q 189 513 188 513 q 197 507 192 513 q 204 501 203 501 q 211 506 207 501 q 219 497 211 499 q 235 493 228 494 q 260 478 263 478 q 261 479 261 478 l 264 479 q 275 473 265 479 q 288 467 285 467 q 294 468 289 467 q 301 469 299 469 q 315 460 303 469 q 329 451 328 451 q 356 449 351 451 q 367 442 361 446 q 373 440 368 442 q 381 438 378 438 q 382 439 382 438 l 383 439 q 390 435 385 439 q 396 432 394 432 l 399 432 q 400 433 397 433 q 408 429 403 433 q 417 421 413 425 l 422 422 q 437 418 432 422 q 444 414 442 414 q 463 428 444 414 q 466 442 463 433 q 476 454 469 450 q 476 453 476 454 q 478 451 476 453 l 489 451 q 499 463 490 451 q 513 479 508 475 q 538 490 526 490 q 542 486 540 490 q 547 499 553 493 q 550 501 547 501 l 556 500 q 554 504 557 501 q 565 511 561 507 l 565 515 l 578 526 q 583 528 579 528 q 607 546 589 536 l 613 558 l 618 557 q 628 568 625 557 l 639 568 l 640 569 q 647 567 647 568 l 649 565 q 650 557 650 564 q 643 543 650 550 l 636 546 q 621 540 636 546 l 618 535 q 586 507 600 521 q 581 503 585 506 q 571 497 576 500 q 518 436 550 476 l 508 428 q 507 414 507 425 q 519 400 507 400 l 554 400 q 563 406 556 400 q 571 411 569 411 l 572 411 q 574 410 572 410 q 582 418 581 410 q 596 432 594 421 q 607 439 604 435 q 616 456 610 446 q 629 479 622 465 l 635 479 l 639 472 q 636 468 638 472 l 636 464 q 631 446 636 456 q 626 442 629 444 q 621 436 624 439 q 610 413 614 424 q 603 405 607 410 q 596 393 599 400 q 580 381 590 388 q 557 368 569 375 l 554 371 l 531 371 q 526 368 522 368 q 467 381 515 368 q 438 342 436 342 l 435 342 q 433 343 435 343 q 435 339 433 340 q 372 251 396 292 l 371 251 q 354 238 367 251 q 339 206 350 226 q 330 198 338 206 q 322 186 322 190 l 306 172 l 306 168 q 306 163 306 167 q 304 156 306 160 q 283 142 294 150 q 275 126 281 139 q 265 103 269 108 q 247 89 260 99 q 249 85 249 88 l 244 81 q 242 60 243 65 q 242 60 242 54 q 231 54 236 57 q 222 49 226 51 l 222 42 q 214 25 208 36 l 175 -29 q 164 -46 171 -33 q 160 -53 163 -49 q 154 -64 157 -58 l 154 -71 q 143 -92 143 -96 q 138 -93 140 -93 q 136 -93 136 -93 q 129 -102 133 -96 q 119 -115 125 -108 l 117 -115 l 111 -119 q 97 -115 104 -119 q 93 -119 92 -117 q 78 -126 86 -126 q 75 -125 76 -126 l 72 -125 q 60 -143 69 -125 q 51 -153 54 -143 q 46 -162 47 -162 l 33 -174 q 31 -182 33 -174 q 31 -183 29 -182 q 31 -199 35 -192 l 19 -210 m 639 472 l 639 472 q 639 472 639 472 z "},"8":{"ha":725,"x_min":28,"x_max":847,"o":"m 838 549 q 833 550 835 549 l 828 550 l 828 556 q 839 567 831 560 l 844 567 l 847 553 q 838 549 835 549 m 250 -90 q 244 -88 249 -90 q 239 -86 240 -86 l 228 -89 q 222 -86 226 -89 q 215 -83 218 -83 l 207 -83 l 204 -82 q 203 -81 206 -81 l 190 -81 q 178 -76 189 -81 q 167 -72 168 -72 q 131 -58 157 -72 q 102 -42 122 -56 q 78 -25 82 -29 l 65 -14 l 53 0 l 53 7 q 49 12 51 8 q 42 26 46 15 q 42 28 42 26 l 42 26 q 43 26 43 26 l 43 42 q 35 56 43 46 q 28 67 28 65 q 29 81 28 68 q 31 100 31 93 q 33 121 39 111 q 53 151 36 121 l 60 163 q 67 169 61 164 q 74 188 72 174 q 78 194 78 199 q 92 203 86 194 l 100 214 q 131 242 115 219 q 133 240 132 240 q 137 244 136 240 q 147 253 138 247 q 158 265 158 260 q 167 274 161 265 q 169 272 168 274 q 171 274 171 272 l 174 274 q 178 275 176 274 q 188 286 182 282 q 211 303 194 290 q 224 308 217 304 q 233 318 231 311 q 240 315 236 315 q 251 323 242 315 q 261 331 260 331 q 263 329 263 331 l 264 329 l 272 336 l 285 346 q 300 357 292 349 q 339 372 336 363 q 346 376 344 372 l 354 376 q 375 387 364 381 q 400 400 386 393 l 403 397 q 414 406 408 400 q 395 417 404 413 q 375 425 386 422 l 375 429 q 367 433 371 432 q 361 439 364 435 q 347 450 363 439 q 336 474 336 483 l 340 493 l 340 497 l 344 497 q 346 501 346 499 q 347 504 346 503 q 367 525 371 525 l 369 525 q 382 532 365 525 l 394 536 q 421 549 413 542 l 425 546 l 457 551 l 465 551 l 489 556 l 492 556 q 494 554 493 554 q 497 556 496 554 l 500 556 q 507 556 503 556 q 518 558 511 557 l 521 556 l 543 556 q 547 554 543 556 q 554 553 551 553 l 569 553 l 572 550 q 576 550 574 550 q 585 551 579 550 q 586 547 583 547 l 592 547 q 597 549 594 549 q 608 543 603 549 q 622 540 615 542 q 635 536 628 539 q 638 533 638 533 l 640 533 q 642 535 640 535 q 651 530 643 535 q 660 525 658 525 l 671 525 q 682 522 682 524 q 683 521 682 521 q 685 525 688 521 l 689 522 q 696 529 693 525 q 704 526 701 526 q 715 532 706 526 q 725 538 724 538 l 726 538 q 729 536 728 536 q 732 537 729 536 q 740 543 735 538 q 744 547 740 543 q 749 545 746 547 q 753 543 751 543 q 761 549 754 546 q 775 553 768 553 q 778 551 776 553 l 781 551 q 784 553 782 551 q 788 556 786 556 q 789 554 789 556 l 792 554 q 799 558 786 554 l 813 558 q 815 554 815 556 q 811 544 815 553 q 804 535 807 535 l 782 535 q 779 531 776 531 q 778 532 778 531 l 775 532 q 767 528 771 532 l 763 531 l 743 518 q 738 519 740 519 q 735 519 738 519 q 708 511 733 519 l 708 508 q 724 499 715 504 q 746 489 733 494 l 758 478 l 758 474 q 756 472 757 472 q 742 481 754 472 q 728 489 729 489 q 726 488 726 489 l 725 488 q 717 492 724 488 q 710 496 711 496 q 707 494 707 496 l 692 504 q 671 502 678 503 q 650 497 664 501 l 636 492 l 615 479 l 606 482 l 603 476 q 592 472 599 475 q 579 467 586 469 l 567 457 q 550 444 557 444 l 549 444 q 532 439 549 444 l 529 433 l 518 433 q 514 431 518 433 q 503 428 510 429 l 499 424 q 496 426 496 426 q 469 407 492 426 l 469 401 q 483 395 475 400 q 503 383 492 390 q 506 381 503 382 q 515 376 510 381 l 518 372 l 542 363 q 547 358 543 361 q 561 347 551 354 l 561 343 q 574 339 569 339 q 590 318 581 331 q 613 290 599 306 q 633 264 613 289 q 636 260 635 261 q 639 257 638 258 q 639 251 636 254 q 651 219 647 240 l 658 204 q 660 189 660 197 q 661 171 661 181 q 660 156 661 163 q 658 143 660 149 q 652 124 657 139 q 644 104 647 110 q 646 96 642 97 q 639 91 642 93 q 629 71 636 89 q 607 46 613 58 q 601 44 603 46 l 601 43 q 590 33 601 36 l 583 21 q 578 18 582 19 q 571 14 575 17 q 560 3 556 3 q 557 4 558 3 l 554 3 l 547 -4 q 538 -8 543 -6 q 531 -17 533 -10 l 528 -17 q 515 -26 525 -25 q 496 -31 497 -29 l 482 -39 l 467 -50 q 465 -49 465 -50 q 463 -47 464 -47 q 460 -49 461 -47 q 458 -51 460 -51 l 456 -51 q 454 -50 456 -50 q 448 -53 454 -50 q 439 -57 442 -57 q 438 -56 438 -57 l 435 -56 q 425 -64 432 -56 q 414 -60 424 -60 q 413 -59 414 -60 q 408 -57 411 -58 q 403 -57 404 -56 q 408 -69 406 -68 q 402 -72 406 -69 q 397 -74 399 -74 q 394 -72 394 -74 q 393 -71 394 -71 q 392 -73 394 -71 q 386 -76 389 -75 l 382 -76 q 376 -74 379 -76 q 363 -71 372 -71 q 353 -81 358 -71 q 344 -76 347 -76 l 343 -76 q 342 -78 343 -78 q 340 -76 340 -78 q 339 -75 340 -75 q 333 -78 338 -75 q 325 -81 328 -81 q 308 -81 315 -81 q 294 -83 301 -82 q 291 -85 292 -85 q 292 -86 290 -86 l 290 -86 q 289 -85 290 -85 q 284 -87 288 -85 q 279 -90 281 -90 q 263 -86 275 -90 l 256 -86 q 253 -88 254 -86 q 250 -90 251 -90 m 440 421 l 443 424 q 460 431 450 425 q 475 436 469 438 q 492 449 488 449 l 493 449 q 493 447 492 447 q 501 454 499 447 q 533 465 517 458 q 571 486 550 471 q 574 483 571 486 l 621 507 q 624 506 621 506 q 626 507 624 506 q 635 511 629 508 q 633 518 635 515 q 632 517 633 517 q 628 518 629 517 q 625 519 626 519 l 621 519 q 618 518 619 518 q 603 523 617 518 q 588 528 589 528 q 580 525 586 528 q 571 522 574 522 q 565 526 569 522 q 558 529 561 529 q 546 528 557 529 q 531 526 535 526 q 526 522 529 522 q 523 524 525 522 q 519 525 521 525 q 515 524 517 525 q 513 522 514 522 q 508 524 511 522 q 504 525 506 525 q 493 524 496 525 q 444 511 476 522 l 421 496 l 421 488 l 408 481 q 403 456 403 460 q 411 441 403 447 q 424 433 419 435 q 431 428 424 428 q 433 429 431 428 l 440 421 m 207 -51 l 213 -51 q 221 -49 215 -51 l 221 -44 q 224 -47 222 -46 q 228 -51 225 -49 l 225 -46 l 226 -44 q 233 -50 233 -50 l 243 -47 l 247 -47 q 249 -46 249 -46 q 250 -46 250 -46 q 254 -47 253 -46 l 258 -47 q 257 -44 257 -44 q 260 -49 261 -49 q 262 -47 261 -49 q 265 -46 263 -46 l 269 -46 q 275 -47 272 -47 q 276 -46 276 -47 l 283 -46 q 288 -44 285 -44 l 297 -47 q 304 -37 303 -47 q 304 -32 303 -33 q 307 -29 304 -32 q 311 -31 308 -31 q 315 -24 311 -25 l 317 -25 l 317 -29 l 319 -26 q 321 -28 321 -26 q 322 -29 321 -29 q 325 -27 324 -29 q 328 -25 326 -25 q 333 -27 329 -25 q 336 -29 336 -29 q 340 -25 336 -25 q 343 -28 340 -25 l 351 -21 q 350 -12 347 -19 l 356 -14 l 350 -19 q 358 -25 356 -25 q 364 -19 358 -21 q 369 -22 367 -25 q 367 -19 369 -22 q 374 -12 374 -12 q 378 -18 378 -12 l 382 -18 l 386 -12 l 392 -11 q 394 -12 393 -11 l 397 -12 q 411 -3 401 -12 l 411 -1 q 413 -3 413 -1 l 414 -3 q 425 6 413 -3 l 428 3 l 442 7 l 446 17 q 449 15 447 15 l 467 29 q 467 29 467 29 q 465 29 467 29 q 465 29 465 29 q 464 32 463 31 q 465 29 464 31 l 465 29 q 468 29 467 29 q 469 30 468 29 q 474 32 471 31 q 479 49 474 39 q 503 64 482 67 q 504 64 504 64 q 504 65 501 64 q 504 64 504 64 q 510 64 506 64 q 514 68 513 64 l 522 72 l 529 76 q 533 82 529 81 q 547 103 536 103 q 555 118 553 114 q 574 133 557 122 q 576 144 574 138 q 586 161 579 151 q 590 165 588 163 q 597 172 593 167 l 594 183 q 600 192 599 188 q 605 224 603 214 q 607 232 607 233 q 600 271 607 254 l 596 275 l 596 279 l 583 288 l 576 306 q 569 313 574 307 q 546 328 564 319 q 541 333 544 331 q 532 339 538 336 q 518 345 526 340 q 490 360 510 350 q 484 364 493 360 q 458 381 475 368 q 436 392 429 392 q 424 384 436 392 q 407 376 411 376 q 396 367 399 369 q 389 358 393 364 q 389 358 389 358 l 389 358 q 389 367 390 361 l 376 358 q 375 360 376 358 q 364 347 363 347 q 363 349 363 347 l 361 349 q 353 344 360 349 q 344 340 346 340 l 343 340 q 342 342 343 342 l 314 318 q 299 307 314 314 q 275 283 282 283 q 274 285 274 283 l 272 285 q 269 283 271 285 q 260 278 268 281 q 222 244 246 268 l 221 247 l 214 240 l 213 240 q 211 242 213 242 q 203 235 213 242 q 183 221 193 229 q 154 192 178 219 q 151 189 151 189 q 150 190 150 189 l 149 190 q 142 179 150 190 q 143 174 143 176 q 138 168 133 168 l 135 168 q 133 169 135 169 q 124 166 131 169 q 107 158 117 163 q 118 150 114 156 q 113 142 115 147 q 97 116 99 128 q 82 74 94 104 l 82 44 q 88 44 88 46 q 85 40 85 42 q 92 29 85 36 q 88 21 88 25 q 99 3 88 15 q 111 -11 110 -10 l 117 -14 l 117 -19 q 125 -24 121 -19 q 132 -32 125 -25 q 140 -37 136 -31 q 144 -35 143 -33 q 150 -40 144 -40 q 151 -39 151 -40 q 154 -37 151 -37 l 157 -37 q 161 -36 158 -36 l 163 -36 q 161 -43 161 -37 l 176 -47 l 176 -43 q 183 -46 179 -44 q 193 -50 188 -47 q 194 -49 193 -50 q 196 -47 194 -47 l 199 -50 q 201 -49 199 -49 q 204 -50 203 -49 q 207 -51 206 -51 m 260 -49 q 260 -49 260 -49 q 260 -49 260 -49 l 260 -49 z "},"9":{"ha":754,"x_min":58,"x_max":806,"o":"m 276 -378 q 271 -375 275 -378 q 265 -372 267 -372 q 244 -351 257 -365 q 238 -312 238 -335 q 239 -304 238 -311 q 240 -293 240 -297 q 247 -281 240 -297 q 249 -269 247 -274 q 253 -261 250 -267 q 254 -247 256 -256 l 264 -217 q 282 -192 271 -212 q 283 -182 281 -189 q 281 -175 283 -181 q 297 -146 288 -171 l 311 -137 q 313 -130 313 -135 q 314 -119 313 -125 q 333 -79 333 -103 q 354 -46 336 -79 l 376 -11 q 390 6 379 1 q 403 10 401 10 q 401 18 401 14 q 401 28 400 22 l 426 50 l 431 60 q 438 71 440 63 q 450 90 449 82 q 467 106 461 97 q 476 114 469 107 q 476 119 476 117 q 475 125 475 122 q 476 134 475 129 q 478 144 476 139 q 494 161 481 149 l 492 174 q 435 129 463 161 l 431 132 q 409 117 426 125 q 388 106 392 110 q 376 95 383 103 q 365 88 368 88 q 349 85 354 88 q 329 73 342 79 q 300 58 317 67 q 295 58 299 58 q 286 57 292 58 q 283 55 285 57 q 279 53 281 53 l 276 53 q 275 54 278 54 q 271 49 275 54 q 258 44 267 44 l 257 44 q 256 46 257 46 q 242 40 253 46 q 229 33 231 33 q 226 35 226 33 l 224 35 q 221 31 221 35 l 218 33 q 197 26 208 32 q 160 22 175 24 q 133 19 144 19 q 121 28 132 19 l 111 28 q 104 33 110 28 q 96 38 99 38 q 74 58 90 64 l 76 63 q 69 72 75 65 q 60 83 63 79 q 63 104 64 86 q 58 138 58 144 q 69 168 58 149 q 79 193 79 188 q 89 218 89 211 l 107 244 q 122 255 111 243 q 135 268 132 267 l 144 275 q 149 281 146 278 q 165 289 151 285 l 165 290 q 170 303 165 297 q 178 308 175 308 l 183 307 l 183 314 q 214 347 200 329 q 221 349 215 349 l 238 372 q 244 370 242 371 q 246 369 246 369 q 248 372 247 369 q 250 375 249 375 q 252 374 253 375 q 254 372 251 372 q 267 386 258 372 q 267 385 267 386 q 268 383 267 385 q 274 389 272 385 q 279 393 275 393 l 282 393 q 286 392 283 392 q 297 399 288 392 q 308 407 307 407 l 311 407 q 313 406 311 406 q 322 417 319 406 q 347 431 344 431 q 349 429 349 431 q 351 428 349 428 q 360 438 351 428 q 372 447 368 447 q 375 446 375 447 l 376 446 q 407 468 381 446 l 411 465 q 422 472 417 465 q 442 490 428 479 q 450 492 444 492 l 451 492 q 454 490 451 490 q 458 494 456 490 q 461 497 460 497 l 463 497 q 464 496 463 496 q 480 501 467 496 q 494 506 493 506 l 496 506 q 497 504 496 504 q 504 511 501 504 q 533 522 519 514 q 547 531 547 531 q 549 529 549 531 l 551 529 q 558 535 554 529 q 610 546 569 532 q 617 551 611 547 q 625 554 624 554 l 629 554 q 632 553 629 553 q 649 559 633 553 q 667 565 665 565 q 668 564 668 565 l 669 564 q 678 569 671 564 q 688 574 686 574 q 696 571 690 574 q 703 568 701 568 q 719 570 706 568 q 736 572 733 572 q 744 578 740 572 q 749 574 744 575 q 776 563 753 572 q 785 556 779 560 q 796 549 790 553 q 801 528 796 544 q 801 517 799 524 q 806 497 806 504 q 794 474 806 489 q 786 466 793 474 q 778 458 779 458 q 763 467 776 458 q 746 479 750 476 q 739 481 749 481 q 735 476 735 481 q 732 481 735 478 q 726 475 728 481 q 726 475 726 475 l 726 475 q 717 482 725 478 q 703 479 714 479 q 703 481 701 479 q 701 482 703 482 l 669 478 l 639 475 q 635 479 638 475 q 603 468 626 471 l 567 464 q 553 458 563 463 q 542 454 544 454 q 514 447 521 454 l 510 451 q 490 447 503 450 q 463 438 478 443 q 454 435 463 438 q 435 428 446 433 q 411 417 425 424 l 372 399 q 338 377 354 388 q 311 357 322 367 q 293 341 304 350 q 267 321 282 332 l 244 300 q 214 269 215 282 q 206 263 211 269 q 199 253 201 256 l 174 228 l 169 215 q 156 186 164 210 q 150 172 151 185 q 140 158 143 172 q 128 126 128 136 l 122 121 q 113 88 113 96 q 116 78 113 88 q 119 64 119 69 q 126 58 126 61 q 134 44 132 50 q 138 38 136 38 q 144 38 139 38 q 160 39 150 38 l 181 42 q 186 40 183 42 q 190 39 189 39 q 206 47 193 39 q 219 54 218 54 q 222 53 221 54 l 224 53 q 242 61 226 53 q 261 69 258 69 l 263 69 q 265 68 264 68 q 268 69 267 68 l 271 69 q 290 71 286 69 q 297 86 290 76 l 300 82 q 318 92 308 90 q 324 99 322 93 q 334 106 328 99 q 342 113 340 113 q 361 124 347 114 q 365 122 364 124 l 369 122 q 383 135 371 122 q 400 150 396 147 q 417 153 406 153 q 486 204 418 156 l 486 210 q 490 208 486 208 q 503 219 488 208 l 517 226 q 540 250 533 243 q 558 268 546 257 q 568 272 560 269 q 580 285 571 276 q 606 319 589 293 q 619 335 611 326 q 638 358 628 344 q 638 363 640 361 q 650 366 642 363 q 663 371 658 369 l 668 371 q 674 371 671 371 q 681 369 676 371 l 710 392 q 726 410 714 399 q 736 411 728 411 q 739 407 739 411 q 726 383 739 399 l 710 367 l 710 361 q 720 353 717 361 q 728 339 724 346 q 725 317 725 336 l 661 253 q 656 251 660 251 l 628 215 l 624 213 l 600 175 q 596 173 597 174 q 593 172 594 172 l 586 172 q 581 174 583 174 q 567 169 575 174 l 554 149 l 535 131 l 528 117 l 522 114 q 476 36 504 92 q 476 36 476 36 q 472 35 475 36 q 451 4 471 29 q 447 -6 450 0 q 435 -19 444 -11 q 410 -58 421 -35 q 397 -67 400 -58 q 392 -83 394 -75 q 376 -108 383 -97 q 364 -131 368 -119 q 333 -168 344 -149 q 331 -180 332 -174 q 326 -194 329 -186 q 318 -204 324 -197 q 311 -221 313 -211 q 298 -239 304 -226 q 283 -283 292 -251 l 279 -314 q 277 -320 279 -315 q 275 -326 275 -325 q 279 -350 275 -331 q 288 -360 281 -354 q 294 -367 294 -365 q 276 -378 294 -376 z "},"\r":{"ha":0,"x_min":0,"x_max":0,"o":""}," ":{"ha":226,"x_min":0,"x_max":0,"o":""},"":{"ha":226,"x_min":0,"x_max":0,"o":""},"A":{"ha":1440,"x_min":-25,"x_max":1465,"o":"m 51 -247 q 18 -226 21 -226 q 14 -229 17 -226 q -25 -161 -25 -190 q 136 72 -25 -85 l 133 86 l 92 115 q 67 185 79 135 q 88 210 76 194 q 115 249 100 226 l 142 257 l 146 256 l 196 276 l 204 274 q 235 276 215 274 q 285 281 256 278 q 331 284 311 283 q 367 283 351 285 q 375 284 367 283 q 400 286 383 285 l 404 283 l 446 303 l 449 301 q 557 347 481 310 q 669 385 624 379 q 567 338 647 368 q 472 278 499 311 l 479 265 l 497 278 q 519 272 497 274 q 658 264 589 264 l 668 251 q 684 249 675 250 q 706 249 693 249 q 750 247 729 249 q 785 239 771 246 l 810 264 l 813 261 q 966 392 894 326 q 1099 521 1038 457 l 1099 553 l 1090 561 l 1096 588 q 1092 600 1092 590 q 1093 629 1092 621 q 1094 631 1094 638 q 1100 718 1094 703 q 1174 758 1115 758 l 1186 753 l 1194 735 q 1180 683 1189 710 q 1160 626 1171 656 l 1167 583 q 1322 760 1253 676 q 1442 918 1390 844 q 1417 846 1444 894 q 1325 728 1389 797 l 1161 547 q 1176 500 1176 525 q 1171 468 1176 483 l 1178 469 l 1199 411 l 1197 403 q 1218 321 1197 379 q 1239 240 1240 263 l 1256 229 l 1256 224 q 1267 211 1256 211 q 1339 222 1288 211 q 1383 231 1364 228 q 1414 233 1401 233 l 1421 232 q 1363 201 1392 213 q 1306 188 1333 190 l 1303 190 l 1288 182 l 1290 165 l 1294 168 l 1325 106 l 1321 97 l 1347 67 l 1358 69 l 1361 104 l 1365 101 q 1415 32 1369 78 l 1418 33 q 1465 -3 1458 17 l 1442 -15 q 1414 0 1431 -10 q 1375 24 1397 10 l 1372 22 q 1346 39 1358 22 q 1335 52 1340 46 q 1324 65 1329 58 l 1324 69 q 1276 131 1300 85 l 1272 126 l 1261 153 l 1257 151 l 1231 183 l 1194 181 l 1190 183 l 1164 179 q 942 196 1149 179 l 936 190 l 879 200 q 847 205 861 203 q 822 207 833 207 q 729 135 792 207 l 722 136 l 715 122 q 632 58 703 107 q 576 22 597 36 q 546 4 556 8 l 536 -18 l 394 -119 l 392 -118 l 260 -200 l 247 -199 q 226 -215 242 -199 l 210 -208 l 192 -222 l 176 -215 q 167 -231 164 -215 l 144 -242 l 132 -232 l 111 -243 q 97 -241 104 -242 q 83 -240 90 -240 q 51 -247 65 -240 m 1144 208 q 1167 209 1157 208 q 1185 211 1178 210 l 1189 208 l 1194 211 l 1208 211 l 1210 218 l 1206 233 q 1175 283 1199 233 q 1150 350 1153 333 l 1143 353 l 1144 357 q 1140 372 1144 363 l 1140 378 l 1133 383 l 1135 389 q 1106 463 1125 403 l 1113 479 l 1107 492 q 1095 482 1101 489 q 1082 465 1089 475 q 1046 435 1072 458 q 978 372 1019 413 q 886 276 890 289 l 874 268 l 869 271 l 851 243 l 854 239 l 858 243 q 881 236 868 233 l 890 228 l 892 228 q 910 235 899 228 l 913 229 q 933 231 929 229 l 936 221 l 953 228 l 960 224 l 988 226 l 1001 219 l 1004 224 q 1021 217 1008 217 q 1035 218 1029 217 q 1063 213 1036 213 q 1081 215 1072 213 q 1099 219 1089 217 q 1117 214 1111 217 q 1122 215 1119 215 q 1124 215 1124 215 q 1134 212 1128 215 q 1144 208 1140 208 m 165 106 q 171 121 168 117 l 182 113 q 263 176 219 138 l 263 171 q 336 228 322 226 l 338 233 l 335 238 q 328 236 331 236 q 322 236 325 236 q 316 238 319 236 q 310 239 313 239 q 294 238 304 239 q 278 236 283 236 q 258 238 256 236 q 250 239 254 239 q 224 237 240 239 q 188 232 208 235 l 183 235 q 169 233 178 235 q 158 231 161 231 l 153 226 q 107 207 146 226 l 104 210 q 92 203 96 204 l 92 178 q 96 179 94 178 q 106 164 99 179 q 118 149 113 149 q 122 150 119 150 l 122 146 q 129 146 124 146 q 133 142 133 146 l 129 139 l 126 133 q 143 122 136 132 l 146 129 l 144 135 l 147 135 q 157 121 151 126 l 156 119 q 165 106 156 107 m 57 -204 l 68 -196 l 86 -197 l 89 -194 q 92 -197 90 -196 q 94 -200 93 -199 l 96 -196 l 103 -204 q 131 -182 107 -182 q 138 -183 136 -182 l 149 -174 l 156 -181 q 183 -164 165 -181 l 200 -174 l 208 -169 l 213 -154 l 215 -156 l 319 -93 q 426 -39 385 -54 q 574 71 447 -14 q 669 138 635 111 q 710 178 703 164 l 719 181 q 728 192 724 186 q 739 207 733 199 l 738 211 q 718 210 729 210 q 692 210 707 210 q 603 221 640 210 l 597 218 q 517 228 572 228 q 467 231 488 229 q 435 235 446 232 l 432 229 l 381 236 q 336 208 358 222 q 290 178 314 193 l 251 143 q 227 125 243 142 q 207 99 211 108 l 210 88 l 222 93 q 257 63 235 82 l 271 67 l 272 63 q 286 58 281 63 l 304 63 l 313 53 l 307 47 l 297 46 l 288 39 l 275 49 l 271 47 q 239 57 258 47 l 231 51 l 218 57 l 215 51 q 210 57 213 53 q 206 65 208 61 l 190 60 l 189 65 l 172 61 l 165 68 q 17 -156 17 -100 q 57 -204 17 -197 z "},"":{"ha":2271,"x_min":-25,"x_max":2264,"o":"m 51 -247 q 18 -226 21 -226 q 14 -229 17 -226 q -25 -161 -25 -190 q 136 72 -25 -85 l 133 86 l 92 115 q 67 185 79 135 q 88 210 76 194 q 115 249 100 226 l 142 257 l 146 256 l 196 276 l 204 274 q 235 276 215 274 q 285 281 256 278 q 331 284 311 283 q 367 283 351 285 q 375 284 367 283 q 400 286 383 285 l 404 283 l 446 303 l 449 301 q 557 347 481 310 q 669 385 624 379 q 567 338 647 368 q 472 278 499 311 l 479 265 l 497 278 q 519 272 497 274 q 658 264 589 264 l 668 251 q 684 249 675 250 q 706 249 693 249 q 750 247 729 249 q 785 239 771 246 l 810 264 l 813 261 q 966 392 894 326 q 1099 521 1038 457 l 1099 553 l 1090 561 l 1096 588 q 1092 600 1092 590 q 1093 629 1092 621 q 1094 631 1094 638 q 1100 718 1094 703 q 1174 758 1115 758 l 1186 753 l 1194 735 q 1180 683 1189 710 q 1160 626 1171 656 l 1167 583 q 1322 760 1253 676 q 1442 918 1390 844 q 1417 846 1444 894 q 1325 728 1389 797 l 1161 547 q 1176 500 1176 525 q 1171 468 1176 483 l 1178 469 l 1199 411 l 1197 403 q 1218 321 1197 379 q 1239 240 1240 263 l 1240 239 q 1256 256 1247 247 q 1276 274 1265 264 q 1293 290 1292 278 q 1297 292 1296 290 q 1325 312 1308 301 q 1357 340 1342 322 l 1372 357 q 1385 365 1376 357 q 1415 382 1394 372 l 1438 399 q 1444 401 1440 399 q 1456 410 1449 403 q 1474 415 1463 411 q 1488 429 1485 419 q 1492 428 1489 428 q 1495 431 1494 428 q 1497 433 1496 433 q 1499 432 1500 433 l 1501 432 q 1510 438 1504 432 q 1515 439 1511 439 q 1524 440 1518 439 q 1528 446 1529 446 q 1529 444 1531 446 l 1531 444 q 1541 449 1533 444 q 1571 461 1549 453 q 1575 464 1571 464 l 1582 464 l 1583 469 q 1560 478 1576 474 q 1551 486 1556 486 q 1550 485 1550 486 l 1549 485 q 1546 487 1546 485 q 1539 492 1546 489 q 1515 504 1531 494 q 1500 510 1508 511 q 1492 520 1500 517 q 1478 526 1485 524 q 1414 636 1414 572 q 1450 728 1414 688 q 1472 743 1461 731 q 1485 742 1489 743 l 1486 742 q 1496 753 1489 749 q 1540 776 1532 776 q 1546 776 1543 776 q 1550 774 1549 775 q 1561 779 1550 775 q 1578 783 1572 783 q 1583 781 1581 783 q 1586 779 1585 779 q 1593 782 1588 779 q 1601 786 1599 785 q 1610 786 1606 786 q 1621 785 1615 786 q 1626 786 1622 785 q 1633 788 1631 788 l 1647 785 q 1667 787 1650 785 q 1686 789 1685 789 l 1724 786 q 1729 788 1725 786 q 1736 789 1733 789 l 1743 785 q 1782 782 1776 781 q 1789 778 1790 778 q 1792 779 1790 778 l 1794 779 q 1802 777 1796 779 q 1811 775 1808 775 q 1814 776 1813 775 l 1815 776 q 1817 775 1818 776 q 1819 774 1817 774 q 1822 778 1822 774 q 1852 767 1843 771 q 1863 763 1861 763 l 1874 763 q 1881 764 1878 764 q 1885 764 1883 764 q 1899 757 1886 764 q 1913 750 1911 750 l 1915 750 q 1917 751 1914 751 q 1936 742 1917 751 l 1972 731 q 1985 722 1974 731 q 2004 713 1997 713 q 2019 699 2007 706 q 2029 691 2024 696 q 2040 689 2035 686 l 2040 683 l 2060 668 q 2063 664 2060 667 q 2070 662 2068 663 q 2072 661 2072 661 q 2083 674 2074 667 l 2083 688 l 2089 688 q 2114 726 2107 710 q 2121 732 2119 728 q 2175 800 2160 800 q 2185 796 2181 800 q 2188 792 2185 796 q 2190 786 2190 789 q 2182 763 2190 779 q 2176 752 2179 757 q 2167 742 2172 747 l 2153 738 l 2150 732 q 2138 722 2142 732 q 2135 708 2133 713 q 2122 697 2128 704 l 2101 678 l 2099 668 q 2083 646 2083 644 q 2087 642 2083 646 q 2097 631 2090 638 q 2105 612 2100 618 q 2110 585 2110 606 q 2096 601 2104 593 l 2086 621 l 2078 629 l 2074 629 q 2066 622 2071 626 q 2054 610 2061 617 q 2054 604 2054 608 q 2053 593 2054 600 q 2039 575 2051 585 q 2042 565 2038 569 l 2026 553 l 2018 565 q 2031 576 2025 568 l 2039 604 q 2051 622 2047 606 q 2063 642 2056 639 q 2049 660 2061 650 q 2035 669 2040 665 q 2029 675 2031 674 q 2005 691 2019 682 q 1971 711 1990 700 l 1935 719 l 1926 726 l 1888 732 l 1885 736 l 1874 736 l 1864 739 q 1857 737 1861 739 q 1851 735 1853 735 q 1843 744 1847 735 q 1790 757 1811 744 q 1774 747 1774 747 q 1765 751 1768 751 q 1763 749 1764 751 q 1761 747 1763 747 q 1743 749 1744 747 l 1732 753 q 1728 751 1731 753 q 1724 750 1725 750 l 1721 750 q 1718 751 1719 751 q 1489 681 1600 751 q 1481 668 1485 679 l 1472 668 q 1454 618 1454 649 q 1476 557 1454 588 q 1479 547 1479 551 q 1496 531 1499 542 q 1538 510 1533 508 l 1544 511 q 1554 503 1547 504 q 1567 500 1561 501 l 1600 482 q 1601 483 1601 482 q 1603 485 1601 485 q 1610 481 1604 485 q 1619 478 1617 478 q 1626 485 1615 479 q 1636 481 1635 481 q 1643 482 1638 481 q 1658 486 1649 483 q 1679 493 1679 493 l 1683 493 q 1686 492 1685 492 q 1691 492 1688 492 q 1701 494 1694 493 q 1708 501 1713 501 l 1710 501 q 1711 500 1710 500 q 1732 508 1728 500 q 1740 506 1735 506 q 1743 507 1742 506 q 1746 508 1744 508 q 1749 507 1749 508 l 1751 507 l 1774 513 q 1778 510 1775 513 q 1783 508 1781 508 q 1800 517 1794 508 q 1803 511 1800 511 q 1808 514 1804 511 q 1815 517 1813 517 q 1826 512 1821 517 q 1833 504 1832 507 l 1822 497 q 1785 492 1799 494 q 1768 490 1771 490 q 1765 492 1765 490 q 1763 493 1765 493 q 1754 492 1761 493 q 1743 490 1747 490 q 1742 483 1742 486 l 1744 483 q 1756 478 1747 483 l 1760 478 q 1764 481 1763 481 l 1767 481 q 1769 479 1767 479 q 1774 482 1774 479 q 1796 478 1781 478 q 1801 478 1797 478 q 1814 479 1806 479 l 1832 479 q 1840 482 1833 479 q 1849 485 1846 485 q 1852 483 1850 485 q 1856 482 1854 482 q 1861 485 1857 482 q 1867 488 1865 488 q 1868 486 1869 488 l 1869 486 q 1903 497 1865 486 q 1913 508 1903 499 l 1921 504 l 1931 488 q 1922 465 1931 481 l 1897 449 q 1888 440 1889 440 q 1886 442 1886 440 q 1883 443 1886 443 q 1868 439 1878 443 q 1857 432 1858 435 q 1850 435 1854 435 l 1832 429 q 1824 431 1829 429 q 1817 433 1819 433 q 1815 431 1815 433 q 1813 429 1814 429 l 1789 432 q 1783 429 1783 429 q 1738 436 1769 429 q 1719 440 1725 439 q 1701 444 1714 440 q 1693 450 1692 450 q 1692 449 1692 450 q 1689 447 1692 447 q 1653 451 1672 447 q 1647 453 1651 451 q 1640 456 1642 456 q 1636 454 1638 456 l 1633 454 q 1627 457 1632 454 q 1621 460 1622 460 q 1597 450 1619 457 q 1584 447 1592 449 q 1567 442 1576 446 l 1549 433 q 1547 431 1547 433 q 1542 432 1544 431 l 1536 424 l 1531 425 q 1526 424 1528 426 q 1522 421 1525 421 l 1519 421 q 1518 422 1519 422 q 1468 388 1513 422 q 1294 214 1364 310 q 1315 217 1300 215 q 1354 225 1329 219 q 1414 233 1390 233 l 1421 232 q 1363 201 1392 213 q 1306 188 1333 190 l 1303 190 l 1288 182 l 1290 165 l 1294 168 l 1325 106 l 1321 97 l 1347 67 l 1358 69 l 1361 104 l 1365 101 q 1415 32 1369 78 l 1418 33 q 1465 -3 1458 17 l 1442 -15 q 1414 0 1431 -10 q 1375 24 1397 10 l 1372 22 q 1346 39 1358 22 q 1335 52 1340 46 q 1324 65 1329 58 l 1324 69 q 1276 131 1300 85 l 1272 126 l 1261 153 l 1257 151 l 1256 153 q 1219 17 1219 78 q 1254 -101 1219 -46 q 1272 -121 1258 -107 q 1313 -151 1286 -135 l 1349 -175 q 1361 -181 1356 -175 l 1363 -182 l 1371 -182 q 1383 -176 1378 -176 q 1410 -182 1394 -176 q 1447 -177 1436 -179 q 1454 -175 1457 -175 q 1465 -179 1461 -175 q 1481 -174 1476 -176 q 1483 -172 1486 -172 q 1501 -174 1489 -172 q 1518 -176 1513 -176 q 1543 -172 1535 -176 q 1559 -165 1553 -167 q 1567 -161 1565 -162 l 1586 -158 q 1610 -151 1590 -154 q 1616 -147 1611 -151 q 1622 -142 1621 -142 q 1624 -143 1624 -142 q 1626 -144 1624 -144 q 1634 -141 1628 -144 q 1654 -132 1640 -137 q 1667 -128 1660 -131 q 1682 -121 1674 -126 q 1697 -111 1696 -118 l 1729 -100 l 1749 -94 q 1783 -77 1763 -87 q 1831 -51 1804 -67 l 1856 -37 l 1881 -29 q 1889 -18 1883 -24 q 1906 -9 1896 -15 q 1929 4 1915 -3 q 1939 6 1933 6 q 1943 13 1944 7 q 1965 23 1958 18 q 1979 36 1972 28 q 1989 36 1983 36 q 2000 38 1994 36 q 2001 44 2000 40 q 2003 53 2001 47 q 2051 89 2029 69 l 2051 93 q 2079 122 2069 110 q 2088 128 2086 122 q 2103 147 2089 133 q 2114 161 2108 149 q 2132 182 2121 167 l 2136 182 q 2138 194 2138 183 q 2158 211 2140 194 l 2158 219 l 2175 250 q 2179 271 2179 257 l 2183 275 q 2186 290 2186 283 q 2168 331 2186 329 q 2165 336 2168 333 q 2118 353 2118 353 q 2092 353 2103 353 q 2074 351 2081 353 q 2071 357 2071 354 l 2083 365 q 2094 367 2086 365 q 2107 368 2101 368 l 2115 368 q 2136 374 2131 368 l 2135 375 l 2090 375 q 2085 377 2089 375 q 2081 379 2082 379 q 2074 378 2078 379 q 2069 376 2071 376 q 2034 374 2049 375 q 2011 369 2019 372 l 1992 365 l 1990 364 q 1960 354 1971 360 q 1946 348 1957 351 q 1915 336 1935 344 l 1885 328 q 1863 311 1879 311 q 1860 313 1860 311 l 1857 313 q 1846 306 1857 313 l 1835 297 q 1819 292 1826 294 q 1807 286 1813 289 q 1797 282 1804 286 q 1769 261 1786 274 q 1746 243 1751 249 l 1729 228 q 1714 217 1724 224 q 1671 176 1704 210 q 1656 160 1665 169 q 1635 136 1647 150 l 1628 121 l 1621 110 l 1621 106 q 1614 113 1614 103 q 1643 165 1614 106 l 1649 169 q 1668 194 1654 183 q 1685 215 1682 206 q 1704 236 1692 218 q 1729 253 1708 236 q 1738 263 1731 256 q 1785 296 1753 269 l 1796 300 q 1829 321 1807 308 q 1838 325 1833 321 q 1940 371 1944 371 q 1942 369 1942 371 l 1943 369 q 1962 372 1953 369 q 1990 379 1971 375 q 2003 389 1997 382 q 2016 392 2007 389 q 2044 400 2025 394 q 2059 401 2050 400 q 2081 403 2068 401 l 2085 403 q 2091 403 2088 403 q 2100 406 2094 404 l 2106 406 q 2108 400 2104 400 l 2128 404 q 2141 400 2131 404 q 2153 396 2151 396 q 2156 398 2154 396 q 2158 400 2157 400 l 2158 400 l 2160 400 l 2158 400 q 2172 392 2160 397 q 2196 386 2181 392 l 2222 371 q 2258 279 2264 347 q 2182 139 2253 224 q 2035 4 2118 64 l 1997 -15 q 1992 -20 1996 -17 q 1983 -26 1989 -24 q 1966 -35 1976 -29 q 1942 -49 1956 -40 q 1908 -67 1932 -51 q 1890 -74 1904 -67 l 1888 -79 q 1868 -93 1874 -93 q 1865 -91 1867 -93 q 1860 -89 1863 -89 q 1844 -107 1857 -89 l 1801 -115 q 1788 -125 1797 -125 q 1778 -119 1778 -125 q 1769 -131 1771 -122 q 1767 -139 1768 -139 q 1754 -137 1764 -139 q 1742 -135 1744 -135 q 1733 -139 1736 -135 q 1727 -152 1732 -149 q 1719 -156 1722 -156 q 1715 -153 1717 -156 q 1713 -151 1714 -151 l 1704 -158 l 1696 -158 q 1654 -174 1685 -169 l 1614 -179 q 1517 -196 1561 -190 q 1442 -201 1474 -201 q 1418 -197 1433 -201 q 1408 -197 1413 -197 q 1397 -196 1403 -197 q 1372 -200 1381 -200 q 1360 -194 1365 -200 q 1349 -192 1354 -193 q 1336 -189 1343 -190 q 1329 -190 1333 -190 q 1311 -183 1322 -190 q 1272 -168 1288 -176 q 1257 -158 1263 -168 l 1256 -158 q 1215 -139 1240 -158 l 1199 -121 q 1183 -102 1193 -114 q 1163 -72 1174 -90 l 1157 -68 q 1157 -58 1158 -62 q 1144 -24 1156 -47 l 1144 7 q 1140 13 1140 14 q 1143 19 1140 14 l 1143 29 q 1151 67 1143 54 q 1150 79 1153 68 l 1157 89 q 1158 94 1157 92 q 1160 101 1158 97 l 1175 144 l 1189 161 l 1199 181 l 1194 181 l 1190 183 l 1164 179 q 942 196 1149 179 l 936 190 l 879 200 q 847 205 861 203 q 822 207 833 207 q 729 135 792 207 l 722 136 l 715 122 q 632 58 703 107 q 576 22 597 36 q 546 4 556 8 l 536 -18 l 394 -119 l 392 -118 l 260 -200 l 247 -199 q 226 -215 242 -199 l 210 -208 l 192 -222 l 176 -215 q 167 -231 164 -215 l 144 -242 l 132 -232 l 111 -243 q 97 -241 104 -242 q 83 -240 90 -240 q 51 -247 65 -240 m 1144 208 q 1167 209 1157 208 q 1185 211 1178 210 l 1189 208 l 1194 211 l 1208 211 l 1210 218 l 1206 233 q 1175 283 1199 233 q 1150 350 1153 333 l 1143 353 l 1144 357 q 1140 372 1144 363 l 1140 378 l 1133 383 l 1135 389 q 1106 463 1125 403 l 1113 479 l 1107 492 q 1095 482 1101 489 q 1082 465 1089 475 q 1046 435 1072 458 q 978 372 1019 413 q 886 276 890 289 l 874 268 l 869 271 l 851 243 l 854 239 l 858 243 q 881 236 868 233 l 890 228 l 892 228 q 910 235 899 228 l 913 229 q 933 231 929 229 l 936 221 l 953 228 l 960 224 l 988 226 l 1001 219 l 1004 224 q 1021 217 1008 217 q 1035 218 1029 217 q 1063 213 1036 213 q 1081 215 1072 213 q 1099 219 1089 217 q 1117 214 1111 217 q 1122 215 1119 215 q 1124 215 1124 215 q 1134 212 1128 215 q 1144 208 1140 208 m 165 106 q 171 121 168 117 l 182 113 q 263 176 219 138 l 263 171 q 336 228 322 226 l 338 233 l 335 238 q 328 236 331 236 q 322 236 325 236 q 316 238 319 236 q 310 239 313 239 q 294 238 304 239 q 278 236 283 236 q 258 238 256 236 q 250 239 254 239 q 224 237 240 239 q 188 232 208 235 l 183 235 q 169 233 178 235 q 158 231 161 231 l 153 226 q 107 207 146 226 l 104 210 q 92 203 96 204 l 92 178 q 96 179 94 178 q 106 164 99 179 q 118 149 113 149 q 122 150 119 150 l 122 146 q 129 146 124 146 q 133 142 133 146 l 129 139 l 126 133 q 143 122 136 132 l 146 129 l 144 135 l 147 135 q 157 121 151 126 l 156 119 q 165 106 156 107 m 57 -204 l 68 -196 l 86 -197 l 89 -194 q 92 -197 90 -196 q 94 -200 93 -199 l 96 -196 l 103 -204 q 131 -182 107 -182 q 138 -183 136 -182 l 149 -174 l 156 -181 q 183 -164 165 -181 l 200 -174 l 208 -169 l 213 -154 l 215 -156 l 319 -93 q 426 -39 385 -54 q 574 71 447 -14 q 669 138 635 111 q 710 178 703 164 l 719 181 q 728 192 724 186 q 739 207 733 199 l 738 211 q 718 210 729 210 q 692 210 707 210 q 603 221 640 210 l 597 218 q 517 228 572 228 q 467 231 488 229 q 435 235 446 232 l 432 229 l 381 236 q 336 208 358 222 q 290 178 314 193 l 251 143 q 227 125 243 142 q 207 99 211 108 l 210 88 l 222 93 q 257 63 235 82 l 271 67 l 272 63 q 286 58 281 63 l 304 63 l 313 53 l 307 47 l 297 46 l 288 39 l 275 49 l 271 47 q 239 57 258 47 l 231 51 l 218 57 l 215 51 q 210 57 213 53 q 206 65 208 61 l 190 60 l 189 65 l 172 61 l 165 68 q 17 -156 17 -100 q 57 -204 17 -197 z "},"":{"ha":2271,"x_min":-25,"x_max":2264,"o":"m 51 -247 q 18 -226 21 -226 q 14 -229 17 -226 q -25 -161 -25 -190 q 136 72 -25 -85 l 133 86 l 92 115 q 67 185 79 135 q 88 210 76 194 q 115 249 100 226 l 142 257 l 146 256 l 196 276 l 204 274 q 235 276 215 274 q 285 281 256 278 q 331 284 311 283 q 367 283 351 285 q 375 284 367 283 q 400 286 383 285 l 404 283 l 446 303 l 449 301 q 557 347 481 310 q 669 385 624 379 q 567 338 647 368 q 472 278 499 311 l 479 265 l 497 278 q 519 272 497 274 q 658 264 589 264 l 668 251 q 684 249 675 250 q 706 249 693 249 q 750 247 729 249 q 785 239 771 246 l 810 264 l 813 261 q 966 392 894 326 q 1099 521 1038 457 l 1099 553 l 1090 561 l 1096 588 q 1092 600 1092 590 q 1093 629 1092 621 q 1094 631 1094 638 q 1100 718 1094 703 q 1174 758 1115 758 l 1186 753 l 1194 735 q 1180 683 1189 710 q 1160 626 1171 656 l 1167 583 q 1322 760 1253 676 q 1442 918 1390 844 q 1417 846 1444 894 q 1325 728 1389 797 l 1161 547 q 1176 500 1176 525 q 1171 468 1176 483 l 1178 469 l 1199 411 l 1197 403 q 1218 321 1197 379 q 1239 240 1240 263 l 1240 239 q 1256 256 1247 247 q 1276 274 1265 264 q 1293 290 1292 278 q 1297 292 1296 290 q 1325 312 1308 301 q 1357 340 1342 322 l 1372 357 q 1385 365 1376 357 q 1415 382 1394 372 l 1438 399 q 1444 401 1440 399 q 1456 410 1449 403 q 1474 415 1463 411 q 1488 429 1485 419 q 1492 428 1489 428 q 1495 431 1494 428 q 1497 433 1496 433 q 1499 432 1500 433 l 1501 432 q 1510 438 1504 432 q 1515 439 1511 439 q 1524 440 1518 439 q 1528 446 1529 446 q 1529 444 1531 446 l 1531 444 q 1541 449 1533 444 q 1571 461 1549 453 q 1575 464 1571 464 l 1582 464 l 1583 469 q 1560 478 1576 474 q 1551 486 1556 486 q 1550 485 1550 486 l 1549 485 q 1546 487 1546 485 q 1539 492 1546 489 q 1515 504 1531 494 q 1500 510 1508 511 q 1492 520 1500 517 q 1478 526 1485 524 q 1414 636 1414 572 q 1450 728 1414 688 q 1472 743 1461 731 q 1485 742 1489 743 l 1486 742 q 1496 753 1489 749 q 1540 776 1532 776 q 1546 776 1543 776 q 1550 774 1549 775 q 1561 779 1550 775 q 1578 783 1572 783 q 1583 781 1581 783 q 1586 779 1585 779 q 1593 782 1588 779 q 1601 786 1599 785 q 1610 786 1606 786 q 1621 785 1615 786 q 1626 786 1622 785 q 1633 788 1631 788 l 1647 785 q 1667 787 1650 785 q 1686 789 1685 789 l 1724 786 q 1729 788 1725 786 q 1736 789 1733 789 l 1743 785 q 1782 782 1776 781 q 1789 778 1790 778 q 1792 779 1790 778 l 1794 779 q 1802 777 1796 779 q 1811 775 1808 775 q 1814 776 1813 775 l 1815 776 q 1817 775 1818 776 q 1819 774 1817 774 q 1822 778 1822 774 q 1852 767 1843 771 q 1863 763 1861 763 l 1874 763 q 1881 764 1878 764 q 1885 764 1883 764 q 1899 757 1886 764 q 1913 750 1911 750 l 1915 750 q 1917 751 1914 751 q 1936 742 1917 751 l 1972 731 q 1985 722 1974 731 q 2004 713 1997 713 q 2019 699 2007 706 q 2029 691 2024 696 q 2040 689 2035 686 l 2040 683 l 2060 668 q 2063 664 2060 667 q 2070 662 2068 663 q 2072 661 2072 661 q 2083 674 2074 667 l 2083 688 l 2089 688 q 2114 726 2107 710 q 2121 732 2119 728 q 2175 800 2160 800 q 2185 796 2181 800 q 2188 792 2185 796 q 2190 786 2190 789 q 2182 763 2190 779 q 2176 752 2179 757 q 2167 742 2172 747 l 2153 738 l 2150 732 q 2138 722 2142 732 q 2135 708 2133 713 q 2122 697 2128 704 l 2101 678 l 2099 668 q 2083 646 2083 644 q 2087 642 2083 646 q 2097 631 2090 638 q 2105 612 2100 618 q 2110 585 2110 606 q 2096 601 2104 593 l 2086 621 l 2078 629 l 2074 629 q 2066 622 2071 626 q 2054 610 2061 617 q 2054 604 2054 608 q 2053 593 2054 600 q 2039 575 2051 585 q 2042 565 2038 569 l 2026 553 l 2018 565 q 2031 576 2025 568 l 2039 604 q 2051 622 2047 606 q 2063 642 2056 639 q 2049 660 2061 650 q 2035 669 2040 665 q 2029 675 2031 674 q 2005 691 2019 682 q 1971 711 1990 700 l 1935 719 l 1926 726 l 1888 732 l 1885 736 l 1874 736 l 1864 739 q 1857 737 1861 739 q 1851 735 1853 735 q 1843 744 1847 735 q 1790 757 1811 744 q 1774 747 1774 747 q 1765 751 1768 751 q 1763 749 1764 751 q 1761 747 1763 747 q 1743 749 1744 747 l 1732 753 q 1728 751 1731 753 q 1724 750 1725 750 l 1721 750 q 1718 751 1719 751 q 1489 681 1600 751 q 1481 668 1485 679 l 1472 668 q 1454 618 1454 649 q 1476 557 1454 588 q 1479 547 1479 551 q 1496 531 1499 542 q 1538 510 1533 508 l 1544 511 q 1554 503 1547 504 q 1567 500 1561 501 l 1600 482 q 1601 483 1601 482 q 1603 485 1601 485 q 1610 481 1604 485 q 1619 478 1617 478 q 1626 485 1615 479 q 1636 481 1635 481 q 1643 482 1638 481 q 1658 486 1649 483 q 1679 493 1679 493 l 1683 493 q 1686 492 1685 492 q 1691 492 1688 492 q 1701 494 1694 493 q 1708 501 1713 501 l 1710 501 q 1711 500 1710 500 q 1732 508 1728 500 q 1740 506 1735 506 q 1743 507 1742 506 q 1746 508 1744 508 q 1749 507 1749 508 l 1751 507 l 1774 513 q 1778 510 1775 513 q 1783 508 1781 508 q 1800 517 1794 508 q 1803 511 1800 511 q 1808 514 1804 511 q 1815 517 1813 517 q 1826 512 1821 517 q 1833 504 1832 507 l 1822 497 q 1785 492 1799 494 q 1768 490 1771 490 q 1765 492 1765 490 q 1763 493 1765 493 q 1754 492 1761 493 q 1743 490 1747 490 q 1742 483 1742 486 l 1744 483 q 1756 478 1747 483 l 1760 478 q 1764 481 1763 481 l 1767 481 q 1769 479 1767 479 q 1774 482 1774 479 q 1796 478 1781 478 q 1801 478 1797 478 q 1814 479 1806 479 l 1832 479 q 1840 482 1833 479 q 1849 485 1846 485 q 1852 483 1850 485 q 1856 482 1854 482 q 1861 485 1857 482 q 1867 488 1865 488 q 1868 486 1869 488 l 1869 486 q 1903 497 1865 486 q 1913 508 1903 499 l 1921 504 l 1931 488 q 1922 465 1931 481 l 1897 449 q 1888 440 1889 440 q 1886 442 1886 440 q 1883 443 1886 443 q 1868 439 1878 443 q 1857 432 1858 435 q 1850 435 1854 435 l 1832 429 q 1824 431 1829 429 q 1817 433 1819 433 q 1815 431 1815 433 q 1813 429 1814 429 l 1789 432 q 1783 429 1783 429 q 1738 436 1769 429 q 1719 440 1725 439 q 1701 444 1714 440 q 1693 450 1692 450 q 1692 449 1692 450 q 1689 447 1692 447 q 1653 451 1672 447 q 1647 453 1651 451 q 1640 456 1642 456 q 1636 454 1638 456 l 1633 454 q 1627 457 1632 454 q 1621 460 1622 460 q 1597 450 1619 457 q 1584 447 1592 449 q 1567 442 1576 446 l 1549 433 q 1547 431 1547 433 q 1542 432 1544 431 l 1536 424 l 1531 425 q 1526 424 1528 426 q 1522 421 1525 421 l 1519 421 q 1518 422 1519 422 q 1468 388 1513 422 q 1294 214 1364 310 q 1315 217 1300 215 q 1354 225 1329 219 q 1414 233 1390 233 l 1421 232 q 1363 201 1392 213 q 1306 188 1333 190 l 1303 190 l 1288 182 l 1290 165 l 1294 168 l 1325 106 l 1321 97 l 1347 67 l 1358 69 l 1361 104 l 1365 101 q 1415 32 1369 78 l 1418 33 q 1465 -3 1458 17 l 1442 -15 q 1414 0 1431 -10 q 1375 24 1397 10 l 1372 22 q 1346 39 1358 22 q 1335 52 1340 46 q 1324 65 1329 58 l 1324 69 q 1276 131 1300 85 l 1272 126 l 1261 153 l 1257 151 l 1256 153 q 1219 17 1219 78 q 1254 -101 1219 -46 q 1272 -121 1258 -107 q 1313 -151 1286 -135 l 1349 -175 q 1361 -181 1356 -175 l 1363 -182 l 1371 -182 q 1383 -176 1378 -176 q 1410 -182 1394 -176 q 1447 -177 1436 -179 q 1454 -175 1457 -175 q 1465 -179 1461 -175 q 1481 -174 1476 -176 q 1483 -172 1486 -172 q 1501 -174 1489 -172 q 1518 -176 1513 -176 q 1543 -172 1535 -176 q 1559 -165 1553 -167 q 1567 -161 1565 -162 l 1586 -158 q 1610 -151 1590 -154 q 1616 -147 1611 -151 q 1622 -142 1621 -142 q 1624 -143 1624 -142 q 1626 -144 1624 -144 q 1634 -141 1628 -144 q 1654 -132 1640 -137 q 1667 -128 1660 -131 q 1682 -121 1674 -126 q 1697 -111 1696 -118 l 1729 -100 l 1749 -94 q 1783 -77 1763 -87 q 1831 -51 1804 -67 l 1856 -37 l 1881 -29 q 1889 -18 1883 -24 q 1906 -9 1896 -15 q 1929 4 1915 -3 q 1939 6 1933 6 q 1943 13 1944 7 q 1965 23 1958 18 q 1979 36 1972 28 q 1989 36 1983 36 q 2000 38 1994 36 q 2001 44 2000 40 q 2003 53 2001 47 q 2051 89 2029 69 l 2051 93 q 2079 122 2069 110 q 2088 128 2086 122 q 2103 147 2089 133 q 2114 161 2108 149 q 2132 182 2121 167 l 2136 182 q 2138 194 2138 183 q 2158 211 2140 194 l 2158 219 l 2175 250 q 2179 271 2179 257 l 2183 275 q 2186 290 2186 283 q 2168 331 2186 329 q 2165 336 2168 333 q 2118 353 2118 353 q 2092 353 2103 353 q 2074 351 2081 353 q 2071 357 2071 354 l 2083 365 q 2094 367 2086 365 q 2107 368 2101 368 l 2115 368 q 2136 374 2131 368 l 2135 375 l 2090 375 q 2085 377 2089 375 q 2081 379 2082 379 q 2074 378 2078 379 q 2069 376 2071 376 q 2034 374 2049 375 q 2011 369 2019 372 l 1992 365 l 1990 364 q 1960 354 1971 360 q 1946 348 1957 351 q 1915 336 1935 344 l 1885 328 q 1863 311 1879 311 q 1860 313 1860 311 l 1857 313 q 1846 306 1857 313 l 1835 297 q 1819 292 1826 294 q 1807 286 1813 289 q 1797 282 1804 286 q 1769 261 1786 274 q 1746 243 1751 249 l 1729 228 q 1714 217 1724 224 q 1671 176 1704 210 q 1656 160 1665 169 q 1635 136 1647 150 l 1628 121 l 1621 110 l 1621 106 q 1614 113 1614 103 q 1643 165 1614 106 l 1649 169 q 1668 194 1654 183 q 1685 215 1682 206 q 1704 236 1692 218 q 1729 253 1708 236 q 1738 263 1731 256 q 1785 296 1753 269 l 1796 300 q 1829 321 1807 308 q 1838 325 1833 321 q 1940 371 1944 371 q 1942 369 1942 371 l 1943 369 q 1962 372 1953 369 q 1990 379 1971 375 q 2003 389 1997 382 q 2016 392 2007 389 q 2044 400 2025 394 q 2059 401 2050 400 q 2081 403 2068 401 l 2085 403 q 2091 403 2088 403 q 2100 406 2094 404 l 2106 406 q 2108 400 2104 400 l 2128 404 q 2141 400 2131 404 q 2153 396 2151 396 q 2156 398 2154 396 q 2158 400 2157 400 l 2158 400 l 2160 400 l 2158 400 q 2172 392 2160 397 q 2196 386 2181 392 l 2222 371 q 2258 279 2264 347 q 2182 139 2253 224 q 2035 4 2118 64 l 1997 -15 q 1992 -20 1996 -17 q 1983 -26 1989 -24 q 1966 -35 1976 -29 q 1942 -49 1956 -40 q 1908 -67 1932 -51 q 1890 -74 1904 -67 l 1888 -79 q 1868 -93 1874 -93 q 1865 -91 1867 -93 q 1860 -89 1863 -89 q 1844 -107 1857 -89 l 1801 -115 q 1788 -125 1797 -125 q 1778 -119 1778 -125 q 1769 -131 1771 -122 q 1767 -139 1768 -139 q 1754 -137 1764 -139 q 1742 -135 1744 -135 q 1733 -139 1736 -135 q 1727 -152 1732 -149 q 1719 -156 1722 -156 q 1715 -153 1717 -156 q 1713 -151 1714 -151 l 1704 -158 l 1696 -158 q 1654 -174 1685 -169 l 1614 -179 q 1517 -196 1561 -190 q 1442 -201 1474 -201 q 1418 -197 1433 -201 q 1408 -197 1413 -197 q 1397 -196 1403 -197 q 1372 -200 1381 -200 q 1360 -194 1365 -200 q 1349 -192 1354 -193 q 1336 -189 1343 -190 q 1329 -190 1333 -190 q 1311 -183 1322 -190 q 1272 -168 1288 -176 q 1257 -158 1263 -168 l 1256 -158 q 1215 -139 1240 -158 l 1199 -121 q 1183 -102 1193 -114 q 1163 -72 1174 -90 l 1157 -68 q 1157 -58 1158 -62 q 1144 -24 1156 -47 l 1144 7 q 1140 13 1140 14 q 1143 19 1140 14 l 1143 29 q 1151 67 1143 54 q 1150 79 1153 68 l 1157 89 q 1158 94 1157 92 q 1160 101 1158 97 l 1175 144 l 1189 161 l 1199 181 l 1194 181 l 1190 183 l 1164 179 q 942 196 1149 179 l 936 190 l 879 200 q 847 205 861 203 q 822 207 833 207 q 729 135 792 207 l 722 136 l 715 122 q 632 58 703 107 q 576 22 597 36 q 546 4 556 8 l 536 -18 l 394 -119 l 392 -118 l 260 -200 l 247 -199 q 226 -215 242 -199 l 210 -208 l 192 -222 l 176 -215 q 167 -231 164 -215 l 144 -242 l 132 -232 l 111 -243 q 97 -241 104 -242 q 83 -240 90 -240 q 51 -247 65 -240 m 1144 208 q 1167 209 1157 208 q 1185 211 1178 210 l 1189 208 l 1194 211 l 1208 211 l 1210 218 l 1206 233 q 1175 283 1199 233 q 1150 350 1153 333 l 1143 353 l 1144 357 q 1140 372 1144 363 l 1140 378 l 1133 383 l 1135 389 q 1106 463 1125 403 l 1113 479 l 1107 492 q 1095 482 1101 489 q 1082 465 1089 475 q 1046 435 1072 458 q 978 372 1019 413 q 886 276 890 289 l 874 268 l 869 271 l 851 243 l 854 239 l 858 243 q 881 236 868 233 l 890 228 l 892 228 q 910 235 899 228 l 913 229 q 933 231 929 229 l 936 221 l 953 228 l 960 224 l 988 226 l 1001 219 l 1004 224 q 1021 217 1008 217 q 1035 218 1029 217 q 1063 213 1036 213 q 1081 215 1072 213 q 1099 219 1089 217 q 1117 214 1111 217 q 1122 215 1119 215 q 1124 215 1124 215 q 1134 212 1128 215 q 1144 208 1140 208 m 165 106 q 171 121 168 117 l 182 113 q 263 176 219 138 l 263 171 q 336 228 322 226 l 338 233 l 335 238 q 328 236 331 236 q 322 236 325 236 q 316 238 319 236 q 310 239 313 239 q 294 238 304 239 q 278 236 283 236 q 258 238 256 236 q 250 239 254 239 q 224 237 240 239 q 188 232 208 235 l 183 235 q 169 233 178 235 q 158 231 161 231 l 153 226 q 107 207 146 226 l 104 210 q 92 203 96 204 l 92 178 q 96 179 94 178 q 106 164 99 179 q 118 149 113 149 q 122 150 119 150 l 122 146 q 129 146 124 146 q 133 142 133 146 l 129 139 l 126 133 q 143 122 136 132 l 146 129 l 144 135 l 147 135 q 157 121 151 126 l 156 119 q 165 106 156 107 m 57 -204 l 68 -196 l 86 -197 l 89 -194 q 92 -197 90 -196 q 94 -200 93 -199 l 96 -196 l 103 -204 q 131 -182 107 -182 q 138 -183 136 -182 l 149 -174 l 156 -181 q 183 -164 165 -181 l 200 -174 l 208 -169 l 213 -154 l 215 -156 l 319 -93 q 426 -39 385 -54 q 574 71 447 -14 q 669 138 635 111 q 710 178 703 164 l 719 181 q 728 192 724 186 q 739 207 733 199 l 738 211 q 718 210 729 210 q 692 210 707 210 q 603 221 640 210 l 597 218 q 517 228 572 228 q 467 231 488 229 q 435 235 446 232 l 432 229 l 381 236 q 336 208 358 222 q 290 178 314 193 l 251 143 q 227 125 243 142 q 207 99 211 108 l 210 88 l 222 93 q 257 63 235 82 l 271 67 l 272 63 q 286 58 281 63 l 304 63 l 313 53 l 307 47 l 297 46 l 288 39 l 275 49 l 271 47 q 239 57 258 47 l 231 51 l 218 57 l 215 51 q 210 57 213 53 q 206 65 208 61 l 190 60 l 189 65 l 172 61 l 165 68 q 17 -156 17 -100 q 57 -204 17 -197 m 1836 939 q 1829 938 1833 938 q 1814 943 1819 938 q 1813 951 1808 949 l 1863 992 q 1931 1051 1919 1040 q 1935 1060 1935 1054 l 1938 1060 q 1942 1063 1940 1061 q 1944 1065 1943 1064 q 1950 1067 1947 1067 q 1954 1067 1953 1067 q 1970 1079 1964 1074 q 1982 1088 1976 1085 q 1984 1086 1983 1086 q 1985 1086 1985 1086 q 1986 1088 1988 1086 q 1994 1092 1990 1089 q 2001 1097 1999 1096 q 2013 1100 2008 1099 q 2022 1103 2018 1101 l 2025 1101 q 2025 1099 2028 1101 q 2040 1103 2032 1099 q 2042 1100 2042 1101 q 2055 1094 2050 1096 q 2061 1093 2060 1093 q 2071 1085 2071 1089 l 2074 1083 q 2078 1083 2078 1082 q 2069 1071 2079 1079 q 2050 1058 2058 1063 l 2029 1049 q 2018 1044 2019 1044 l 1981 1021 l 1976 1021 q 1975 1018 1975 1019 q 1967 1013 1971 1017 l 1936 994 l 1899 976 q 1836 939 1860 950 z "},"":{"ha":1440,"x_min":-25,"x_max":1497,"o":"m 51 -247 q 18 -226 21 -226 q 14 -229 17 -226 q -25 -161 -25 -190 q 136 72 -25 -85 l 133 86 l 92 115 q 67 185 79 135 q 88 210 76 194 q 115 249 100 226 l 142 257 l 146 256 l 196 276 l 204 274 q 235 276 215 274 q 285 281 256 278 q 331 284 311 283 q 367 283 351 285 q 375 284 367 283 q 400 286 383 285 l 404 283 l 446 303 l 449 301 q 557 347 481 310 q 669 385 624 379 q 567 338 647 368 q 472 278 499 311 l 479 265 l 497 278 q 519 272 497 274 q 658 264 589 264 l 668 251 q 684 249 675 250 q 706 249 693 249 q 750 247 729 249 q 785 239 771 246 l 810 264 l 813 261 q 966 392 894 326 q 1099 521 1038 457 l 1099 553 l 1090 561 l 1096 588 q 1092 600 1092 590 q 1093 629 1092 621 q 1094 631 1094 638 q 1100 718 1094 703 q 1174 758 1115 758 l 1186 753 l 1194 735 q 1180 683 1189 710 q 1160 626 1171 656 l 1167 583 q 1322 760 1253 676 q 1442 918 1390 844 q 1417 846 1444 894 q 1325 728 1389 797 l 1161 547 q 1176 500 1176 525 q 1171 468 1176 483 l 1178 469 l 1199 411 l 1197 403 q 1218 321 1197 379 q 1239 240 1240 263 l 1256 229 l 1256 224 q 1267 211 1256 211 q 1339 222 1288 211 q 1383 231 1364 228 q 1414 233 1401 233 l 1421 232 q 1363 201 1392 213 q 1306 188 1333 190 l 1303 190 l 1288 182 l 1290 165 l 1294 168 l 1325 106 l 1321 97 l 1347 67 l 1358 69 l 1361 104 l 1365 101 q 1415 32 1369 78 l 1418 33 q 1465 -3 1458 17 l 1442 -15 q 1414 0 1431 -10 q 1375 24 1397 10 l 1372 22 q 1346 39 1358 22 q 1335 52 1340 46 q 1324 65 1329 58 l 1324 69 q 1276 131 1300 85 l 1272 126 l 1261 153 l 1257 151 l 1231 183 l 1194 181 l 1190 183 l 1164 179 q 942 196 1149 179 l 936 190 l 879 200 q 847 205 861 203 q 822 207 833 207 q 729 135 792 207 l 722 136 l 715 122 q 632 58 703 107 q 576 22 597 36 q 546 4 556 8 l 536 -18 l 394 -119 l 392 -118 l 260 -200 l 247 -199 q 226 -215 242 -199 l 210 -208 l 192 -222 l 176 -215 q 167 -231 164 -215 l 144 -242 l 132 -232 l 111 -243 q 97 -241 104 -242 q 83 -240 90 -240 q 51 -247 65 -240 m 1144 208 q 1167 209 1157 208 q 1185 211 1178 210 l 1189 208 l 1194 211 l 1208 211 l 1210 218 l 1206 233 q 1175 283 1199 233 q 1150 350 1153 333 l 1143 353 l 1144 357 q 1140 372 1144 363 l 1140 378 l 1133 383 l 1135 389 q 1106 463 1125 403 l 1113 479 l 1107 492 q 1095 482 1101 489 q 1082 465 1089 475 q 1046 435 1072 458 q 978 372 1019 413 q 886 276 890 289 l 874 268 l 869 271 l 851 243 l 854 239 l 858 243 q 881 236 868 233 l 890 228 l 892 228 q 910 235 899 228 l 913 229 q 933 231 929 229 l 936 221 l 953 228 l 960 224 l 988 226 l 1001 219 l 1004 224 q 1021 217 1008 217 q 1035 218 1029 217 q 1063 213 1036 213 q 1081 215 1072 213 q 1099 219 1089 217 q 1117 214 1111 217 q 1122 215 1119 215 q 1124 215 1124 215 q 1134 212 1128 215 q 1144 208 1140 208 m 165 106 q 171 121 168 117 l 182 113 q 263 176 219 138 l 263 171 q 336 228 322 226 l 338 233 l 335 238 q 328 236 331 236 q 322 236 325 236 q 316 238 319 236 q 310 239 313 239 q 294 238 304 239 q 278 236 283 236 q 258 238 256 236 q 250 239 254 239 q 224 237 240 239 q 188 232 208 235 l 183 235 q 169 233 178 235 q 158 231 161 231 l 153 226 q 107 207 146 226 l 104 210 q 92 203 96 204 l 92 178 q 96 179 94 178 q 106 164 99 179 q 118 149 113 149 q 122 150 119 150 l 122 146 q 129 146 124 146 q 133 142 133 146 l 129 139 l 126 133 q 143 122 136 132 l 146 129 l 144 135 l 147 135 q 157 121 151 126 l 156 119 q 165 106 156 107 m 57 -204 l 68 -196 l 86 -197 l 89 -194 q 92 -197 90 -196 q 94 -200 93 -199 l 96 -196 l 103 -204 q 131 -182 107 -182 q 138 -183 136 -182 l 149 -174 l 156 -181 q 183 -164 165 -181 l 200 -174 l 208 -169 l 213 -154 l 215 -156 l 319 -93 q 426 -39 385 -54 q 574 71 447 -14 q 669 138 635 111 q 710 178 703 164 l 719 181 q 728 192 724 186 q 739 207 733 199 l 738 211 q 718 210 729 210 q 692 210 707 210 q 603 221 640 210 l 597 218 q 517 228 572 228 q 467 231 488 229 q 435 235 446 232 l 432 229 l 381 236 q 336 208 358 222 q 290 178 314 193 l 251 143 q 227 125 243 142 q 207 99 211 108 l 210 88 l 222 93 q 257 63 235 82 l 271 67 l 272 63 q 286 58 281 63 l 304 63 l 313 53 l 307 47 l 297 46 l 288 39 l 275 49 l 271 47 q 239 57 258 47 l 231 51 l 218 57 l 215 51 q 210 57 213 53 q 206 65 208 61 l 190 60 l 189 65 l 172 61 l 165 68 q 17 -156 17 -100 q 57 -204 17 -197 m 1254 939 q 1247 938 1251 938 q 1232 943 1238 938 q 1231 951 1226 949 l 1281 992 q 1349 1051 1338 1040 q 1353 1060 1353 1054 l 1356 1060 q 1360 1063 1358 1061 q 1363 1065 1361 1064 q 1368 1067 1365 1067 q 1372 1067 1371 1067 q 1388 1079 1382 1074 q 1400 1088 1394 1085 q 1402 1086 1401 1086 q 1403 1086 1403 1086 q 1404 1088 1406 1086 q 1413 1092 1408 1089 q 1419 1097 1417 1096 q 1431 1100 1426 1099 q 1440 1103 1436 1101 l 1443 1101 q 1443 1099 1446 1101 q 1458 1103 1450 1099 q 1460 1100 1460 1101 q 1473 1094 1468 1096 q 1479 1093 1478 1093 q 1489 1085 1489 1089 l 1492 1083 q 1496 1083 1496 1082 q 1487 1071 1497 1079 q 1468 1058 1476 1063 l 1447 1049 q 1436 1044 1438 1044 l 1399 1021 l 1394 1021 q 1393 1018 1393 1019 q 1385 1013 1389 1017 l 1354 994 l 1317 976 q 1254 939 1278 950 z "},"":{"ha":1440,"x_min":-25,"x_max":1465,"o":"m 51 -247 q 18 -226 21 -226 q 14 -229 17 -226 q -25 -161 -25 -190 q 136 72 -25 -85 l 133 86 l 92 115 q 67 185 79 135 q 88 210 76 194 q 115 249 100 226 l 142 257 l 146 256 l 196 276 l 204 274 q 235 276 215 274 q 285 281 256 278 q 331 284 311 283 q 367 283 351 285 q 375 284 367 283 q 400 286 383 285 l 404 283 l 446 303 l 449 301 q 557 347 481 310 q 669 385 624 379 q 567 338 647 368 q 472 278 499 311 l 479 265 l 497 278 q 519 272 497 274 q 658 264 589 264 l 668 251 q 684 249 675 250 q 706 249 693 249 q 750 247 729 249 q 785 239 771 246 l 810 264 l 813 261 q 966 392 894 326 q 1099 521 1038 457 l 1099 553 l 1090 561 l 1096 588 q 1092 600 1092 590 q 1093 629 1092 621 q 1094 631 1094 638 q 1100 718 1094 703 q 1174 758 1115 758 l 1186 753 l 1194 735 q 1180 683 1189 710 q 1160 626 1171 656 l 1167 583 q 1322 760 1253 676 q 1442 918 1390 844 q 1417 846 1444 894 q 1325 728 1389 797 l 1161 547 q 1176 500 1176 525 q 1171 468 1176 483 l 1178 469 l 1199 411 l 1197 403 q 1218 321 1197 379 q 1239 240 1240 263 l 1256 229 l 1256 224 q 1267 211 1256 211 q 1339 222 1288 211 q 1383 231 1364 228 q 1414 233 1401 233 l 1421 232 q 1363 201 1392 213 q 1306 188 1333 190 l 1303 190 l 1288 182 l 1290 165 l 1294 168 l 1325 106 l 1321 97 l 1347 67 l 1358 69 l 1361 104 l 1365 101 q 1415 32 1369 78 l 1418 33 q 1465 -3 1458 17 l 1442 -15 q 1414 0 1431 -10 q 1375 24 1397 10 l 1372 22 q 1346 39 1358 22 q 1335 52 1340 46 q 1324 65 1329 58 l 1324 69 q 1276 131 1300 85 l 1272 126 l 1261 153 l 1257 151 l 1231 183 l 1194 181 l 1190 183 l 1164 179 q 942 196 1149 179 l 936 190 l 879 200 q 847 205 861 203 q 822 207 833 207 q 729 135 792 207 l 722 136 l 715 122 q 632 58 703 107 q 576 22 597 36 q 546 4 556 8 l 536 -18 l 394 -119 l 392 -118 l 260 -200 l 247 -199 q 226 -215 242 -199 l 210 -208 l 192 -222 l 176 -215 q 167 -231 164 -215 l 144 -242 l 132 -232 l 111 -243 q 97 -241 104 -242 q 83 -240 90 -240 q 51 -247 65 -240 m 1144 208 q 1167 209 1157 208 q 1185 211 1178 210 l 1189 208 l 1194 211 l 1208 211 l 1210 218 l 1206 233 q 1175 283 1199 233 q 1150 350 1153 333 l 1143 353 l 1144 357 q 1140 372 1144 363 l 1140 378 l 1133 383 l 1135 389 q 1106 463 1125 403 l 1113 479 l 1107 492 q 1095 482 1101 489 q 1082 465 1089 475 q 1046 435 1072 458 q 978 372 1019 413 q 886 276 890 289 l 874 268 l 869 271 l 851 243 l 854 239 l 858 243 q 881 236 868 233 l 890 228 l 892 228 q 910 235 899 228 l 913 229 q 933 231 929 229 l 936 221 l 953 228 l 960 224 l 988 226 l 1001 219 l 1004 224 q 1021 217 1008 217 q 1035 218 1029 217 q 1063 213 1036 213 q 1081 215 1072 213 q 1099 219 1089 217 q 1117 214 1111 217 q 1122 215 1119 215 q 1124 215 1124 215 q 1134 212 1128 215 q 1144 208 1140 208 m 165 106 q 171 121 168 117 l 182 113 q 263 176 219 138 l 263 171 q 336 228 322 226 l 338 233 l 335 238 q 328 236 331 236 q 322 236 325 236 q 316 238 319 236 q 310 239 313 239 q 294 238 304 239 q 278 236 283 236 q 258 238 256 236 q 250 239 254 239 q 224 237 240 239 q 188 232 208 235 l 183 235 q 169 233 178 235 q 158 231 161 231 l 153 226 q 107 207 146 226 l 104 210 q 92 203 96 204 l 92 178 q 96 179 94 178 q 106 164 99 179 q 118 149 113 149 q 122 150 119 150 l 122 146 q 129 146 124 146 q 133 142 133 146 l 129 139 l 126 133 q 143 122 136 132 l 146 129 l 144 135 l 147 135 q 157 121 151 126 l 156 119 q 165 106 156 107 m 57 -204 l 68 -196 l 86 -197 l 89 -194 q 92 -197 90 -196 q 94 -200 93 -199 l 96 -196 l 103 -204 q 131 -182 107 -182 q 138 -183 136 -182 l 149 -174 l 156 -181 q 183 -164 165 -181 l 200 -174 l 208 -169 l 213 -154 l 215 -156 l 319 -93 q 426 -39 385 -54 q 574 71 447 -14 q 669 138 635 111 q 710 178 703 164 l 719 181 q 728 192 724 186 q 739 207 733 199 l 738 211 q 718 210 729 210 q 692 210 707 210 q 603 221 640 210 l 597 218 q 517 228 572 228 q 467 231 488 229 q 435 235 446 232 l 432 229 l 381 236 q 336 208 358 222 q 290 178 314 193 l 251 143 q 227 125 243 142 q 207 99 211 108 l 210 88 l 222 93 q 257 63 235 82 l 271 67 l 272 63 q 286 58 281 63 l 304 63 l 313 53 l 307 47 l 297 46 l 288 39 l 275 49 l 271 47 q 239 57 258 47 l 231 51 l 218 57 l 215 51 q 210 57 213 53 q 206 65 208 61 l 190 60 l 189 65 l 172 61 l 165 68 q 17 -156 17 -100 q 57 -204 17 -197 m 1233 938 q 1224 938 1229 938 q 1210 940 1218 939 q 1208 944 1211 946 q 1201 940 1206 943 q 1174 949 1188 943 q 1149 964 1160 954 l 1149 969 l 1133 993 q 1124 1005 1129 1000 q 1113 1013 1118 1010 q 1110 1018 1113 1015 q 1113 1022 1107 1021 l 1115 1029 l 1113 1032 q 1110 1031 1111 1032 q 1107 1031 1108 1031 q 1103 1039 1101 1035 l 1107 1043 q 1102 1047 1106 1046 q 1099 1053 1099 1047 q 1101 1056 1099 1056 q 1099 1058 1103 1057 q 1122 1078 1111 1072 q 1138 1083 1132 1083 q 1143 1082 1142 1083 l 1149 1082 l 1149 1078 q 1160 1051 1149 1067 l 1156 1050 q 1166 1033 1163 1040 q 1171 1019 1169 1026 l 1169 1015 l 1171 1011 l 1176 1007 l 1179 1008 q 1188 997 1189 1004 q 1196 989 1193 996 q 1204 982 1199 982 q 1247 965 1224 965 q 1303 983 1274 965 q 1351 1028 1333 1000 q 1369 1051 1358 1036 q 1389 1081 1379 1067 q 1404 1076 1404 1086 q 1399 1060 1404 1071 q 1388 1036 1394 1049 q 1367 1008 1382 1026 q 1325 972 1351 990 q 1233 938 1274 938 z "},"":{"ha":1440,"x_min":-25,"x_max":1497,"o":"m 51 -247 q 18 -226 21 -226 q 14 -229 17 -226 q -25 -161 -25 -190 q 136 72 -25 -85 l 133 86 l 92 115 q 67 185 79 135 q 88 210 76 194 q 115 249 100 226 l 142 257 l 146 256 l 196 276 l 204 274 q 235 276 215 274 q 285 281 256 278 q 331 284 311 283 q 367 283 351 285 q 375 284 367 283 q 400 286 383 285 l 404 283 l 446 303 l 449 301 q 557 347 481 310 q 669 385 624 379 q 567 338 647 368 q 472 278 499 311 l 479 265 l 497 278 q 519 272 497 274 q 658 264 589 264 l 668 251 q 684 249 675 250 q 706 249 693 249 q 750 247 729 249 q 785 239 771 246 l 810 264 l 813 261 q 966 392 894 326 q 1099 521 1038 457 l 1099 553 l 1090 561 l 1096 588 q 1092 600 1092 590 q 1093 629 1092 621 q 1094 631 1094 638 q 1100 718 1094 703 q 1174 758 1115 758 l 1186 753 l 1194 735 q 1180 683 1189 710 q 1160 626 1171 656 l 1167 583 q 1322 760 1253 676 q 1442 918 1390 844 q 1417 846 1444 894 q 1325 728 1389 797 l 1161 547 q 1176 500 1176 525 q 1171 468 1176 483 l 1178 469 l 1199 411 l 1197 403 q 1218 321 1197 379 q 1239 240 1240 263 l 1256 229 l 1256 224 q 1267 211 1256 211 q 1339 222 1288 211 q 1383 231 1364 228 q 1414 233 1401 233 l 1421 232 q 1363 201 1392 213 q 1306 188 1333 190 l 1303 190 l 1288 182 l 1290 165 l 1294 168 l 1325 106 l 1321 97 l 1347 67 l 1358 69 l 1361 104 l 1365 101 q 1415 32 1369 78 l 1418 33 q 1465 -3 1458 17 l 1442 -15 q 1414 0 1431 -10 q 1375 24 1397 10 l 1372 22 q 1346 39 1358 22 q 1335 52 1340 46 q 1324 65 1329 58 l 1324 69 q 1276 131 1300 85 l 1272 126 l 1261 153 l 1257 151 l 1231 183 l 1194 181 l 1190 183 l 1164 179 q 942 196 1149 179 l 936 190 l 879 200 q 847 205 861 203 q 822 207 833 207 q 729 135 792 207 l 722 136 l 715 122 q 632 58 703 107 q 576 22 597 36 q 546 4 556 8 l 536 -18 l 394 -119 l 392 -118 l 260 -200 l 247 -199 q 226 -215 242 -199 l 210 -208 l 192 -222 l 176 -215 q 167 -231 164 -215 l 144 -242 l 132 -232 l 111 -243 q 97 -241 104 -242 q 83 -240 90 -240 q 51 -247 65 -240 m 1144 208 q 1167 209 1157 208 q 1185 211 1178 210 l 1189 208 l 1194 211 l 1208 211 l 1210 218 l 1206 233 q 1175 283 1199 233 q 1150 350 1153 333 l 1143 353 l 1144 357 q 1140 372 1144 363 l 1140 378 l 1133 383 l 1135 389 q 1106 463 1125 403 l 1113 479 l 1107 492 q 1095 482 1101 489 q 1082 465 1089 475 q 1046 435 1072 458 q 978 372 1019 413 q 886 276 890 289 l 874 268 l 869 271 l 851 243 l 854 239 l 858 243 q 881 236 868 233 l 890 228 l 892 228 q 910 235 899 228 l 913 229 q 933 231 929 229 l 936 221 l 953 228 l 960 224 l 988 226 l 1001 219 l 1004 224 q 1021 217 1008 217 q 1035 218 1029 217 q 1063 213 1036 213 q 1081 215 1072 213 q 1099 219 1089 217 q 1117 214 1111 217 q 1122 215 1119 215 q 1124 215 1124 215 q 1134 212 1128 215 q 1144 208 1140 208 m 165 106 q 171 121 168 117 l 182 113 q 263 176 219 138 l 263 171 q 336 228 322 226 l 338 233 l 335 238 q 328 236 331 236 q 322 236 325 236 q 316 238 319 236 q 310 239 313 239 q 294 238 304 239 q 278 236 283 236 q 258 238 256 236 q 250 239 254 239 q 224 237 240 239 q 188 232 208 235 l 183 235 q 169 233 178 235 q 158 231 161 231 l 153 226 q 107 207 146 226 l 104 210 q 92 203 96 204 l 92 178 q 96 179 94 178 q 106 164 99 179 q 118 149 113 149 q 122 150 119 150 l 122 146 q 129 146 124 146 q 133 142 133 146 l 129 139 l 126 133 q 143 122 136 132 l 146 129 l 144 135 l 147 135 q 157 121 151 126 l 156 119 q 165 106 156 107 m 57 -204 l 68 -196 l 86 -197 l 89 -194 q 92 -197 90 -196 q 94 -200 93 -199 l 96 -196 l 103 -204 q 131 -182 107 -182 q 138 -183 136 -182 l 149 -174 l 156 -181 q 183 -164 165 -181 l 200 -174 l 208 -169 l 213 -154 l 215 -156 l 319 -93 q 426 -39 385 -54 q 574 71 447 -14 q 669 138 635 111 q 710 178 703 164 l 719 181 q 728 192 724 186 q 739 207 733 199 l 738 211 q 718 210 729 210 q 692 210 707 210 q 603 221 640 210 l 597 218 q 517 228 572 228 q 467 231 488 229 q 435 235 446 232 l 432 229 l 381 236 q 336 208 358 222 q 290 178 314 193 l 251 143 q 227 125 243 142 q 207 99 211 108 l 210 88 l 222 93 q 257 63 235 82 l 271 67 l 272 63 q 286 58 281 63 l 304 63 l 313 53 l 307 47 l 297 46 l 288 39 l 275 49 l 271 47 q 239 57 258 47 l 231 51 l 218 57 l 215 51 q 210 57 213 53 q 206 65 208 61 l 190 60 l 189 65 l 172 61 l 165 68 q 17 -156 17 -100 q 57 -204 17 -197 m 1233 938 q 1224 938 1229 938 q 1210 940 1218 939 q 1208 944 1211 946 q 1201 940 1206 943 q 1174 949 1188 943 q 1149 964 1160 954 l 1149 969 l 1133 993 q 1124 1005 1129 1000 q 1113 1013 1118 1010 q 1110 1018 1113 1015 q 1113 1022 1107 1021 l 1115 1029 l 1113 1032 q 1110 1031 1111 1032 q 1107 1031 1108 1031 q 1103 1039 1101 1035 l 1107 1043 q 1102 1047 1106 1046 q 1099 1053 1099 1047 q 1101 1056 1099 1056 q 1099 1058 1103 1057 q 1122 1078 1111 1072 q 1138 1083 1132 1083 q 1143 1082 1142 1083 l 1149 1082 l 1149 1078 q 1160 1051 1149 1067 l 1156 1050 q 1166 1033 1163 1040 q 1171 1019 1169 1026 l 1169 1015 l 1171 1011 l 1176 1007 l 1179 1008 q 1188 997 1189 1004 q 1196 989 1193 996 q 1204 982 1199 982 q 1247 965 1224 965 q 1303 983 1274 965 q 1351 1028 1333 1000 q 1369 1051 1358 1036 q 1389 1081 1379 1067 q 1404 1076 1404 1086 q 1399 1060 1404 1071 q 1388 1036 1394 1049 q 1367 1008 1382 1026 q 1325 972 1351 990 q 1233 938 1274 938 m 1254 1078 q 1247 1076 1251 1076 q 1232 1082 1238 1076 q 1231 1090 1226 1088 l 1281 1131 q 1349 1190 1338 1179 q 1353 1199 1353 1193 l 1356 1199 q 1360 1201 1358 1200 q 1363 1204 1361 1203 q 1368 1206 1365 1206 q 1372 1206 1371 1206 q 1388 1218 1382 1213 q 1400 1226 1394 1224 q 1402 1225 1401 1225 q 1403 1225 1403 1225 q 1404 1226 1406 1225 q 1413 1231 1408 1228 q 1419 1236 1417 1235 q 1431 1239 1426 1238 q 1440 1242 1436 1240 l 1443 1240 q 1443 1238 1446 1240 q 1458 1242 1450 1238 q 1460 1239 1460 1240 q 1473 1233 1468 1235 q 1479 1232 1478 1232 q 1489 1224 1489 1228 l 1492 1222 q 1496 1222 1496 1221 q 1487 1210 1497 1218 q 1468 1197 1476 1201 l 1447 1188 q 1436 1183 1438 1183 l 1399 1160 l 1394 1160 q 1393 1157 1393 1158 q 1385 1151 1389 1156 l 1354 1133 l 1317 1115 q 1254 1078 1278 1089 z "},"":{"ha":1440,"x_min":-25,"x_max":1465,"o":"m 51 -247 q 18 -226 21 -226 q 14 -229 17 -226 q -25 -161 -25 -190 q 136 72 -25 -85 l 133 86 l 92 115 q 67 185 79 135 q 88 210 76 194 q 115 249 100 226 l 142 257 l 146 256 l 196 276 l 204 274 q 235 276 215 274 q 285 281 256 278 q 331 284 311 283 q 367 283 351 285 q 375 284 367 283 q 400 286 383 285 l 404 283 l 446 303 l 449 301 q 557 347 481 310 q 669 385 624 379 q 567 338 647 368 q 472 278 499 311 l 479 265 l 497 278 q 519 272 497 274 q 658 264 589 264 l 668 251 q 684 249 675 250 q 706 249 693 249 q 750 247 729 249 q 785 239 771 246 l 810 264 l 813 261 q 966 392 894 326 q 1099 521 1038 457 l 1099 553 l 1090 561 l 1096 588 q 1092 600 1092 590 q 1093 629 1092 621 q 1094 631 1094 638 q 1100 718 1094 703 q 1174 758 1115 758 l 1186 753 l 1194 735 q 1180 683 1189 710 q 1160 626 1171 656 l 1167 583 q 1322 760 1253 676 q 1442 918 1390 844 q 1417 846 1444 894 q 1325 728 1389 797 l 1161 547 q 1176 500 1176 525 q 1171 468 1176 483 l 1178 469 l 1199 411 l 1197 403 q 1218 321 1197 379 q 1239 240 1240 263 l 1256 229 l 1256 224 q 1267 211 1256 211 q 1339 222 1288 211 q 1383 231 1364 228 q 1414 233 1401 233 l 1421 232 q 1363 201 1392 213 q 1306 188 1333 190 l 1303 190 l 1288 182 l 1290 165 l 1294 168 l 1325 106 l 1321 97 l 1347 67 l 1358 69 l 1361 104 l 1365 101 q 1415 32 1369 78 l 1418 33 q 1465 -3 1458 17 l 1442 -15 q 1414 0 1431 -10 q 1375 24 1397 10 l 1372 22 q 1346 39 1358 22 q 1335 52 1340 46 q 1324 65 1329 58 l 1324 69 q 1276 131 1300 85 l 1272 126 l 1261 153 l 1257 151 l 1231 183 l 1194 181 l 1190 183 l 1164 179 q 942 196 1149 179 l 936 190 l 879 200 q 847 205 861 203 q 822 207 833 207 q 729 135 792 207 l 722 136 l 715 122 q 632 58 703 107 q 576 22 597 36 q 546 4 556 8 l 536 -18 l 394 -119 l 392 -118 l 260 -200 l 247 -199 q 226 -215 242 -199 l 210 -208 l 192 -222 l 176 -215 q 167 -231 164 -215 l 144 -242 l 132 -232 l 111 -243 q 97 -241 104 -242 q 83 -240 90 -240 q 51 -247 65 -240 m 1144 208 q 1167 209 1157 208 q 1185 211 1178 210 l 1189 208 l 1194 211 l 1208 211 l 1210 218 l 1206 233 q 1175 283 1199 233 q 1150 350 1153 333 l 1143 353 l 1144 357 q 1140 372 1144 363 l 1140 378 l 1133 383 l 1135 389 q 1106 463 1125 403 l 1113 479 l 1107 492 q 1095 482 1101 489 q 1082 465 1089 475 q 1046 435 1072 458 q 978 372 1019 413 q 886 276 890 289 l 874 268 l 869 271 l 851 243 l 854 239 l 858 243 q 881 236 868 233 l 890 228 l 892 228 q 910 235 899 228 l 913 229 q 933 231 929 229 l 936 221 l 953 228 l 960 224 l 988 226 l 1001 219 l 1004 224 q 1021 217 1008 217 q 1035 218 1029 217 q 1063 213 1036 213 q 1081 215 1072 213 q 1099 219 1089 217 q 1117 214 1111 217 q 1122 215 1119 215 q 1124 215 1124 215 q 1134 212 1128 215 q 1144 208 1140 208 m 165 106 q 171 121 168 117 l 182 113 q 263 176 219 138 l 263 171 q 336 228 322 226 l 338 233 l 335 238 q 328 236 331 236 q 322 236 325 236 q 316 238 319 236 q 310 239 313 239 q 294 238 304 239 q 278 236 283 236 q 258 238 256 236 q 250 239 254 239 q 224 237 240 239 q 188 232 208 235 l 183 235 q 169 233 178 235 q 158 231 161 231 l 153 226 q 107 207 146 226 l 104 210 q 92 203 96 204 l 92 178 q 96 179 94 178 q 106 164 99 179 q 118 149 113 149 q 122 150 119 150 l 122 146 q 129 146 124 146 q 133 142 133 146 l 129 139 l 126 133 q 143 122 136 132 l 146 129 l 144 135 l 147 135 q 157 121 151 126 l 156 119 q 165 106 156 107 m 57 -204 l 68 -196 l 86 -197 l 89 -194 q 92 -197 90 -196 q 94 -200 93 -199 l 96 -196 l 103 -204 q 131 -182 107 -182 q 138 -183 136 -182 l 149 -174 l 156 -181 q 183 -164 165 -181 l 200 -174 l 208 -169 l 213 -154 l 215 -156 l 319 -93 q 426 -39 385 -54 q 574 71 447 -14 q 669 138 635 111 q 710 178 703 164 l 719 181 q 728 192 724 186 q 739 207 733 199 l 738 211 q 718 210 729 210 q 692 210 707 210 q 603 221 640 210 l 597 218 q 517 228 572 228 q 467 231 488 229 q 435 235 446 232 l 432 229 l 381 236 q 336 208 358 222 q 290 178 314 193 l 251 143 q 227 125 243 142 q 207 99 211 108 l 210 88 l 222 93 q 257 63 235 82 l 271 67 l 272 63 q 286 58 281 63 l 304 63 l 313 53 l 307 47 l 297 46 l 288 39 l 275 49 l 271 47 q 239 57 258 47 l 231 51 l 218 57 l 215 51 q 210 57 213 53 q 206 65 208 61 l 190 60 l 189 65 l 172 61 l 165 68 q 17 -156 17 -100 q 57 -204 17 -197 m 846 -165 q 808 -144 832 -165 q 786 -110 786 -124 q 833 -89 808 -101 q 889 -61 858 -76 l 890 -62 q 871 -94 882 -83 q 873 -103 872 -100 q 874 -108 874 -106 l 874 -119 l 865 -131 q 846 -165 865 -165 m 1233 938 q 1224 938 1229 938 q 1210 940 1218 939 q 1208 944 1211 946 q 1201 940 1206 943 q 1174 949 1188 943 q 1149 964 1160 954 l 1149 969 l 1133 993 q 1124 1005 1129 1000 q 1113 1013 1118 1010 q 1110 1018 1113 1015 q 1113 1022 1107 1021 l 1115 1029 l 1113 1032 q 1110 1031 1111 1032 q 1107 1031 1108 1031 q 1103 1039 1101 1035 l 1107 1043 q 1102 1047 1106 1046 q 1099 1053 1099 1047 q 1101 1056 1099 1056 q 1099 1058 1103 1057 q 1122 1078 1111 1072 q 1138 1083 1132 1083 q 1143 1082 1142 1083 l 1149 1082 l 1149 1078 q 1160 1051 1149 1067 l 1156 1050 q 1166 1033 1163 1040 q 1171 1019 1169 1026 l 1169 1015 l 1171 1011 l 1176 1007 l 1179 1008 q 1188 997 1189 1004 q 1196 989 1193 996 q 1204 982 1199 982 q 1247 965 1224 965 q 1303 983 1274 965 q 1351 1028 1333 1000 q 1369 1051 1358 1036 q 1389 1081 1379 1067 q 1404 1076 1404 1086 q 1399 1060 1404 1071 q 1388 1036 1394 1049 q 1367 1008 1382 1026 q 1325 972 1351 990 q 1233 938 1274 938 z "},"":{"ha":1440,"x_min":-25,"x_max":1465,"o":"m 51 -247 q 18 -226 21 -226 q 14 -229 17 -226 q -25 -161 -25 -190 q 136 72 -25 -85 l 133 86 l 92 115 q 67 185 79 135 q 88 210 76 194 q 115 249 100 226 l 142 257 l 146 256 l 196 276 l 204 274 q 235 276 215 274 q 285 281 256 278 q 331 284 311 283 q 367 283 351 285 q 375 284 367 283 q 400 286 383 285 l 404 283 l 446 303 l 449 301 q 557 347 481 310 q 669 385 624 379 q 567 338 647 368 q 472 278 499 311 l 479 265 l 497 278 q 519 272 497 274 q 658 264 589 264 l 668 251 q 684 249 675 250 q 706 249 693 249 q 750 247 729 249 q 785 239 771 246 l 810 264 l 813 261 q 966 392 894 326 q 1099 521 1038 457 l 1099 553 l 1090 561 l 1096 588 q 1092 600 1092 590 q 1093 629 1092 621 q 1094 631 1094 638 q 1100 718 1094 703 q 1174 758 1115 758 l 1186 753 l 1194 735 q 1180 683 1189 710 q 1160 626 1171 656 l 1167 583 q 1322 760 1253 676 q 1442 918 1390 844 q 1417 846 1444 894 q 1325 728 1389 797 l 1161 547 q 1176 500 1176 525 q 1171 468 1176 483 l 1178 469 l 1199 411 l 1197 403 q 1218 321 1197 379 q 1239 240 1240 263 l 1256 229 l 1256 224 q 1267 211 1256 211 q 1339 222 1288 211 q 1383 231 1364 228 q 1414 233 1401 233 l 1421 232 q 1363 201 1392 213 q 1306 188 1333 190 l 1303 190 l 1288 182 l 1290 165 l 1294 168 l 1325 106 l 1321 97 l 1347 67 l 1358 69 l 1361 104 l 1365 101 q 1415 32 1369 78 l 1418 33 q 1465 -3 1458 17 l 1442 -15 q 1414 0 1431 -10 q 1375 24 1397 10 l 1372 22 q 1346 39 1358 22 q 1335 52 1340 46 q 1324 65 1329 58 l 1324 69 q 1276 131 1300 85 l 1272 126 l 1261 153 l 1257 151 l 1231 183 l 1194 181 l 1190 183 l 1164 179 q 942 196 1149 179 l 936 190 l 879 200 q 847 205 861 203 q 822 207 833 207 q 729 135 792 207 l 722 136 l 715 122 q 632 58 703 107 q 576 22 597 36 q 546 4 556 8 l 536 -18 l 394 -119 l 392 -118 l 260 -200 l 247 -199 q 226 -215 242 -199 l 210 -208 l 192 -222 l 176 -215 q 167 -231 164 -215 l 144 -242 l 132 -232 l 111 -243 q 97 -241 104 -242 q 83 -240 90 -240 q 51 -247 65 -240 m 1144 208 q 1167 209 1157 208 q 1185 211 1178 210 l 1189 208 l 1194 211 l 1208 211 l 1210 218 l 1206 233 q 1175 283 1199 233 q 1150 350 1153 333 l 1143 353 l 1144 357 q 1140 372 1144 363 l 1140 378 l 1133 383 l 1135 389 q 1106 463 1125 403 l 1113 479 l 1107 492 q 1095 482 1101 489 q 1082 465 1089 475 q 1046 435 1072 458 q 978 372 1019 413 q 886 276 890 289 l 874 268 l 869 271 l 851 243 l 854 239 l 858 243 q 881 236 868 233 l 890 228 l 892 228 q 910 235 899 228 l 913 229 q 933 231 929 229 l 936 221 l 953 228 l 960 224 l 988 226 l 1001 219 l 1004 224 q 1021 217 1008 217 q 1035 218 1029 217 q 1063 213 1036 213 q 1081 215 1072 213 q 1099 219 1089 217 q 1117 214 1111 217 q 1122 215 1119 215 q 1124 215 1124 215 q 1134 212 1128 215 q 1144 208 1140 208 m 165 106 q 171 121 168 117 l 182 113 q 263 176 219 138 l 263 171 q 336 228 322 226 l 338 233 l 335 238 q 328 236 331 236 q 322 236 325 236 q 316 238 319 236 q 310 239 313 239 q 294 238 304 239 q 278 236 283 236 q 258 238 256 236 q 250 239 254 239 q 224 237 240 239 q 188 232 208 235 l 183 235 q 169 233 178 235 q 158 231 161 231 l 153 226 q 107 207 146 226 l 104 210 q 92 203 96 204 l 92 178 q 96 179 94 178 q 106 164 99 179 q 118 149 113 149 q 122 150 119 150 l 122 146 q 129 146 124 146 q 133 142 133 146 l 129 139 l 126 133 q 143 122 136 132 l 146 129 l 144 135 l 147 135 q 157 121 151 126 l 156 119 q 165 106 156 107 m 57 -204 l 68 -196 l 86 -197 l 89 -194 q 92 -197 90 -196 q 94 -200 93 -199 l 96 -196 l 103 -204 q 131 -182 107 -182 q 138 -183 136 -182 l 149 -174 l 156 -181 q 183 -164 165 -181 l 200 -174 l 208 -169 l 213 -154 l 215 -156 l 319 -93 q 426 -39 385 -54 q 574 71 447 -14 q 669 138 635 111 q 710 178 703 164 l 719 181 q 728 192 724 186 q 739 207 733 199 l 738 211 q 718 210 729 210 q 692 210 707 210 q 603 221 640 210 l 597 218 q 517 228 572 228 q 467 231 488 229 q 435 235 446 232 l 432 229 l 381 236 q 336 208 358 222 q 290 178 314 193 l 251 143 q 227 125 243 142 q 207 99 211 108 l 210 88 l 222 93 q 257 63 235 82 l 271 67 l 272 63 q 286 58 281 63 l 304 63 l 313 53 l 307 47 l 297 46 l 288 39 l 275 49 l 271 47 q 239 57 258 47 l 231 51 l 218 57 l 215 51 q 210 57 213 53 q 206 65 208 61 l 190 60 l 189 65 l 172 61 l 165 68 q 17 -156 17 -100 q 57 -204 17 -197 m 1233 938 q 1224 938 1229 938 q 1210 940 1218 939 q 1208 944 1211 946 q 1201 940 1206 943 q 1174 949 1188 943 q 1149 964 1160 954 l 1149 969 l 1133 993 q 1124 1005 1129 1000 q 1113 1013 1118 1010 q 1110 1018 1113 1015 q 1113 1022 1107 1021 l 1115 1029 l 1113 1032 q 1110 1031 1111 1032 q 1107 1031 1108 1031 q 1103 1039 1101 1035 l 1107 1043 q 1102 1047 1106 1046 q 1099 1053 1099 1047 q 1101 1056 1099 1056 q 1099 1058 1103 1057 q 1122 1078 1111 1072 q 1138 1083 1132 1083 q 1143 1082 1142 1083 l 1149 1082 l 1149 1078 q 1160 1051 1149 1067 l 1156 1050 q 1166 1033 1163 1040 q 1171 1019 1169 1026 l 1169 1015 l 1171 1011 l 1176 1007 l 1179 1008 q 1188 997 1189 1004 q 1196 989 1193 996 q 1204 982 1199 982 q 1247 965 1224 965 q 1303 983 1274 965 q 1351 1028 1333 1000 q 1369 1051 1358 1036 q 1389 1081 1379 1067 q 1404 1076 1404 1086 q 1399 1060 1404 1071 q 1388 1036 1394 1049 q 1367 1008 1382 1026 q 1325 972 1351 990 q 1233 938 1274 938 m 1249 1078 q 1186 1115 1226 1089 l 1149 1133 l 1118 1151 q 1110 1157 1114 1156 q 1108 1160 1110 1158 l 1104 1160 l 1067 1183 q 1056 1188 1067 1183 l 1035 1197 q 1016 1210 1026 1201 q 1007 1221 1006 1218 q 1007 1222 1007 1222 l 1007 1221 q 1011 1222 1008 1221 l 1014 1224 q 1024 1232 1014 1228 q 1030 1233 1025 1232 q 1043 1239 1035 1235 q 1044 1242 1043 1240 q 1060 1238 1053 1238 q 1060 1240 1057 1240 l 1063 1242 q 1072 1239 1067 1240 q 1083 1236 1078 1238 q 1090 1231 1086 1235 q 1099 1226 1094 1228 q 1100 1225 1097 1225 q 1101 1225 1100 1225 q 1103 1226 1101 1225 q 1115 1218 1108 1224 q 1131 1206 1121 1213 q 1135 1206 1132 1206 q 1140 1204 1138 1206 q 1143 1201 1142 1203 q 1147 1199 1144 1200 l 1150 1199 q 1154 1190 1150 1193 q 1222 1131 1167 1179 l 1272 1090 q 1274 1088 1274 1089 q 1266 1079 1274 1083 q 1249 1078 1258 1075 z "},"":{"ha":1440,"x_min":-25,"x_max":1465,"o":"m 51 -247 q 18 -226 21 -226 q 14 -229 17 -226 q -25 -161 -25 -190 q 136 72 -25 -85 l 133 86 l 92 115 q 67 185 79 135 q 88 210 76 194 q 115 249 100 226 l 142 257 l 146 256 l 196 276 l 204 274 q 235 276 215 274 q 285 281 256 278 q 331 284 311 283 q 367 283 351 285 q 375 284 367 283 q 400 286 383 285 l 404 283 l 446 303 l 449 301 q 557 347 481 310 q 669 385 624 379 q 567 338 647 368 q 472 278 499 311 l 479 265 l 497 278 q 519 272 497 274 q 658 264 589 264 l 668 251 q 684 249 675 250 q 706 249 693 249 q 750 247 729 249 q 785 239 771 246 l 810 264 l 813 261 q 966 392 894 326 q 1099 521 1038 457 l 1099 553 l 1090 561 l 1096 588 q 1092 600 1092 590 q 1093 629 1092 621 q 1094 631 1094 638 q 1100 718 1094 703 q 1174 758 1115 758 l 1186 753 l 1194 735 q 1180 683 1189 710 q 1160 626 1171 656 l 1167 583 q 1322 760 1253 676 q 1442 918 1390 844 q 1417 846 1444 894 q 1325 728 1389 797 l 1161 547 q 1176 500 1176 525 q 1171 468 1176 483 l 1178 469 l 1199 411 l 1197 403 q 1218 321 1197 379 q 1239 240 1240 263 l 1256 229 l 1256 224 q 1267 211 1256 211 q 1339 222 1288 211 q 1383 231 1364 228 q 1414 233 1401 233 l 1421 232 q 1363 201 1392 213 q 1306 188 1333 190 l 1303 190 l 1288 182 l 1290 165 l 1294 168 l 1325 106 l 1321 97 l 1347 67 l 1358 69 l 1361 104 l 1365 101 q 1415 32 1369 78 l 1418 33 q 1465 -3 1458 17 l 1442 -15 q 1414 0 1431 -10 q 1375 24 1397 10 l 1372 22 q 1346 39 1358 22 q 1335 52 1340 46 q 1324 65 1329 58 l 1324 69 q 1276 131 1300 85 l 1272 126 l 1261 153 l 1257 151 l 1231 183 l 1194 181 l 1190 183 l 1164 179 q 942 196 1149 179 l 936 190 l 879 200 q 847 205 861 203 q 822 207 833 207 q 729 135 792 207 l 722 136 l 715 122 q 632 58 703 107 q 576 22 597 36 q 546 4 556 8 l 536 -18 l 394 -119 l 392 -118 l 260 -200 l 247 -199 q 226 -215 242 -199 l 210 -208 l 192 -222 l 176 -215 q 167 -231 164 -215 l 144 -242 l 132 -232 l 111 -243 q 97 -241 104 -242 q 83 -240 90 -240 q 51 -247 65 -240 m 1144 208 q 1167 209 1157 208 q 1185 211 1178 210 l 1189 208 l 1194 211 l 1208 211 l 1210 218 l 1206 233 q 1175 283 1199 233 q 1150 350 1153 333 l 1143 353 l 1144 357 q 1140 372 1144 363 l 1140 378 l 1133 383 l 1135 389 q 1106 463 1125 403 l 1113 479 l 1107 492 q 1095 482 1101 489 q 1082 465 1089 475 q 1046 435 1072 458 q 978 372 1019 413 q 886 276 890 289 l 874 268 l 869 271 l 851 243 l 854 239 l 858 243 q 881 236 868 233 l 890 228 l 892 228 q 910 235 899 228 l 913 229 q 933 231 929 229 l 936 221 l 953 228 l 960 224 l 988 226 l 1001 219 l 1004 224 q 1021 217 1008 217 q 1035 218 1029 217 q 1063 213 1036 213 q 1081 215 1072 213 q 1099 219 1089 217 q 1117 214 1111 217 q 1122 215 1119 215 q 1124 215 1124 215 q 1134 212 1128 215 q 1144 208 1140 208 m 165 106 q 171 121 168 117 l 182 113 q 263 176 219 138 l 263 171 q 336 228 322 226 l 338 233 l 335 238 q 328 236 331 236 q 322 236 325 236 q 316 238 319 236 q 310 239 313 239 q 294 238 304 239 q 278 236 283 236 q 258 238 256 236 q 250 239 254 239 q 224 237 240 239 q 188 232 208 235 l 183 235 q 169 233 178 235 q 158 231 161 231 l 153 226 q 107 207 146 226 l 104 210 q 92 203 96 204 l 92 178 q 96 179 94 178 q 106 164 99 179 q 118 149 113 149 q 122 150 119 150 l 122 146 q 129 146 124 146 q 133 142 133 146 l 129 139 l 126 133 q 143 122 136 132 l 146 129 l 144 135 l 147 135 q 157 121 151 126 l 156 119 q 165 106 156 107 m 57 -204 l 68 -196 l 86 -197 l 89 -194 q 92 -197 90 -196 q 94 -200 93 -199 l 96 -196 l 103 -204 q 131 -182 107 -182 q 138 -183 136 -182 l 149 -174 l 156 -181 q 183 -164 165 -181 l 200 -174 l 208 -169 l 213 -154 l 215 -156 l 319 -93 q 426 -39 385 -54 q 574 71 447 -14 q 669 138 635 111 q 710 178 703 164 l 719 181 q 728 192 724 186 q 739 207 733 199 l 738 211 q 718 210 729 210 q 692 210 707 210 q 603 221 640 210 l 597 218 q 517 228 572 228 q 467 231 488 229 q 435 235 446 232 l 432 229 l 381 236 q 336 208 358 222 q 290 178 314 193 l 251 143 q 227 125 243 142 q 207 99 211 108 l 210 88 l 222 93 q 257 63 235 82 l 271 67 l 272 63 q 286 58 281 63 l 304 63 l 313 53 l 307 47 l 297 46 l 288 39 l 275 49 l 271 47 q 239 57 258 47 l 231 51 l 218 57 l 215 51 q 210 57 213 53 q 206 65 208 61 l 190 60 l 189 65 l 172 61 l 165 68 q 17 -156 17 -100 q 57 -204 17 -197 m 1233 938 q 1224 938 1229 938 q 1210 940 1218 939 q 1208 944 1211 946 q 1201 940 1206 943 q 1174 949 1188 943 q 1149 964 1160 954 l 1149 969 l 1133 993 q 1124 1005 1129 1000 q 1113 1013 1118 1010 q 1110 1018 1113 1015 q 1113 1022 1107 1021 l 1115 1029 l 1113 1032 q 1110 1031 1111 1032 q 1107 1031 1108 1031 q 1103 1039 1101 1035 l 1107 1043 q 1102 1047 1106 1046 q 1099 1053 1099 1047 q 1101 1056 1099 1056 q 1099 1058 1103 1057 q 1122 1078 1111 1072 q 1138 1083 1132 1083 q 1143 1082 1142 1083 l 1149 1082 l 1149 1078 q 1160 1051 1149 1067 l 1156 1050 q 1166 1033 1163 1040 q 1171 1019 1169 1026 l 1169 1015 l 1171 1011 l 1176 1007 l 1179 1008 q 1188 997 1189 1004 q 1196 989 1193 996 q 1204 982 1199 982 q 1247 965 1224 965 q 1303 983 1274 965 q 1351 1028 1333 1000 q 1369 1051 1358 1036 q 1389 1081 1379 1067 q 1404 1076 1404 1086 q 1399 1060 1404 1071 q 1388 1036 1394 1049 q 1367 1008 1382 1026 q 1325 972 1351 990 q 1233 938 1274 938 m 1236 1072 q 1233 1081 1231 1076 q 1233 1092 1236 1085 l 1238 1103 q 1242 1107 1238 1106 q 1251 1115 1246 1108 l 1263 1128 q 1275 1131 1275 1131 q 1282 1141 1281 1136 q 1289 1151 1283 1146 q 1297 1156 1290 1151 q 1304 1161 1304 1161 l 1307 1167 q 1310 1175 1310 1168 q 1311 1183 1310 1182 q 1315 1190 1311 1186 q 1319 1190 1319 1193 l 1319 1193 q 1325 1208 1319 1200 l 1325 1215 q 1326 1228 1325 1226 q 1328 1231 1326 1229 l 1328 1240 l 1322 1244 l 1322 1246 q 1306 1258 1322 1258 q 1298 1260 1300 1258 q 1290 1263 1296 1263 q 1283 1262 1288 1263 q 1272 1261 1279 1261 q 1265 1257 1268 1261 q 1258 1253 1261 1253 q 1256 1254 1258 1253 q 1253 1254 1254 1256 q 1247 1249 1251 1249 q 1240 1244 1243 1249 q 1232 1238 1235 1242 l 1232 1236 q 1224 1229 1232 1231 q 1215 1226 1217 1228 q 1210 1222 1213 1219 q 1204 1218 1208 1225 q 1199 1213 1200 1213 q 1197 1215 1197 1213 q 1201 1229 1197 1224 q 1203 1232 1203 1231 q 1204 1233 1203 1233 q 1210 1243 1206 1242 q 1213 1249 1210 1246 q 1215 1251 1215 1251 q 1222 1260 1215 1251 q 1233 1268 1229 1268 q 1244 1278 1239 1275 q 1251 1283 1250 1282 q 1264 1293 1260 1289 l 1267 1293 q 1276 1297 1272 1297 q 1279 1294 1279 1297 q 1283 1295 1281 1293 q 1288 1297 1286 1297 q 1294 1299 1293 1300 q 1297 1297 1294 1299 q 1303 1303 1303 1303 q 1306 1301 1304 1303 q 1308 1302 1307 1301 q 1311 1303 1310 1303 q 1317 1300 1311 1303 l 1335 1300 l 1336 1299 q 1340 1300 1338 1299 l 1343 1300 q 1353 1294 1347 1300 q 1363 1289 1358 1289 q 1371 1283 1368 1283 l 1369 1279 l 1372 1279 q 1376 1276 1375 1279 q 1379 1271 1378 1274 q 1385 1259 1385 1263 q 1385 1253 1385 1256 q 1389 1243 1389 1251 q 1386 1228 1389 1239 q 1383 1214 1383 1224 q 1375 1197 1382 1204 q 1344 1163 1363 1172 l 1336 1150 q 1326 1147 1338 1151 q 1315 1143 1315 1142 q 1302 1128 1310 1136 q 1294 1121 1294 1121 q 1295 1119 1294 1119 q 1296 1118 1296 1119 q 1290 1112 1296 1115 q 1283 1106 1285 1108 q 1271 1099 1278 1103 q 1261 1079 1264 1094 l 1261 1074 q 1251 1063 1261 1063 q 1236 1072 1244 1063 z "},"":{"ha":1440,"x_min":-25,"x_max":1465,"o":"m 51 -247 q 18 -226 21 -226 q 14 -229 17 -226 q -25 -161 -25 -190 q 136 72 -25 -85 l 133 86 l 92 115 q 67 185 79 135 q 88 210 76 194 q 115 249 100 226 l 142 257 l 146 256 l 196 276 l 204 274 q 235 276 215 274 q 285 281 256 278 q 331 284 311 283 q 367 283 351 285 q 375 284 367 283 q 400 286 383 285 l 404 283 l 446 303 l 449 301 q 557 347 481 310 q 669 385 624 379 q 567 338 647 368 q 472 278 499 311 l 479 265 l 497 278 q 519 272 497 274 q 658 264 589 264 l 668 251 q 684 249 675 250 q 706 249 693 249 q 750 247 729 249 q 785 239 771 246 l 810 264 l 813 261 q 966 392 894 326 q 1099 521 1038 457 l 1099 553 l 1090 561 l 1096 588 q 1092 600 1092 590 q 1093 629 1092 621 q 1094 631 1094 638 q 1100 718 1094 703 q 1174 758 1115 758 l 1186 753 l 1194 735 q 1180 683 1189 710 q 1160 626 1171 656 l 1167 583 q 1322 760 1253 676 q 1442 918 1390 844 q 1417 846 1444 894 q 1325 728 1389 797 l 1161 547 q 1176 500 1176 525 q 1171 468 1176 483 l 1178 469 l 1199 411 l 1197 403 q 1218 321 1197 379 q 1239 240 1240 263 l 1256 229 l 1256 224 q 1267 211 1256 211 q 1339 222 1288 211 q 1383 231 1364 228 q 1414 233 1401 233 l 1421 232 q 1363 201 1392 213 q 1306 188 1333 190 l 1303 190 l 1288 182 l 1290 165 l 1294 168 l 1325 106 l 1321 97 l 1347 67 l 1358 69 l 1361 104 l 1365 101 q 1415 32 1369 78 l 1418 33 q 1465 -3 1458 17 l 1442 -15 q 1414 0 1431 -10 q 1375 24 1397 10 l 1372 22 q 1346 39 1358 22 q 1335 52 1340 46 q 1324 65 1329 58 l 1324 69 q 1276 131 1300 85 l 1272 126 l 1261 153 l 1257 151 l 1231 183 l 1194 181 l 1190 183 l 1164 179 q 942 196 1149 179 l 936 190 l 879 200 q 847 205 861 203 q 822 207 833 207 q 729 135 792 207 l 722 136 l 715 122 q 632 58 703 107 q 576 22 597 36 q 546 4 556 8 l 536 -18 l 394 -119 l 392 -118 l 260 -200 l 247 -199 q 226 -215 242 -199 l 210 -208 l 192 -222 l 176 -215 q 167 -231 164 -215 l 144 -242 l 132 -232 l 111 -243 q 97 -241 104 -242 q 83 -240 90 -240 q 51 -247 65 -240 m 1144 208 q 1167 209 1157 208 q 1185 211 1178 210 l 1189 208 l 1194 211 l 1208 211 l 1210 218 l 1206 233 q 1175 283 1199 233 q 1150 350 1153 333 l 1143 353 l 1144 357 q 1140 372 1144 363 l 1140 378 l 1133 383 l 1135 389 q 1106 463 1125 403 l 1113 479 l 1107 492 q 1095 482 1101 489 q 1082 465 1089 475 q 1046 435 1072 458 q 978 372 1019 413 q 886 276 890 289 l 874 268 l 869 271 l 851 243 l 854 239 l 858 243 q 881 236 868 233 l 890 228 l 892 228 q 910 235 899 228 l 913 229 q 933 231 929 229 l 936 221 l 953 228 l 960 224 l 988 226 l 1001 219 l 1004 224 q 1021 217 1008 217 q 1035 218 1029 217 q 1063 213 1036 213 q 1081 215 1072 213 q 1099 219 1089 217 q 1117 214 1111 217 q 1122 215 1119 215 q 1124 215 1124 215 q 1134 212 1128 215 q 1144 208 1140 208 m 165 106 q 171 121 168 117 l 182 113 q 263 176 219 138 l 263 171 q 336 228 322 226 l 338 233 l 335 238 q 328 236 331 236 q 322 236 325 236 q 316 238 319 236 q 310 239 313 239 q 294 238 304 239 q 278 236 283 236 q 258 238 256 236 q 250 239 254 239 q 224 237 240 239 q 188 232 208 235 l 183 235 q 169 233 178 235 q 158 231 161 231 l 153 226 q 107 207 146 226 l 104 210 q 92 203 96 204 l 92 178 q 96 179 94 178 q 106 164 99 179 q 118 149 113 149 q 122 150 119 150 l 122 146 q 129 146 124 146 q 133 142 133 146 l 129 139 l 126 133 q 143 122 136 132 l 146 129 l 144 135 l 147 135 q 157 121 151 126 l 156 119 q 165 106 156 107 m 57 -204 l 68 -196 l 86 -197 l 89 -194 q 92 -197 90 -196 q 94 -200 93 -199 l 96 -196 l 103 -204 q 131 -182 107 -182 q 138 -183 136 -182 l 149 -174 l 156 -181 q 183 -164 165 -181 l 200 -174 l 208 -169 l 213 -154 l 215 -156 l 319 -93 q 426 -39 385 -54 q 574 71 447 -14 q 669 138 635 111 q 710 178 703 164 l 719 181 q 728 192 724 186 q 739 207 733 199 l 738 211 q 718 210 729 210 q 692 210 707 210 q 603 221 640 210 l 597 218 q 517 228 572 228 q 467 231 488 229 q 435 235 446 232 l 432 229 l 381 236 q 336 208 358 222 q 290 178 314 193 l 251 143 q 227 125 243 142 q 207 99 211 108 l 210 88 l 222 93 q 257 63 235 82 l 271 67 l 272 63 q 286 58 281 63 l 304 63 l 313 53 l 307 47 l 297 46 l 288 39 l 275 49 l 271 47 q 239 57 258 47 l 231 51 l 218 57 l 215 51 q 210 57 213 53 q 206 65 208 61 l 190 60 l 189 65 l 172 61 l 165 68 q 17 -156 17 -100 q 57 -204 17 -197 m 1233 938 q 1224 938 1229 938 q 1210 940 1218 939 q 1208 944 1211 946 q 1201 940 1206 943 q 1174 949 1188 943 q 1149 964 1160 954 l 1149 969 l 1133 993 q 1124 1005 1129 1000 q 1113 1013 1118 1010 q 1110 1018 1113 1015 q 1113 1022 1107 1021 l 1115 1029 l 1113 1032 q 1110 1031 1111 1032 q 1107 1031 1108 1031 q 1103 1039 1101 1035 l 1107 1043 q 1102 1047 1106 1046 q 1099 1053 1099 1047 q 1101 1056 1099 1056 q 1099 1058 1103 1057 q 1122 1078 1111 1072 q 1138 1083 1132 1083 q 1143 1082 1142 1083 l 1149 1082 l 1149 1078 q 1160 1051 1149 1067 l 1156 1050 q 1166 1033 1163 1040 q 1171 1019 1169 1026 l 1169 1015 l 1171 1011 l 1176 1007 l 1179 1008 q 1188 997 1189 1004 q 1196 989 1193 996 q 1204 982 1199 982 q 1247 965 1224 965 q 1303 983 1274 965 q 1351 1028 1333 1000 q 1369 1051 1358 1036 q 1389 1081 1379 1067 q 1404 1076 1404 1086 q 1399 1060 1404 1071 q 1388 1036 1394 1049 q 1367 1008 1382 1026 q 1325 972 1351 990 q 1233 938 1274 938 m 1125 1117 q 1117 1129 1117 1117 q 1147 1209 1117 1178 q 1222 1240 1176 1240 q 1234 1240 1225 1240 q 1247 1236 1243 1239 q 1248 1234 1247 1235 q 1249 1232 1249 1233 q 1248 1226 1249 1229 q 1250 1219 1247 1222 q 1264 1222 1260 1219 q 1272 1225 1267 1225 q 1283 1224 1278 1225 q 1290 1224 1288 1222 q 1297 1220 1294 1224 q 1304 1214 1299 1217 q 1316 1212 1315 1208 q 1321 1215 1317 1215 q 1335 1205 1331 1208 q 1344 1199 1339 1201 l 1367 1199 q 1392 1208 1383 1199 q 1410 1226 1400 1217 l 1428 1246 q 1438 1249 1432 1249 q 1442 1243 1442 1249 q 1436 1225 1442 1235 q 1426 1190 1435 1214 q 1403 1158 1417 1167 q 1388 1151 1393 1157 q 1375 1142 1382 1144 q 1363 1144 1372 1144 q 1342 1143 1353 1144 q 1328 1143 1332 1142 q 1321 1144 1322 1144 q 1315 1144 1319 1143 q 1310 1149 1313 1143 q 1310 1158 1308 1154 q 1300 1164 1307 1161 q 1290 1169 1293 1167 l 1285 1169 l 1282 1175 l 1274 1171 l 1264 1175 q 1263 1180 1261 1179 q 1267 1185 1264 1181 q 1266 1190 1267 1192 q 1263 1192 1265 1189 q 1250 1185 1256 1185 q 1247 1181 1249 1181 q 1243 1178 1244 1181 q 1217 1186 1231 1186 q 1215 1186 1217 1186 q 1208 1185 1213 1186 q 1185 1174 1201 1176 q 1161 1168 1168 1172 q 1146 1159 1156 1164 q 1136 1140 1136 1154 q 1134 1127 1136 1135 q 1125 1117 1132 1119 z "},"":{"ha":1440,"x_min":-25,"x_max":1482,"o":"m 51 -247 q 18 -226 21 -226 q 14 -229 17 -226 q -25 -161 -25 -190 q 136 72 -25 -85 l 133 86 l 92 115 q 67 185 79 135 q 88 210 76 194 q 115 249 100 226 l 142 257 l 146 256 l 196 276 l 204 274 q 235 276 215 274 q 285 281 256 278 q 331 284 311 283 q 367 283 351 285 q 375 284 367 283 q 400 286 383 285 l 404 283 l 446 303 l 449 301 q 557 347 481 310 q 669 385 624 379 q 567 338 647 368 q 472 278 499 311 l 479 265 l 497 278 q 519 272 497 274 q 658 264 589 264 l 668 251 q 684 249 675 250 q 706 249 693 249 q 750 247 729 249 q 785 239 771 246 l 810 264 l 813 261 q 966 392 894 326 q 1099 521 1038 457 l 1099 553 l 1090 561 l 1096 588 q 1092 600 1092 590 q 1093 629 1092 621 q 1094 631 1094 638 q 1100 718 1094 703 q 1174 758 1115 758 l 1186 753 l 1194 735 q 1180 683 1189 710 q 1160 626 1171 656 l 1167 583 q 1322 760 1253 676 q 1442 918 1390 844 q 1417 846 1444 894 q 1325 728 1389 797 l 1161 547 q 1176 500 1176 525 q 1171 468 1176 483 l 1178 469 l 1199 411 l 1197 403 q 1218 321 1197 379 q 1239 240 1240 263 l 1256 229 l 1256 224 q 1267 211 1256 211 q 1339 222 1288 211 q 1383 231 1364 228 q 1414 233 1401 233 l 1421 232 q 1363 201 1392 213 q 1306 188 1333 190 l 1303 190 l 1288 182 l 1290 165 l 1294 168 l 1325 106 l 1321 97 l 1347 67 l 1358 69 l 1361 104 l 1365 101 q 1415 32 1369 78 l 1418 33 q 1465 -3 1458 17 l 1442 -15 q 1414 0 1431 -10 q 1375 24 1397 10 l 1372 22 q 1346 39 1358 22 q 1335 52 1340 46 q 1324 65 1329 58 l 1324 69 q 1276 131 1300 85 l 1272 126 l 1261 153 l 1257 151 l 1231 183 l 1194 181 l 1190 183 l 1164 179 q 942 196 1149 179 l 936 190 l 879 200 q 847 205 861 203 q 822 207 833 207 q 729 135 792 207 l 722 136 l 715 122 q 632 58 703 107 q 576 22 597 36 q 546 4 556 8 l 536 -18 l 394 -119 l 392 -118 l 260 -200 l 247 -199 q 226 -215 242 -199 l 210 -208 l 192 -222 l 176 -215 q 167 -231 164 -215 l 144 -242 l 132 -232 l 111 -243 q 97 -241 104 -242 q 83 -240 90 -240 q 51 -247 65 -240 m 1144 208 q 1167 209 1157 208 q 1185 211 1178 210 l 1189 208 l 1194 211 l 1208 211 l 1210 218 l 1206 233 q 1175 283 1199 233 q 1150 350 1153 333 l 1143 353 l 1144 357 q 1140 372 1144 363 l 1140 378 l 1133 383 l 1135 389 q 1106 463 1125 403 l 1113 479 l 1107 492 q 1095 482 1101 489 q 1082 465 1089 475 q 1046 435 1072 458 q 978 372 1019 413 q 886 276 890 289 l 874 268 l 869 271 l 851 243 l 854 239 l 858 243 q 881 236 868 233 l 890 228 l 892 228 q 910 235 899 228 l 913 229 q 933 231 929 229 l 936 221 l 953 228 l 960 224 l 988 226 l 1001 219 l 1004 224 q 1021 217 1008 217 q 1035 218 1029 217 q 1063 213 1036 213 q 1081 215 1072 213 q 1099 219 1089 217 q 1117 214 1111 217 q 1122 215 1119 215 q 1124 215 1124 215 q 1134 212 1128 215 q 1144 208 1140 208 m 165 106 q 171 121 168 117 l 182 113 q 263 176 219 138 l 263 171 q 336 228 322 226 l 338 233 l 335 238 q 328 236 331 236 q 322 236 325 236 q 316 238 319 236 q 310 239 313 239 q 294 238 304 239 q 278 236 283 236 q 258 238 256 236 q 250 239 254 239 q 224 237 240 239 q 188 232 208 235 l 183 235 q 169 233 178 235 q 158 231 161 231 l 153 226 q 107 207 146 226 l 104 210 q 92 203 96 204 l 92 178 q 96 179 94 178 q 106 164 99 179 q 118 149 113 149 q 122 150 119 150 l 122 146 q 129 146 124 146 q 133 142 133 146 l 129 139 l 126 133 q 143 122 136 132 l 146 129 l 144 135 l 147 135 q 157 121 151 126 l 156 119 q 165 106 156 107 m 57 -204 l 68 -196 l 86 -197 l 89 -194 q 92 -197 90 -196 q 94 -200 93 -199 l 96 -196 l 103 -204 q 131 -182 107 -182 q 138 -183 136 -182 l 149 -174 l 156 -181 q 183 -164 165 -181 l 200 -174 l 208 -169 l 213 -154 l 215 -156 l 319 -93 q 426 -39 385 -54 q 574 71 447 -14 q 669 138 635 111 q 710 178 703 164 l 719 181 q 728 192 724 186 q 739 207 733 199 l 738 211 q 718 210 729 210 q 692 210 707 210 q 603 221 640 210 l 597 218 q 517 228 572 228 q 467 231 488 229 q 435 235 446 232 l 432 229 l 381 236 q 336 208 358 222 q 290 178 314 193 l 251 143 q 227 125 243 142 q 207 99 211 108 l 210 88 l 222 93 q 257 63 235 82 l 271 67 l 272 63 q 286 58 281 63 l 304 63 l 313 53 l 307 47 l 297 46 l 288 39 l 275 49 l 271 47 q 239 57 258 47 l 231 51 l 218 57 l 215 51 q 210 57 213 53 q 206 65 208 61 l 190 60 l 189 65 l 172 61 l 165 68 q 17 -156 17 -100 q 57 -204 17 -197 m 1249 938 l 1244 938 q 1233 939 1238 938 l 1238 939 l 1243 942 l 1243 944 l 1240 947 l 1232 943 l 1231 954 l 1238 960 l 1229 964 q 1193 1018 1226 972 l 1201 1028 l 1197 1036 l 1183 1024 q 1179 1038 1176 1031 l 1182 1039 l 1186 1038 l 1189 1039 q 1183 1045 1186 1042 q 1175 1050 1179 1049 l 1169 1049 q 1161 1079 1167 1061 q 1146 1121 1156 1097 l 1160 1129 q 1197 1111 1185 1110 l 1193 1106 q 1272 1029 1236 1046 q 1282 1006 1276 1018 q 1297 992 1288 994 q 1342 1025 1308 1006 l 1336 1025 q 1403 1065 1381 1067 l 1404 1068 l 1406 1075 l 1407 1078 q 1424 1092 1414 1085 q 1449 1108 1435 1099 q 1462 1118 1454 1113 q 1479 1129 1469 1124 l 1482 1124 q 1417 1057 1476 1106 l 1336 993 q 1292 958 1314 975 q 1249 938 1271 940 z "},"":{"ha":1440,"x_min":-25,"x_max":1465,"o":"m 51 -247 q 18 -226 21 -226 q 14 -229 17 -226 q -25 -161 -25 -190 q 136 72 -25 -85 l 133 86 l 92 115 q 67 185 79 135 q 88 210 76 194 q 115 249 100 226 l 142 257 l 146 256 l 196 276 l 204 274 q 235 276 215 274 q 285 281 256 278 q 331 284 311 283 q 367 283 351 285 q 375 284 367 283 q 400 286 383 285 l 404 283 l 446 303 l 449 301 q 557 347 481 310 q 669 385 624 379 q 567 338 647 368 q 472 278 499 311 l 479 265 l 497 278 q 519 272 497 274 q 658 264 589 264 l 668 251 q 684 249 675 250 q 706 249 693 249 q 750 247 729 249 q 785 239 771 246 l 810 264 l 813 261 q 966 392 894 326 q 1099 521 1038 457 l 1099 553 l 1090 561 l 1096 588 q 1092 600 1092 590 q 1093 629 1092 621 q 1094 631 1094 638 q 1100 718 1094 703 q 1174 758 1115 758 l 1186 753 l 1194 735 q 1180 683 1189 710 q 1160 626 1171 656 l 1167 583 q 1322 760 1253 676 q 1442 918 1390 844 q 1417 846 1444 894 q 1325 728 1389 797 l 1161 547 q 1176 500 1176 525 q 1171 468 1176 483 l 1178 469 l 1199 411 l 1197 403 q 1218 321 1197 379 q 1239 240 1240 263 l 1256 229 l 1256 224 q 1267 211 1256 211 q 1339 222 1288 211 q 1383 231 1364 228 q 1414 233 1401 233 l 1421 232 q 1363 201 1392 213 q 1306 188 1333 190 l 1303 190 l 1288 182 l 1290 165 l 1294 168 l 1325 106 l 1321 97 l 1347 67 l 1358 69 l 1361 104 l 1365 101 q 1415 32 1369 78 l 1418 33 q 1465 -3 1458 17 l 1442 -15 q 1414 0 1431 -10 q 1375 24 1397 10 l 1372 22 q 1346 39 1358 22 q 1335 52 1340 46 q 1324 65 1329 58 l 1324 69 q 1276 131 1300 85 l 1272 126 l 1261 153 l 1257 151 l 1231 183 l 1194 181 l 1190 183 l 1164 179 q 942 196 1149 179 l 936 190 l 879 200 q 847 205 861 203 q 822 207 833 207 q 729 135 792 207 l 722 136 l 715 122 q 632 58 703 107 q 576 22 597 36 q 546 4 556 8 l 536 -18 l 394 -119 l 392 -118 l 260 -200 l 247 -199 q 226 -215 242 -199 l 210 -208 l 192 -222 l 176 -215 q 167 -231 164 -215 l 144 -242 l 132 -232 l 111 -243 q 97 -241 104 -242 q 83 -240 90 -240 q 51 -247 65 -240 m 1144 208 q 1167 209 1157 208 q 1185 211 1178 210 l 1189 208 l 1194 211 l 1208 211 l 1210 218 l 1206 233 q 1175 283 1199 233 q 1150 350 1153 333 l 1143 353 l 1144 357 q 1140 372 1144 363 l 1140 378 l 1133 383 l 1135 389 q 1106 463 1125 403 l 1113 479 l 1107 492 q 1095 482 1101 489 q 1082 465 1089 475 q 1046 435 1072 458 q 978 372 1019 413 q 886 276 890 289 l 874 268 l 869 271 l 851 243 l 854 239 l 858 243 q 881 236 868 233 l 890 228 l 892 228 q 910 235 899 228 l 913 229 q 933 231 929 229 l 936 221 l 953 228 l 960 224 l 988 226 l 1001 219 l 1004 224 q 1021 217 1008 217 q 1035 218 1029 217 q 1063 213 1036 213 q 1081 215 1072 213 q 1099 219 1089 217 q 1117 214 1111 217 q 1122 215 1119 215 q 1124 215 1124 215 q 1134 212 1128 215 q 1144 208 1140 208 m 165 106 q 171 121 168 117 l 182 113 q 263 176 219 138 l 263 171 q 336 228 322 226 l 338 233 l 335 238 q 328 236 331 236 q 322 236 325 236 q 316 238 319 236 q 310 239 313 239 q 294 238 304 239 q 278 236 283 236 q 258 238 256 236 q 250 239 254 239 q 224 237 240 239 q 188 232 208 235 l 183 235 q 169 233 178 235 q 158 231 161 231 l 153 226 q 107 207 146 226 l 104 210 q 92 203 96 204 l 92 178 q 96 179 94 178 q 106 164 99 179 q 118 149 113 149 q 122 150 119 150 l 122 146 q 129 146 124 146 q 133 142 133 146 l 129 139 l 126 133 q 143 122 136 132 l 146 129 l 144 135 l 147 135 q 157 121 151 126 l 156 119 q 165 106 156 107 m 57 -204 l 68 -196 l 86 -197 l 89 -194 q 92 -197 90 -196 q 94 -200 93 -199 l 96 -196 l 103 -204 q 131 -182 107 -182 q 138 -183 136 -182 l 149 -174 l 156 -181 q 183 -164 165 -181 l 200 -174 l 208 -169 l 213 -154 l 215 -156 l 319 -93 q 426 -39 385 -54 q 574 71 447 -14 q 669 138 635 111 q 710 178 703 164 l 719 181 q 728 192 724 186 q 739 207 733 199 l 738 211 q 718 210 729 210 q 692 210 707 210 q 603 221 640 210 l 597 218 q 517 228 572 228 q 467 231 488 229 q 435 235 446 232 l 432 229 l 381 236 q 336 208 358 222 q 290 178 314 193 l 251 143 q 227 125 243 142 q 207 99 211 108 l 210 88 l 222 93 q 257 63 235 82 l 271 67 l 272 63 q 286 58 281 63 l 304 63 l 313 53 l 307 47 l 297 46 l 288 39 l 275 49 l 271 47 q 239 57 258 47 l 231 51 l 218 57 l 215 51 q 210 57 213 53 q 206 65 208 61 l 190 60 l 189 65 l 172 61 l 165 68 q 17 -156 17 -100 q 57 -204 17 -197 m 1086 938 l 1083 943 q 1149 1010 1089 961 l 1229 1074 q 1273 1109 1251 1092 q 1317 1129 1294 1126 l 1321 1129 q 1332 1128 1328 1129 l 1328 1128 l 1322 1125 l 1322 1122 l 1325 1119 l 1333 1124 l 1335 1113 l 1328 1107 l 1336 1103 q 1372 1049 1339 1094 l 1364 1039 l 1368 1031 l 1382 1043 q 1386 1029 1389 1036 l 1383 1028 l 1379 1029 l 1376 1028 q 1383 1022 1379 1025 q 1390 1017 1386 1019 l 1396 1018 q 1404 988 1399 1006 q 1419 946 1410 969 l 1406 938 q 1368 956 1381 957 l 1372 961 q 1293 1038 1329 1021 q 1283 1060 1289 1049 q 1268 1075 1278 1072 q 1224 1042 1257 1061 l 1229 1042 q 1163 1001 1185 1000 l 1161 999 l 1160 992 l 1158 989 q 1141 976 1151 983 q 1117 958 1131 968 q 1104 949 1111 954 q 1086 938 1097 944 z "},"":{"ha":1440,"x_min":-25,"x_max":1497,"o":"m 51 -247 q 18 -226 21 -226 q 14 -229 17 -226 q -25 -161 -25 -190 q 136 72 -25 -85 l 133 86 l 92 115 q 67 185 79 135 q 88 210 76 194 q 115 249 100 226 l 142 257 l 146 256 l 196 276 l 204 274 q 235 276 215 274 q 285 281 256 278 q 331 284 311 283 q 367 283 351 285 q 375 284 367 283 q 400 286 383 285 l 404 283 l 446 303 l 449 301 q 557 347 481 310 q 669 385 624 379 q 567 338 647 368 q 472 278 499 311 l 479 265 l 497 278 q 519 272 497 274 q 658 264 589 264 l 668 251 q 684 249 675 250 q 706 249 693 249 q 750 247 729 249 q 785 239 771 246 l 810 264 l 813 261 q 966 392 894 326 q 1099 521 1038 457 l 1099 553 l 1090 561 l 1096 588 q 1092 600 1092 590 q 1093 629 1092 621 q 1094 631 1094 638 q 1100 718 1094 703 q 1174 758 1115 758 l 1186 753 l 1194 735 q 1180 683 1189 710 q 1160 626 1171 656 l 1167 583 q 1322 760 1253 676 q 1442 918 1390 844 q 1417 846 1444 894 q 1325 728 1389 797 l 1161 547 q 1176 500 1176 525 q 1171 468 1176 483 l 1178 469 l 1199 411 l 1197 403 q 1218 321 1197 379 q 1239 240 1240 263 l 1256 229 l 1256 224 q 1267 211 1256 211 q 1339 222 1288 211 q 1383 231 1364 228 q 1414 233 1401 233 l 1421 232 q 1363 201 1392 213 q 1306 188 1333 190 l 1303 190 l 1288 182 l 1290 165 l 1294 168 l 1325 106 l 1321 97 l 1347 67 l 1358 69 l 1361 104 l 1365 101 q 1415 32 1369 78 l 1418 33 q 1465 -3 1458 17 l 1442 -15 q 1414 0 1431 -10 q 1375 24 1397 10 l 1372 22 q 1346 39 1358 22 q 1335 52 1340 46 q 1324 65 1329 58 l 1324 69 q 1276 131 1300 85 l 1272 126 l 1261 153 l 1257 151 l 1231 183 l 1194 181 l 1190 183 l 1164 179 q 942 196 1149 179 l 936 190 l 879 200 q 847 205 861 203 q 822 207 833 207 q 729 135 792 207 l 722 136 l 715 122 q 632 58 703 107 q 576 22 597 36 q 546 4 556 8 l 536 -18 l 394 -119 l 392 -118 l 260 -200 l 247 -199 q 226 -215 242 -199 l 210 -208 l 192 -222 l 176 -215 q 167 -231 164 -215 l 144 -242 l 132 -232 l 111 -243 q 97 -241 104 -242 q 83 -240 90 -240 q 51 -247 65 -240 m 1144 208 q 1167 209 1157 208 q 1185 211 1178 210 l 1189 208 l 1194 211 l 1208 211 l 1210 218 l 1206 233 q 1175 283 1199 233 q 1150 350 1153 333 l 1143 353 l 1144 357 q 1140 372 1144 363 l 1140 378 l 1133 383 l 1135 389 q 1106 463 1125 403 l 1113 479 l 1107 492 q 1095 482 1101 489 q 1082 465 1089 475 q 1046 435 1072 458 q 978 372 1019 413 q 886 276 890 289 l 874 268 l 869 271 l 851 243 l 854 239 l 858 243 q 881 236 868 233 l 890 228 l 892 228 q 910 235 899 228 l 913 229 q 933 231 929 229 l 936 221 l 953 228 l 960 224 l 988 226 l 1001 219 l 1004 224 q 1021 217 1008 217 q 1035 218 1029 217 q 1063 213 1036 213 q 1081 215 1072 213 q 1099 219 1089 217 q 1117 214 1111 217 q 1122 215 1119 215 q 1124 215 1124 215 q 1134 212 1128 215 q 1144 208 1140 208 m 165 106 q 171 121 168 117 l 182 113 q 263 176 219 138 l 263 171 q 336 228 322 226 l 338 233 l 335 238 q 328 236 331 236 q 322 236 325 236 q 316 238 319 236 q 310 239 313 239 q 294 238 304 239 q 278 236 283 236 q 258 238 256 236 q 250 239 254 239 q 224 237 240 239 q 188 232 208 235 l 183 235 q 169 233 178 235 q 158 231 161 231 l 153 226 q 107 207 146 226 l 104 210 q 92 203 96 204 l 92 178 q 96 179 94 178 q 106 164 99 179 q 118 149 113 149 q 122 150 119 150 l 122 146 q 129 146 124 146 q 133 142 133 146 l 129 139 l 126 133 q 143 122 136 132 l 146 129 l 144 135 l 147 135 q 157 121 151 126 l 156 119 q 165 106 156 107 m 57 -204 l 68 -196 l 86 -197 l 89 -194 q 92 -197 90 -196 q 94 -200 93 -199 l 96 -196 l 103 -204 q 131 -182 107 -182 q 138 -183 136 -182 l 149 -174 l 156 -181 q 183 -164 165 -181 l 200 -174 l 208 -169 l 213 -154 l 215 -156 l 319 -93 q 426 -39 385 -54 q 574 71 447 -14 q 669 138 635 111 q 710 178 703 164 l 719 181 q 728 192 724 186 q 739 207 733 199 l 738 211 q 718 210 729 210 q 692 210 707 210 q 603 221 640 210 l 597 218 q 517 228 572 228 q 467 231 488 229 q 435 235 446 232 l 432 229 l 381 236 q 336 208 358 222 q 290 178 314 193 l 251 143 q 227 125 243 142 q 207 99 211 108 l 210 88 l 222 93 q 257 63 235 82 l 271 67 l 272 63 q 286 58 281 63 l 304 63 l 313 53 l 307 47 l 297 46 l 288 39 l 275 49 l 271 47 q 239 57 258 47 l 231 51 l 218 57 l 215 51 q 210 57 213 53 q 206 65 208 61 l 190 60 l 189 65 l 172 61 l 165 68 q 17 -156 17 -100 q 57 -204 17 -197 m 1086 938 l 1083 943 q 1149 1010 1089 961 l 1229 1074 q 1273 1109 1251 1092 q 1317 1129 1294 1126 l 1321 1129 q 1332 1128 1328 1129 l 1328 1128 l 1322 1125 l 1322 1122 l 1325 1119 l 1333 1124 l 1335 1113 l 1328 1107 l 1336 1103 q 1372 1049 1339 1094 l 1364 1039 l 1368 1031 l 1382 1043 q 1386 1029 1389 1036 l 1383 1028 l 1379 1029 l 1376 1028 q 1383 1022 1379 1025 q 1390 1017 1386 1019 l 1396 1018 q 1404 988 1399 1006 q 1419 946 1410 969 l 1406 938 q 1368 956 1381 957 l 1372 961 q 1293 1038 1329 1021 q 1283 1060 1289 1049 q 1268 1075 1278 1072 q 1224 1042 1257 1061 l 1229 1042 q 1163 1001 1185 1000 l 1161 999 l 1160 992 l 1158 989 q 1141 976 1151 983 q 1117 958 1131 968 q 1104 949 1111 954 q 1086 938 1097 944 m 1254 1133 q 1247 1132 1251 1132 q 1232 1138 1238 1132 q 1231 1146 1226 1143 l 1281 1186 q 1349 1246 1338 1235 q 1353 1254 1353 1249 l 1356 1254 q 1360 1257 1358 1256 q 1363 1260 1361 1258 q 1368 1261 1365 1261 q 1372 1261 1371 1261 q 1388 1274 1382 1268 q 1400 1282 1394 1279 q 1402 1281 1401 1281 q 1403 1281 1403 1281 q 1404 1282 1406 1281 q 1413 1287 1408 1283 q 1419 1292 1417 1290 q 1431 1294 1426 1293 q 1440 1297 1436 1296 l 1443 1296 q 1443 1293 1446 1296 q 1458 1297 1450 1293 q 1460 1294 1460 1296 q 1473 1289 1468 1290 q 1479 1288 1478 1288 q 1489 1279 1489 1283 l 1492 1278 q 1496 1278 1496 1276 q 1487 1265 1497 1274 q 1468 1253 1476 1257 l 1447 1243 q 1436 1239 1438 1239 l 1399 1215 l 1394 1215 q 1393 1213 1393 1214 q 1385 1207 1389 1211 l 1354 1189 l 1317 1171 q 1254 1133 1278 1144 z "},"":{"ha":1440,"x_min":-25,"x_max":1465,"o":"m 51 -247 q 18 -226 21 -226 q 14 -229 17 -226 q -25 -161 -25 -190 q 136 72 -25 -85 l 133 86 l 92 115 q 67 185 79 135 q 88 210 76 194 q 115 249 100 226 l 142 257 l 146 256 l 196 276 l 204 274 q 235 276 215 274 q 285 281 256 278 q 331 284 311 283 q 367 283 351 285 q 375 284 367 283 q 400 286 383 285 l 404 283 l 446 303 l 449 301 q 557 347 481 310 q 669 385 624 379 q 567 338 647 368 q 472 278 499 311 l 479 265 l 497 278 q 519 272 497 274 q 658 264 589 264 l 668 251 q 684 249 675 250 q 706 249 693 249 q 750 247 729 249 q 785 239 771 246 l 810 264 l 813 261 q 966 392 894 326 q 1099 521 1038 457 l 1099 553 l 1090 561 l 1096 588 q 1092 600 1092 590 q 1093 629 1092 621 q 1094 631 1094 638 q 1100 718 1094 703 q 1174 758 1115 758 l 1186 753 l 1194 735 q 1180 683 1189 710 q 1160 626 1171 656 l 1167 583 q 1322 760 1253 676 q 1442 918 1390 844 q 1417 846 1444 894 q 1325 728 1389 797 l 1161 547 q 1176 500 1176 525 q 1171 468 1176 483 l 1178 469 l 1199 411 l 1197 403 q 1218 321 1197 379 q 1239 240 1240 263 l 1256 229 l 1256 224 q 1267 211 1256 211 q 1339 222 1288 211 q 1383 231 1364 228 q 1414 233 1401 233 l 1421 232 q 1363 201 1392 213 q 1306 188 1333 190 l 1303 190 l 1288 182 l 1290 165 l 1294 168 l 1325 106 l 1321 97 l 1347 67 l 1358 69 l 1361 104 l 1365 101 q 1415 32 1369 78 l 1418 33 q 1465 -3 1458 17 l 1442 -15 q 1414 0 1431 -10 q 1375 24 1397 10 l 1372 22 q 1346 39 1358 22 q 1335 52 1340 46 q 1324 65 1329 58 l 1324 69 q 1276 131 1300 85 l 1272 126 l 1261 153 l 1257 151 l 1231 183 l 1194 181 l 1190 183 l 1164 179 q 942 196 1149 179 l 936 190 l 879 200 q 847 205 861 203 q 822 207 833 207 q 729 135 792 207 l 722 136 l 715 122 q 632 58 703 107 q 576 22 597 36 q 546 4 556 8 l 536 -18 l 394 -119 l 392 -118 l 260 -200 l 247 -199 q 226 -215 242 -199 l 210 -208 l 192 -222 l 176 -215 q 167 -231 164 -215 l 144 -242 l 132 -232 l 111 -243 q 97 -241 104 -242 q 83 -240 90 -240 q 51 -247 65 -240 m 1144 208 q 1167 209 1157 208 q 1185 211 1178 210 l 1189 208 l 1194 211 l 1208 211 l 1210 218 l 1206 233 q 1175 283 1199 233 q 1150 350 1153 333 l 1143 353 l 1144 357 q 1140 372 1144 363 l 1140 378 l 1133 383 l 1135 389 q 1106 463 1125 403 l 1113 479 l 1107 492 q 1095 482 1101 489 q 1082 465 1089 475 q 1046 435 1072 458 q 978 372 1019 413 q 886 276 890 289 l 874 268 l 869 271 l 851 243 l 854 239 l 858 243 q 881 236 868 233 l 890 228 l 892 228 q 910 235 899 228 l 913 229 q 933 231 929 229 l 936 221 l 953 228 l 960 224 l 988 226 l 1001 219 l 1004 224 q 1021 217 1008 217 q 1035 218 1029 217 q 1063 213 1036 213 q 1081 215 1072 213 q 1099 219 1089 217 q 1117 214 1111 217 q 1122 215 1119 215 q 1124 215 1124 215 q 1134 212 1128 215 q 1144 208 1140 208 m 165 106 q 171 121 168 117 l 182 113 q 263 176 219 138 l 263 171 q 336 228 322 226 l 338 233 l 335 238 q 328 236 331 236 q 322 236 325 236 q 316 238 319 236 q 310 239 313 239 q 294 238 304 239 q 278 236 283 236 q 258 238 256 236 q 250 239 254 239 q 224 237 240 239 q 188 232 208 235 l 183 235 q 169 233 178 235 q 158 231 161 231 l 153 226 q 107 207 146 226 l 104 210 q 92 203 96 204 l 92 178 q 96 179 94 178 q 106 164 99 179 q 118 149 113 149 q 122 150 119 150 l 122 146 q 129 146 124 146 q 133 142 133 146 l 129 139 l 126 133 q 143 122 136 132 l 146 129 l 144 135 l 147 135 q 157 121 151 126 l 156 119 q 165 106 156 107 m 57 -204 l 68 -196 l 86 -197 l 89 -194 q 92 -197 90 -196 q 94 -200 93 -199 l 96 -196 l 103 -204 q 131 -182 107 -182 q 138 -183 136 -182 l 149 -174 l 156 -181 q 183 -164 165 -181 l 200 -174 l 208 -169 l 213 -154 l 215 -156 l 319 -93 q 426 -39 385 -54 q 574 71 447 -14 q 669 138 635 111 q 710 178 703 164 l 719 181 q 728 192 724 186 q 739 207 733 199 l 738 211 q 718 210 729 210 q 692 210 707 210 q 603 221 640 210 l 597 218 q 517 228 572 228 q 467 231 488 229 q 435 235 446 232 l 432 229 l 381 236 q 336 208 358 222 q 290 178 314 193 l 251 143 q 227 125 243 142 q 207 99 211 108 l 210 88 l 222 93 q 257 63 235 82 l 271 67 l 272 63 q 286 58 281 63 l 304 63 l 313 53 l 307 47 l 297 46 l 288 39 l 275 49 l 271 47 q 239 57 258 47 l 231 51 l 218 57 l 215 51 q 210 57 213 53 q 206 65 208 61 l 190 60 l 189 65 l 172 61 l 165 68 q 17 -156 17 -100 q 57 -204 17 -197 m 846 -165 q 808 -144 832 -165 q 786 -110 786 -124 q 833 -89 808 -101 q 889 -61 858 -76 l 890 -62 q 871 -94 882 -83 q 873 -103 872 -100 q 874 -108 874 -106 l 874 -119 l 865 -131 q 846 -165 865 -165 m 1086 938 l 1083 943 q 1149 1010 1089 961 l 1229 1074 q 1273 1109 1251 1092 q 1317 1129 1294 1126 l 1321 1129 q 1332 1128 1328 1129 l 1328 1128 l 1322 1125 l 1322 1122 l 1325 1119 l 1333 1124 l 1335 1113 l 1328 1107 l 1336 1103 q 1372 1049 1339 1094 l 1364 1039 l 1368 1031 l 1382 1043 q 1386 1029 1389 1036 l 1383 1028 l 1379 1029 l 1376 1028 q 1383 1022 1379 1025 q 1390 1017 1386 1019 l 1396 1018 q 1404 988 1399 1006 q 1419 946 1410 969 l 1406 938 q 1368 956 1381 957 l 1372 961 q 1293 1038 1329 1021 q 1283 1060 1289 1049 q 1268 1075 1278 1072 q 1224 1042 1257 1061 l 1229 1042 q 1163 1001 1185 1000 l 1161 999 l 1160 992 l 1158 989 q 1141 976 1151 983 q 1117 958 1131 968 q 1104 949 1111 954 q 1086 938 1097 944 z "},"":{"ha":1440,"x_min":-25,"x_max":1465,"o":"m 51 -247 q 18 -226 21 -226 q 14 -229 17 -226 q -25 -161 -25 -190 q 136 72 -25 -85 l 133 86 l 92 115 q 67 185 79 135 q 88 210 76 194 q 115 249 100 226 l 142 257 l 146 256 l 196 276 l 204 274 q 235 276 215 274 q 285 281 256 278 q 331 284 311 283 q 367 283 351 285 q 375 284 367 283 q 400 286 383 285 l 404 283 l 446 303 l 449 301 q 557 347 481 310 q 669 385 624 379 q 567 338 647 368 q 472 278 499 311 l 479 265 l 497 278 q 519 272 497 274 q 658 264 589 264 l 668 251 q 684 249 675 250 q 706 249 693 249 q 750 247 729 249 q 785 239 771 246 l 810 264 l 813 261 q 966 392 894 326 q 1099 521 1038 457 l 1099 553 l 1090 561 l 1096 588 q 1092 600 1092 590 q 1093 629 1092 621 q 1094 631 1094 638 q 1100 718 1094 703 q 1174 758 1115 758 l 1186 753 l 1194 735 q 1180 683 1189 710 q 1160 626 1171 656 l 1167 583 q 1322 760 1253 676 q 1442 918 1390 844 q 1417 846 1444 894 q 1325 728 1389 797 l 1161 547 q 1176 500 1176 525 q 1171 468 1176 483 l 1178 469 l 1199 411 l 1197 403 q 1218 321 1197 379 q 1239 240 1240 263 l 1256 229 l 1256 224 q 1267 211 1256 211 q 1339 222 1288 211 q 1383 231 1364 228 q 1414 233 1401 233 l 1421 232 q 1363 201 1392 213 q 1306 188 1333 190 l 1303 190 l 1288 182 l 1290 165 l 1294 168 l 1325 106 l 1321 97 l 1347 67 l 1358 69 l 1361 104 l 1365 101 q 1415 32 1369 78 l 1418 33 q 1465 -3 1458 17 l 1442 -15 q 1414 0 1431 -10 q 1375 24 1397 10 l 1372 22 q 1346 39 1358 22 q 1335 52 1340 46 q 1324 65 1329 58 l 1324 69 q 1276 131 1300 85 l 1272 126 l 1261 153 l 1257 151 l 1231 183 l 1194 181 l 1190 183 l 1164 179 q 942 196 1149 179 l 936 190 l 879 200 q 847 205 861 203 q 822 207 833 207 q 729 135 792 207 l 722 136 l 715 122 q 632 58 703 107 q 576 22 597 36 q 546 4 556 8 l 536 -18 l 394 -119 l 392 -118 l 260 -200 l 247 -199 q 226 -215 242 -199 l 210 -208 l 192 -222 l 176 -215 q 167 -231 164 -215 l 144 -242 l 132 -232 l 111 -243 q 97 -241 104 -242 q 83 -240 90 -240 q 51 -247 65 -240 m 1144 208 q 1167 209 1157 208 q 1185 211 1178 210 l 1189 208 l 1194 211 l 1208 211 l 1210 218 l 1206 233 q 1175 283 1199 233 q 1150 350 1153 333 l 1143 353 l 1144 357 q 1140 372 1144 363 l 1140 378 l 1133 383 l 1135 389 q 1106 463 1125 403 l 1113 479 l 1107 492 q 1095 482 1101 489 q 1082 465 1089 475 q 1046 435 1072 458 q 978 372 1019 413 q 886 276 890 289 l 874 268 l 869 271 l 851 243 l 854 239 l 858 243 q 881 236 868 233 l 890 228 l 892 228 q 910 235 899 228 l 913 229 q 933 231 929 229 l 936 221 l 953 228 l 960 224 l 988 226 l 1001 219 l 1004 224 q 1021 217 1008 217 q 1035 218 1029 217 q 1063 213 1036 213 q 1081 215 1072 213 q 1099 219 1089 217 q 1117 214 1111 217 q 1122 215 1119 215 q 1124 215 1124 215 q 1134 212 1128 215 q 1144 208 1140 208 m 165 106 q 171 121 168 117 l 182 113 q 263 176 219 138 l 263 171 q 336 228 322 226 l 338 233 l 335 238 q 328 236 331 236 q 322 236 325 236 q 316 238 319 236 q 310 239 313 239 q 294 238 304 239 q 278 236 283 236 q 258 238 256 236 q 250 239 254 239 q 224 237 240 239 q 188 232 208 235 l 183 235 q 169 233 178 235 q 158 231 161 231 l 153 226 q 107 207 146 226 l 104 210 q 92 203 96 204 l 92 178 q 96 179 94 178 q 106 164 99 179 q 118 149 113 149 q 122 150 119 150 l 122 146 q 129 146 124 146 q 133 142 133 146 l 129 139 l 126 133 q 143 122 136 132 l 146 129 l 144 135 l 147 135 q 157 121 151 126 l 156 119 q 165 106 156 107 m 57 -204 l 68 -196 l 86 -197 l 89 -194 q 92 -197 90 -196 q 94 -200 93 -199 l 96 -196 l 103 -204 q 131 -182 107 -182 q 138 -183 136 -182 l 149 -174 l 156 -181 q 183 -164 165 -181 l 200 -174 l 208 -169 l 213 -154 l 215 -156 l 319 -93 q 426 -39 385 -54 q 574 71 447 -14 q 669 138 635 111 q 710 178 703 164 l 719 181 q 728 192 724 186 q 739 207 733 199 l 738 211 q 718 210 729 210 q 692 210 707 210 q 603 221 640 210 l 597 218 q 517 228 572 228 q 467 231 488 229 q 435 235 446 232 l 432 229 l 381 236 q 336 208 358 222 q 290 178 314 193 l 251 143 q 227 125 243 142 q 207 99 211 108 l 210 88 l 222 93 q 257 63 235 82 l 271 67 l 272 63 q 286 58 281 63 l 304 63 l 313 53 l 307 47 l 297 46 l 288 39 l 275 49 l 271 47 q 239 57 258 47 l 231 51 l 218 57 l 215 51 q 210 57 213 53 q 206 65 208 61 l 190 60 l 189 65 l 172 61 l 165 68 q 17 -156 17 -100 q 57 -204 17 -197 m 1086 938 l 1083 943 q 1149 1010 1089 961 l 1229 1074 q 1273 1109 1251 1092 q 1317 1129 1294 1126 l 1321 1129 q 1332 1128 1328 1129 l 1328 1128 l 1322 1125 l 1322 1122 l 1325 1119 l 1333 1124 l 1335 1113 l 1328 1107 l 1336 1103 q 1372 1049 1339 1094 l 1364 1039 l 1368 1031 l 1382 1043 q 1386 1029 1389 1036 l 1383 1028 l 1379 1029 l 1376 1028 q 1383 1022 1379 1025 q 1390 1017 1386 1019 l 1396 1018 q 1404 988 1399 1006 q 1419 946 1410 969 l 1406 938 q 1368 956 1381 957 l 1372 961 q 1293 1038 1329 1021 q 1283 1060 1289 1049 q 1268 1075 1278 1072 q 1224 1042 1257 1061 l 1229 1042 q 1163 1001 1185 1000 l 1161 999 l 1160 992 l 1158 989 q 1141 976 1151 983 q 1117 958 1131 968 q 1104 949 1111 954 q 1086 938 1097 944 m 1249 1133 q 1186 1171 1226 1144 l 1149 1189 l 1118 1207 q 1110 1213 1114 1211 q 1108 1215 1110 1214 l 1104 1215 l 1067 1239 q 1056 1243 1067 1239 l 1035 1253 q 1016 1265 1026 1257 q 1007 1276 1006 1274 q 1007 1278 1007 1278 l 1007 1276 q 1011 1278 1008 1276 l 1014 1279 q 1024 1288 1014 1283 q 1030 1289 1025 1288 q 1043 1294 1035 1290 q 1044 1297 1043 1296 q 1060 1293 1053 1293 q 1060 1296 1057 1296 l 1063 1297 q 1072 1294 1067 1296 q 1083 1292 1078 1293 q 1090 1287 1086 1290 q 1099 1282 1094 1283 q 1100 1281 1097 1281 q 1101 1281 1100 1281 q 1103 1282 1101 1281 q 1115 1274 1108 1279 q 1131 1261 1121 1268 q 1135 1261 1132 1261 q 1140 1260 1138 1261 q 1143 1257 1142 1258 q 1147 1254 1144 1256 l 1150 1254 q 1154 1246 1150 1249 q 1222 1186 1167 1235 l 1272 1146 q 1274 1143 1274 1144 q 1266 1135 1274 1139 q 1249 1133 1258 1131 z "},"":{"ha":1440,"x_min":-25,"x_max":1542,"o":"m 51 -247 q 18 -226 21 -226 q 14 -229 17 -226 q -25 -161 -25 -190 q 136 72 -25 -85 l 133 86 l 92 115 q 67 185 79 135 q 88 210 76 194 q 115 249 100 226 l 142 257 l 146 256 l 196 276 l 204 274 q 235 276 215 274 q 285 281 256 278 q 331 284 311 283 q 367 283 351 285 q 375 284 367 283 q 400 286 383 285 l 404 283 l 446 303 l 449 301 q 557 347 481 310 q 669 385 624 379 q 567 338 647 368 q 472 278 499 311 l 479 265 l 497 278 q 519 272 497 274 q 658 264 589 264 l 668 251 q 684 249 675 250 q 706 249 693 249 q 750 247 729 249 q 785 239 771 246 l 810 264 l 813 261 q 966 392 894 326 q 1099 521 1038 457 l 1099 553 l 1090 561 l 1096 588 q 1092 600 1092 590 q 1093 629 1092 621 q 1094 631 1094 638 q 1100 718 1094 703 q 1174 758 1115 758 l 1186 753 l 1194 735 q 1180 683 1189 710 q 1160 626 1171 656 l 1167 583 q 1322 760 1253 676 q 1442 918 1390 844 q 1417 846 1444 894 q 1325 728 1389 797 l 1161 547 q 1176 500 1176 525 q 1171 468 1176 483 l 1178 469 l 1199 411 l 1197 403 q 1218 321 1197 379 q 1239 240 1240 263 l 1256 229 l 1256 224 q 1267 211 1256 211 q 1339 222 1288 211 q 1383 231 1364 228 q 1414 233 1401 233 l 1421 232 q 1363 201 1392 213 q 1306 188 1333 190 l 1303 190 l 1288 182 l 1290 165 l 1294 168 l 1325 106 l 1321 97 l 1347 67 l 1358 69 l 1361 104 l 1365 101 q 1415 32 1369 78 l 1418 33 q 1465 -3 1458 17 l 1442 -15 q 1414 0 1431 -10 q 1375 24 1397 10 l 1372 22 q 1346 39 1358 22 q 1335 52 1340 46 q 1324 65 1329 58 l 1324 69 q 1276 131 1300 85 l 1272 126 l 1261 153 l 1257 151 l 1231 183 l 1194 181 l 1190 183 l 1164 179 q 942 196 1149 179 l 936 190 l 879 200 q 847 205 861 203 q 822 207 833 207 q 729 135 792 207 l 722 136 l 715 122 q 632 58 703 107 q 576 22 597 36 q 546 4 556 8 l 536 -18 l 394 -119 l 392 -118 l 260 -200 l 247 -199 q 226 -215 242 -199 l 210 -208 l 192 -222 l 176 -215 q 167 -231 164 -215 l 144 -242 l 132 -232 l 111 -243 q 97 -241 104 -242 q 83 -240 90 -240 q 51 -247 65 -240 m 1144 208 q 1167 209 1157 208 q 1185 211 1178 210 l 1189 208 l 1194 211 l 1208 211 l 1210 218 l 1206 233 q 1175 283 1199 233 q 1150 350 1153 333 l 1143 353 l 1144 357 q 1140 372 1144 363 l 1140 378 l 1133 383 l 1135 389 q 1106 463 1125 403 l 1113 479 l 1107 492 q 1095 482 1101 489 q 1082 465 1089 475 q 1046 435 1072 458 q 978 372 1019 413 q 886 276 890 289 l 874 268 l 869 271 l 851 243 l 854 239 l 858 243 q 881 236 868 233 l 890 228 l 892 228 q 910 235 899 228 l 913 229 q 933 231 929 229 l 936 221 l 953 228 l 960 224 l 988 226 l 1001 219 l 1004 224 q 1021 217 1008 217 q 1035 218 1029 217 q 1063 213 1036 213 q 1081 215 1072 213 q 1099 219 1089 217 q 1117 214 1111 217 q 1122 215 1119 215 q 1124 215 1124 215 q 1134 212 1128 215 q 1144 208 1140 208 m 165 106 q 171 121 168 117 l 182 113 q 263 176 219 138 l 263 171 q 336 228 322 226 l 338 233 l 335 238 q 328 236 331 236 q 322 236 325 236 q 316 238 319 236 q 310 239 313 239 q 294 238 304 239 q 278 236 283 236 q 258 238 256 236 q 250 239 254 239 q 224 237 240 239 q 188 232 208 235 l 183 235 q 169 233 178 235 q 158 231 161 231 l 153 226 q 107 207 146 226 l 104 210 q 92 203 96 204 l 92 178 q 96 179 94 178 q 106 164 99 179 q 118 149 113 149 q 122 150 119 150 l 122 146 q 129 146 124 146 q 133 142 133 146 l 129 139 l 126 133 q 143 122 136 132 l 146 129 l 144 135 l 147 135 q 157 121 151 126 l 156 119 q 165 106 156 107 m 57 -204 l 68 -196 l 86 -197 l 89 -194 q 92 -197 90 -196 q 94 -200 93 -199 l 96 -196 l 103 -204 q 131 -182 107 -182 q 138 -183 136 -182 l 149 -174 l 156 -181 q 183 -164 165 -181 l 200 -174 l 208 -169 l 213 -154 l 215 -156 l 319 -93 q 426 -39 385 -54 q 574 71 447 -14 q 669 138 635 111 q 710 178 703 164 l 719 181 q 728 192 724 186 q 739 207 733 199 l 738 211 q 718 210 729 210 q 692 210 707 210 q 603 221 640 210 l 597 218 q 517 228 572 228 q 467 231 488 229 q 435 235 446 232 l 432 229 l 381 236 q 336 208 358 222 q 290 178 314 193 l 251 143 q 227 125 243 142 q 207 99 211 108 l 210 88 l 222 93 q 257 63 235 82 l 271 67 l 272 63 q 286 58 281 63 l 304 63 l 313 53 l 307 47 l 297 46 l 288 39 l 275 49 l 271 47 q 239 57 258 47 l 231 51 l 218 57 l 215 51 q 210 57 213 53 q 206 65 208 61 l 190 60 l 189 65 l 172 61 l 165 68 q 17 -156 17 -100 q 57 -204 17 -197 m 1086 938 l 1083 943 q 1149 1010 1089 961 l 1229 1074 q 1273 1109 1251 1092 q 1317 1129 1294 1126 l 1321 1129 q 1332 1128 1328 1129 l 1328 1128 l 1322 1125 l 1322 1122 l 1325 1119 l 1333 1124 l 1335 1113 l 1328 1107 l 1336 1103 q 1372 1049 1339 1094 l 1364 1039 l 1368 1031 l 1382 1043 q 1386 1029 1389 1036 l 1383 1028 l 1379 1029 l 1376 1028 q 1383 1022 1379 1025 q 1390 1017 1386 1019 l 1396 1018 q 1404 988 1399 1006 q 1419 946 1410 969 l 1406 938 q 1368 956 1381 957 l 1372 961 q 1293 1038 1329 1021 q 1283 1060 1289 1049 q 1268 1075 1278 1072 q 1224 1042 1257 1061 l 1229 1042 q 1163 1001 1185 1000 l 1161 999 l 1160 992 l 1158 989 q 1141 976 1151 983 q 1117 958 1131 968 q 1104 949 1111 954 q 1086 938 1097 944 m 1389 1086 q 1386 1094 1383 1090 q 1386 1106 1389 1099 l 1390 1117 q 1394 1121 1390 1119 q 1404 1129 1399 1122 l 1415 1142 q 1428 1144 1428 1144 q 1435 1155 1433 1150 q 1442 1165 1436 1160 q 1450 1170 1443 1165 q 1457 1175 1457 1175 l 1460 1181 q 1463 1189 1463 1182 q 1464 1197 1463 1196 q 1468 1203 1464 1200 q 1472 1204 1472 1207 l 1472 1207 q 1478 1222 1472 1214 l 1478 1229 q 1478 1242 1478 1240 q 1481 1244 1479 1243 l 1481 1254 l 1475 1258 l 1475 1260 q 1458 1272 1475 1272 q 1451 1274 1453 1272 q 1443 1276 1449 1276 q 1436 1276 1440 1276 q 1425 1275 1432 1275 q 1417 1271 1421 1275 q 1411 1267 1414 1267 q 1409 1268 1411 1267 q 1406 1268 1407 1269 q 1400 1263 1404 1263 q 1393 1258 1396 1263 q 1385 1251 1388 1256 l 1385 1250 q 1377 1243 1385 1244 q 1368 1240 1369 1242 q 1363 1236 1365 1233 q 1357 1232 1361 1239 q 1351 1226 1353 1226 q 1350 1229 1350 1226 q 1354 1243 1350 1238 q 1356 1246 1356 1244 q 1357 1247 1356 1247 q 1363 1257 1358 1256 q 1365 1263 1363 1260 q 1368 1265 1368 1265 q 1375 1274 1368 1265 q 1386 1282 1382 1282 q 1397 1292 1392 1289 q 1404 1297 1403 1296 q 1417 1307 1413 1303 l 1419 1307 q 1428 1311 1425 1311 q 1432 1308 1432 1311 q 1436 1309 1433 1307 q 1440 1311 1439 1311 q 1447 1313 1446 1314 q 1450 1311 1447 1313 q 1456 1317 1456 1317 q 1458 1315 1457 1317 q 1461 1316 1460 1315 q 1464 1317 1463 1317 q 1469 1314 1464 1317 l 1488 1314 l 1489 1313 q 1493 1314 1490 1313 l 1496 1314 q 1506 1308 1500 1314 q 1515 1303 1511 1303 q 1524 1297 1521 1297 l 1522 1293 l 1525 1293 q 1529 1290 1528 1293 q 1532 1285 1531 1288 q 1538 1273 1538 1276 q 1538 1267 1538 1269 q 1542 1257 1542 1265 q 1539 1242 1542 1253 q 1535 1228 1536 1238 q 1528 1211 1535 1218 q 1497 1176 1515 1186 l 1489 1164 q 1479 1160 1490 1165 q 1468 1157 1468 1156 q 1455 1142 1463 1150 q 1447 1135 1447 1135 q 1448 1133 1447 1133 q 1449 1132 1449 1133 q 1443 1126 1449 1129 q 1436 1119 1438 1122 q 1424 1113 1431 1117 q 1414 1093 1417 1108 l 1414 1088 q 1404 1076 1414 1076 q 1389 1086 1397 1076 z "},"":{"ha":1440,"x_min":-25,"x_max":1469,"o":"m 51 -247 q 18 -226 21 -226 q 14 -229 17 -226 q -25 -161 -25 -190 q 136 72 -25 -85 l 133 86 l 92 115 q 67 185 79 135 q 88 210 76 194 q 115 249 100 226 l 142 257 l 146 256 l 196 276 l 204 274 q 235 276 215 274 q 285 281 256 278 q 331 284 311 283 q 367 283 351 285 q 375 284 367 283 q 400 286 383 285 l 404 283 l 446 303 l 449 301 q 557 347 481 310 q 669 385 624 379 q 567 338 647 368 q 472 278 499 311 l 479 265 l 497 278 q 519 272 497 274 q 658 264 589 264 l 668 251 q 684 249 675 250 q 706 249 693 249 q 750 247 729 249 q 785 239 771 246 l 810 264 l 813 261 q 966 392 894 326 q 1099 521 1038 457 l 1099 553 l 1090 561 l 1096 588 q 1092 600 1092 590 q 1093 629 1092 621 q 1094 631 1094 638 q 1100 718 1094 703 q 1174 758 1115 758 l 1186 753 l 1194 735 q 1180 683 1189 710 q 1160 626 1171 656 l 1167 583 q 1322 760 1253 676 q 1442 918 1390 844 q 1417 846 1444 894 q 1325 728 1389 797 l 1161 547 q 1176 500 1176 525 q 1171 468 1176 483 l 1178 469 l 1199 411 l 1197 403 q 1218 321 1197 379 q 1239 240 1240 263 l 1256 229 l 1256 224 q 1267 211 1256 211 q 1339 222 1288 211 q 1383 231 1364 228 q 1414 233 1401 233 l 1421 232 q 1363 201 1392 213 q 1306 188 1333 190 l 1303 190 l 1288 182 l 1290 165 l 1294 168 l 1325 106 l 1321 97 l 1347 67 l 1358 69 l 1361 104 l 1365 101 q 1415 32 1369 78 l 1418 33 q 1465 -3 1458 17 l 1442 -15 q 1414 0 1431 -10 q 1375 24 1397 10 l 1372 22 q 1346 39 1358 22 q 1335 52 1340 46 q 1324 65 1329 58 l 1324 69 q 1276 131 1300 85 l 1272 126 l 1261 153 l 1257 151 l 1231 183 l 1194 181 l 1190 183 l 1164 179 q 942 196 1149 179 l 936 190 l 879 200 q 847 205 861 203 q 822 207 833 207 q 729 135 792 207 l 722 136 l 715 122 q 632 58 703 107 q 576 22 597 36 q 546 4 556 8 l 536 -18 l 394 -119 l 392 -118 l 260 -200 l 247 -199 q 226 -215 242 -199 l 210 -208 l 192 -222 l 176 -215 q 167 -231 164 -215 l 144 -242 l 132 -232 l 111 -243 q 97 -241 104 -242 q 83 -240 90 -240 q 51 -247 65 -240 m 1144 208 q 1167 209 1157 208 q 1185 211 1178 210 l 1189 208 l 1194 211 l 1208 211 l 1210 218 l 1206 233 q 1175 283 1199 233 q 1150 350 1153 333 l 1143 353 l 1144 357 q 1140 372 1144 363 l 1140 378 l 1133 383 l 1135 389 q 1106 463 1125 403 l 1113 479 l 1107 492 q 1095 482 1101 489 q 1082 465 1089 475 q 1046 435 1072 458 q 978 372 1019 413 q 886 276 890 289 l 874 268 l 869 271 l 851 243 l 854 239 l 858 243 q 881 236 868 233 l 890 228 l 892 228 q 910 235 899 228 l 913 229 q 933 231 929 229 l 936 221 l 953 228 l 960 224 l 988 226 l 1001 219 l 1004 224 q 1021 217 1008 217 q 1035 218 1029 217 q 1063 213 1036 213 q 1081 215 1072 213 q 1099 219 1089 217 q 1117 214 1111 217 q 1122 215 1119 215 q 1124 215 1124 215 q 1134 212 1128 215 q 1144 208 1140 208 m 165 106 q 171 121 168 117 l 182 113 q 263 176 219 138 l 263 171 q 336 228 322 226 l 338 233 l 335 238 q 328 236 331 236 q 322 236 325 236 q 316 238 319 236 q 310 239 313 239 q 294 238 304 239 q 278 236 283 236 q 258 238 256 236 q 250 239 254 239 q 224 237 240 239 q 188 232 208 235 l 183 235 q 169 233 178 235 q 158 231 161 231 l 153 226 q 107 207 146 226 l 104 210 q 92 203 96 204 l 92 178 q 96 179 94 178 q 106 164 99 179 q 118 149 113 149 q 122 150 119 150 l 122 146 q 129 146 124 146 q 133 142 133 146 l 129 139 l 126 133 q 143 122 136 132 l 146 129 l 144 135 l 147 135 q 157 121 151 126 l 156 119 q 165 106 156 107 m 57 -204 l 68 -196 l 86 -197 l 89 -194 q 92 -197 90 -196 q 94 -200 93 -199 l 96 -196 l 103 -204 q 131 -182 107 -182 q 138 -183 136 -182 l 149 -174 l 156 -181 q 183 -164 165 -181 l 200 -174 l 208 -169 l 213 -154 l 215 -156 l 319 -93 q 426 -39 385 -54 q 574 71 447 -14 q 669 138 635 111 q 710 178 703 164 l 719 181 q 728 192 724 186 q 739 207 733 199 l 738 211 q 718 210 729 210 q 692 210 707 210 q 603 221 640 210 l 597 218 q 517 228 572 228 q 467 231 488 229 q 435 235 446 232 l 432 229 l 381 236 q 336 208 358 222 q 290 178 314 193 l 251 143 q 227 125 243 142 q 207 99 211 108 l 210 88 l 222 93 q 257 63 235 82 l 271 67 l 272 63 q 286 58 281 63 l 304 63 l 313 53 l 307 47 l 297 46 l 288 39 l 275 49 l 271 47 q 239 57 258 47 l 231 51 l 218 57 l 215 51 q 210 57 213 53 q 206 65 208 61 l 190 60 l 189 65 l 172 61 l 165 68 q 17 -156 17 -100 q 57 -204 17 -197 m 1086 938 l 1083 943 q 1149 1010 1089 961 l 1229 1074 q 1273 1109 1251 1092 q 1317 1129 1294 1126 l 1321 1129 q 1332 1128 1328 1129 l 1328 1128 l 1322 1125 l 1322 1122 l 1325 1119 l 1333 1124 l 1335 1113 l 1328 1107 l 1336 1103 q 1372 1049 1339 1094 l 1364 1039 l 1368 1031 l 1382 1043 q 1386 1029 1389 1036 l 1383 1028 l 1379 1029 l 1376 1028 q 1383 1022 1379 1025 q 1390 1017 1386 1019 l 1396 1018 q 1404 988 1399 1006 q 1419 946 1410 969 l 1406 938 q 1368 956 1381 957 l 1372 961 q 1293 1038 1329 1021 q 1283 1060 1289 1049 q 1268 1075 1278 1072 q 1224 1042 1257 1061 l 1229 1042 q 1163 1001 1185 1000 l 1161 999 l 1160 992 l 1158 989 q 1141 976 1151 983 q 1117 958 1131 968 q 1104 949 1111 954 q 1086 938 1097 944 m 1153 1117 q 1144 1129 1144 1117 q 1174 1209 1144 1178 q 1250 1240 1204 1240 q 1262 1240 1253 1240 q 1275 1236 1271 1239 q 1276 1234 1275 1235 q 1276 1232 1276 1233 q 1276 1226 1276 1229 q 1278 1219 1275 1222 q 1292 1222 1288 1219 q 1300 1225 1294 1225 q 1310 1224 1306 1225 q 1318 1224 1315 1222 q 1324 1220 1322 1224 q 1332 1214 1326 1217 q 1344 1212 1343 1208 q 1349 1215 1344 1215 q 1363 1205 1358 1208 q 1372 1199 1367 1201 l 1394 1199 q 1419 1208 1411 1199 q 1438 1226 1428 1217 l 1456 1246 q 1465 1249 1460 1249 q 1469 1243 1469 1249 q 1464 1225 1469 1235 q 1453 1190 1463 1214 q 1431 1158 1444 1167 q 1415 1151 1421 1157 q 1403 1142 1410 1144 q 1390 1144 1400 1144 q 1370 1143 1381 1144 q 1356 1143 1360 1142 q 1349 1144 1350 1144 q 1343 1144 1347 1143 q 1338 1149 1340 1143 q 1338 1158 1336 1154 q 1328 1164 1335 1161 q 1318 1169 1321 1167 l 1313 1169 l 1310 1175 l 1301 1171 l 1292 1175 q 1290 1180 1289 1179 q 1294 1185 1292 1181 q 1294 1190 1294 1192 q 1290 1192 1293 1189 q 1278 1185 1283 1185 q 1274 1181 1276 1181 q 1271 1178 1272 1181 q 1244 1186 1258 1186 q 1242 1186 1244 1186 q 1236 1185 1240 1186 q 1213 1174 1229 1176 q 1189 1168 1196 1172 q 1174 1159 1183 1164 q 1164 1140 1164 1154 q 1162 1127 1164 1135 q 1153 1117 1160 1119 z "},"":{"ha":1440,"x_min":-25,"x_max":1465,"o":"m 51 -247 q 18 -226 21 -226 q 14 -229 17 -226 q -25 -161 -25 -190 q 136 72 -25 -85 l 133 86 l 92 115 q 67 185 79 135 q 88 210 76 194 q 115 249 100 226 l 142 257 l 146 256 l 196 276 l 204 274 q 235 276 215 274 q 285 281 256 278 q 331 284 311 283 q 367 283 351 285 q 375 284 367 283 q 400 286 383 285 l 404 283 l 446 303 l 449 301 q 557 347 481 310 q 669 385 624 379 q 567 338 647 368 q 472 278 499 311 l 479 265 l 497 278 q 519 272 497 274 q 658 264 589 264 l 668 251 q 684 249 675 250 q 706 249 693 249 q 750 247 729 249 q 785 239 771 246 l 810 264 l 813 261 q 966 392 894 326 q 1099 521 1038 457 l 1099 553 l 1090 561 l 1096 588 q 1092 600 1092 590 q 1093 629 1092 621 q 1094 631 1094 638 q 1100 718 1094 703 q 1174 758 1115 758 l 1186 753 l 1194 735 q 1180 683 1189 710 q 1160 626 1171 656 l 1167 583 q 1322 760 1253 676 q 1442 918 1390 844 q 1417 846 1444 894 q 1325 728 1389 797 l 1161 547 q 1176 500 1176 525 q 1171 468 1176 483 l 1178 469 l 1199 411 l 1197 403 q 1218 321 1197 379 q 1239 240 1240 263 l 1256 229 l 1256 224 q 1267 211 1256 211 q 1339 222 1288 211 q 1383 231 1364 228 q 1414 233 1401 233 l 1421 232 q 1363 201 1392 213 q 1306 188 1333 190 l 1303 190 l 1288 182 l 1290 165 l 1294 168 l 1325 106 l 1321 97 l 1347 67 l 1358 69 l 1361 104 l 1365 101 q 1415 32 1369 78 l 1418 33 q 1465 -3 1458 17 l 1442 -15 q 1414 0 1431 -10 q 1375 24 1397 10 l 1372 22 q 1346 39 1358 22 q 1335 52 1340 46 q 1324 65 1329 58 l 1324 69 q 1276 131 1300 85 l 1272 126 l 1261 153 l 1257 151 l 1231 183 l 1194 181 l 1190 183 l 1164 179 q 942 196 1149 179 l 936 190 l 879 200 q 847 205 861 203 q 822 207 833 207 q 729 135 792 207 l 722 136 l 715 122 q 632 58 703 107 q 576 22 597 36 q 546 4 556 8 l 536 -18 l 394 -119 l 392 -118 l 260 -200 l 247 -199 q 226 -215 242 -199 l 210 -208 l 192 -222 l 176 -215 q 167 -231 164 -215 l 144 -242 l 132 -232 l 111 -243 q 97 -241 104 -242 q 83 -240 90 -240 q 51 -247 65 -240 m 1144 208 q 1167 209 1157 208 q 1185 211 1178 210 l 1189 208 l 1194 211 l 1208 211 l 1210 218 l 1206 233 q 1175 283 1199 233 q 1150 350 1153 333 l 1143 353 l 1144 357 q 1140 372 1144 363 l 1140 378 l 1133 383 l 1135 389 q 1106 463 1125 403 l 1113 479 l 1107 492 q 1095 482 1101 489 q 1082 465 1089 475 q 1046 435 1072 458 q 978 372 1019 413 q 886 276 890 289 l 874 268 l 869 271 l 851 243 l 854 239 l 858 243 q 881 236 868 233 l 890 228 l 892 228 q 910 235 899 228 l 913 229 q 933 231 929 229 l 936 221 l 953 228 l 960 224 l 988 226 l 1001 219 l 1004 224 q 1021 217 1008 217 q 1035 218 1029 217 q 1063 213 1036 213 q 1081 215 1072 213 q 1099 219 1089 217 q 1117 214 1111 217 q 1122 215 1119 215 q 1124 215 1124 215 q 1134 212 1128 215 q 1144 208 1140 208 m 165 106 q 171 121 168 117 l 182 113 q 263 176 219 138 l 263 171 q 336 228 322 226 l 338 233 l 335 238 q 328 236 331 236 q 322 236 325 236 q 316 238 319 236 q 310 239 313 239 q 294 238 304 239 q 278 236 283 236 q 258 238 256 236 q 250 239 254 239 q 224 237 240 239 q 188 232 208 235 l 183 235 q 169 233 178 235 q 158 231 161 231 l 153 226 q 107 207 146 226 l 104 210 q 92 203 96 204 l 92 178 q 96 179 94 178 q 106 164 99 179 q 118 149 113 149 q 122 150 119 150 l 122 146 q 129 146 124 146 q 133 142 133 146 l 129 139 l 126 133 q 143 122 136 132 l 146 129 l 144 135 l 147 135 q 157 121 151 126 l 156 119 q 165 106 156 107 m 57 -204 l 68 -196 l 86 -197 l 89 -194 q 92 -197 90 -196 q 94 -200 93 -199 l 96 -196 l 103 -204 q 131 -182 107 -182 q 138 -183 136 -182 l 149 -174 l 156 -181 q 183 -164 165 -181 l 200 -174 l 208 -169 l 213 -154 l 215 -156 l 319 -93 q 426 -39 385 -54 q 574 71 447 -14 q 669 138 635 111 q 710 178 703 164 l 719 181 q 728 192 724 186 q 739 207 733 199 l 738 211 q 718 210 729 210 q 692 210 707 210 q 603 221 640 210 l 597 218 q 517 228 572 228 q 467 231 488 229 q 435 235 446 232 l 432 229 l 381 236 q 336 208 358 222 q 290 178 314 193 l 251 143 q 227 125 243 142 q 207 99 211 108 l 210 88 l 222 93 q 257 63 235 82 l 271 67 l 272 63 q 286 58 281 63 l 304 63 l 313 53 l 307 47 l 297 46 l 288 39 l 275 49 l 271 47 q 239 57 258 47 l 231 51 l 218 57 l 215 51 q 210 57 213 53 q 206 65 208 61 l 190 60 l 189 65 l 172 61 l 165 68 q 17 -156 17 -100 q 57 -204 17 -197 m 1149 939 q 1086 976 1126 950 l 1049 994 l 1018 1013 q 1010 1018 1014 1017 q 1008 1021 1010 1019 l 1004 1021 l 967 1044 q 956 1049 967 1044 l 935 1058 q 916 1071 926 1063 q 907 1082 906 1079 q 907 1083 907 1083 l 907 1082 q 911 1083 908 1082 l 914 1085 q 924 1093 914 1089 q 930 1094 925 1093 q 943 1100 935 1096 q 944 1103 943 1101 q 960 1099 953 1099 q 960 1101 957 1101 l 963 1103 q 972 1100 967 1101 q 983 1097 978 1099 q 990 1092 986 1096 q 999 1088 994 1089 q 1000 1086 997 1086 q 1001 1086 1000 1086 q 1003 1088 1001 1086 q 1015 1079 1008 1085 q 1031 1067 1021 1074 q 1035 1067 1032 1067 q 1040 1065 1038 1067 q 1043 1063 1042 1064 q 1047 1060 1044 1061 l 1050 1060 q 1054 1051 1050 1054 q 1077 1031 1061 1046 q 1122 992 1093 1015 l 1172 951 q 1174 949 1174 950 q 1166 940 1174 944 q 1149 939 1158 936 m 1353 939 q 1290 976 1331 950 l 1253 994 l 1222 1013 q 1214 1018 1218 1017 q 1213 1021 1214 1019 l 1208 1021 l 1171 1044 q 1160 1049 1171 1044 l 1139 1058 q 1120 1071 1131 1063 q 1111 1082 1110 1079 q 1111 1083 1111 1083 l 1111 1082 q 1115 1083 1113 1082 l 1118 1085 q 1128 1093 1118 1089 q 1134 1094 1129 1093 q 1147 1100 1139 1096 q 1149 1103 1147 1101 q 1164 1099 1157 1099 q 1164 1101 1161 1101 l 1167 1103 q 1176 1100 1171 1101 q 1188 1097 1182 1099 q 1194 1092 1190 1096 q 1203 1088 1199 1089 q 1204 1086 1201 1086 q 1205 1086 1204 1086 q 1207 1088 1206 1086 q 1219 1079 1213 1085 q 1235 1067 1225 1074 q 1239 1067 1236 1067 q 1244 1065 1242 1067 q 1247 1063 1246 1064 q 1251 1060 1249 1061 l 1254 1060 q 1258 1051 1254 1054 q 1326 992 1271 1040 l 1376 951 q 1378 949 1378 950 q 1370 940 1378 944 q 1353 939 1363 936 z "},"":{"ha":1440,"x_min":-25,"x_max":1465,"o":"m 51 -247 q 18 -226 21 -226 q 14 -229 17 -226 q -25 -161 -25 -190 q 136 72 -25 -85 l 133 86 l 92 115 q 67 185 79 135 q 88 210 76 194 q 115 249 100 226 l 142 257 l 146 256 l 196 276 l 204 274 q 235 276 215 274 q 285 281 256 278 q 331 284 311 283 q 367 283 351 285 q 375 284 367 283 q 400 286 383 285 l 404 283 l 446 303 l 449 301 q 557 347 481 310 q 669 385 624 379 q 567 338 647 368 q 472 278 499 311 l 479 265 l 497 278 q 519 272 497 274 q 658 264 589 264 l 668 251 q 684 249 675 250 q 706 249 693 249 q 750 247 729 249 q 785 239 771 246 l 810 264 l 813 261 q 966 392 894 326 q 1099 521 1038 457 l 1099 553 l 1090 561 l 1096 588 q 1092 600 1092 590 q 1093 629 1092 621 q 1094 631 1094 638 q 1100 718 1094 703 q 1174 758 1115 758 l 1186 753 l 1194 735 q 1180 683 1189 710 q 1160 626 1171 656 l 1167 583 q 1322 760 1253 676 q 1442 918 1390 844 q 1417 846 1444 894 q 1325 728 1389 797 l 1161 547 q 1176 500 1176 525 q 1171 468 1176 483 l 1178 469 l 1199 411 l 1197 403 q 1218 321 1197 379 q 1239 240 1240 263 l 1256 229 l 1256 224 q 1267 211 1256 211 q 1339 222 1288 211 q 1383 231 1364 228 q 1414 233 1401 233 l 1421 232 q 1363 201 1392 213 q 1306 188 1333 190 l 1303 190 l 1288 182 l 1290 165 l 1294 168 l 1325 106 l 1321 97 l 1347 67 l 1358 69 l 1361 104 l 1365 101 q 1415 32 1369 78 l 1418 33 q 1465 -3 1458 17 l 1442 -15 q 1414 0 1431 -10 q 1375 24 1397 10 l 1372 22 q 1346 39 1358 22 q 1335 52 1340 46 q 1324 65 1329 58 l 1324 69 q 1276 131 1300 85 l 1272 126 l 1261 153 l 1257 151 l 1231 183 l 1194 181 l 1190 183 l 1164 179 q 942 196 1149 179 l 936 190 l 879 200 q 847 205 861 203 q 822 207 833 207 q 729 135 792 207 l 722 136 l 715 122 q 632 58 703 107 q 576 22 597 36 q 546 4 556 8 l 536 -18 l 394 -119 l 392 -118 l 260 -200 l 247 -199 q 226 -215 242 -199 l 210 -208 l 192 -222 l 176 -215 q 167 -231 164 -215 l 144 -242 l 132 -232 l 111 -243 q 97 -241 104 -242 q 83 -240 90 -240 q 51 -247 65 -240 m 1144 208 q 1167 209 1157 208 q 1185 211 1178 210 l 1189 208 l 1194 211 l 1208 211 l 1210 218 l 1206 233 q 1175 283 1199 233 q 1150 350 1153 333 l 1143 353 l 1144 357 q 1140 372 1144 363 l 1140 378 l 1133 383 l 1135 389 q 1106 463 1125 403 l 1113 479 l 1107 492 q 1095 482 1101 489 q 1082 465 1089 475 q 1046 435 1072 458 q 978 372 1019 413 q 886 276 890 289 l 874 268 l 869 271 l 851 243 l 854 239 l 858 243 q 881 236 868 233 l 890 228 l 892 228 q 910 235 899 228 l 913 229 q 933 231 929 229 l 936 221 l 953 228 l 960 224 l 988 226 l 1001 219 l 1004 224 q 1021 217 1008 217 q 1035 218 1029 217 q 1063 213 1036 213 q 1081 215 1072 213 q 1099 219 1089 217 q 1117 214 1111 217 q 1122 215 1119 215 q 1124 215 1124 215 q 1134 212 1128 215 q 1144 208 1140 208 m 165 106 q 171 121 168 117 l 182 113 q 263 176 219 138 l 263 171 q 336 228 322 226 l 338 233 l 335 238 q 328 236 331 236 q 322 236 325 236 q 316 238 319 236 q 310 239 313 239 q 294 238 304 239 q 278 236 283 236 q 258 238 256 236 q 250 239 254 239 q 224 237 240 239 q 188 232 208 235 l 183 235 q 169 233 178 235 q 158 231 161 231 l 153 226 q 107 207 146 226 l 104 210 q 92 203 96 204 l 92 178 q 96 179 94 178 q 106 164 99 179 q 118 149 113 149 q 122 150 119 150 l 122 146 q 129 146 124 146 q 133 142 133 146 l 129 139 l 126 133 q 143 122 136 132 l 146 129 l 144 135 l 147 135 q 157 121 151 126 l 156 119 q 165 106 156 107 m 57 -204 l 68 -196 l 86 -197 l 89 -194 q 92 -197 90 -196 q 94 -200 93 -199 l 96 -196 l 103 -204 q 131 -182 107 -182 q 138 -183 136 -182 l 149 -174 l 156 -181 q 183 -164 165 -181 l 200 -174 l 208 -169 l 213 -154 l 215 -156 l 319 -93 q 426 -39 385 -54 q 574 71 447 -14 q 669 138 635 111 q 710 178 703 164 l 719 181 q 728 192 724 186 q 739 207 733 199 l 738 211 q 718 210 729 210 q 692 210 707 210 q 603 221 640 210 l 597 218 q 517 228 572 228 q 467 231 488 229 q 435 235 446 232 l 432 229 l 381 236 q 336 208 358 222 q 290 178 314 193 l 251 143 q 227 125 243 142 q 207 99 211 108 l 210 88 l 222 93 q 257 63 235 82 l 271 67 l 272 63 q 286 58 281 63 l 304 63 l 313 53 l 307 47 l 297 46 l 288 39 l 275 49 l 271 47 q 239 57 258 47 l 231 51 l 218 57 l 215 51 q 210 57 213 53 q 206 65 208 61 l 190 60 l 189 65 l 172 61 l 165 68 q 17 -156 17 -100 q 57 -204 17 -197 m 1365 938 q 1328 958 1351 938 q 1306 993 1306 979 q 1353 1014 1328 1001 q 1408 1042 1378 1026 l 1410 1040 q 1390 1008 1401 1019 q 1392 1000 1392 1003 q 1393 994 1393 997 l 1393 983 l 1385 972 q 1365 938 1385 938 m 1153 938 q 1115 958 1139 938 q 1093 993 1093 979 q 1140 1014 1115 1001 q 1196 1042 1165 1026 l 1197 1040 q 1178 1008 1189 1019 q 1180 1000 1179 1003 q 1181 994 1181 997 l 1181 983 l 1172 972 q 1153 938 1172 938 z "},"":{"ha":1440,"x_min":-25,"x_max":1465,"o":"m 51 -247 q 18 -226 21 -226 q 14 -229 17 -226 q -25 -161 -25 -190 q 136 72 -25 -85 l 133 86 l 92 115 q 67 185 79 135 q 88 210 76 194 q 115 249 100 226 l 142 257 l 146 256 l 196 276 l 204 274 q 235 276 215 274 q 285 281 256 278 q 331 284 311 283 q 367 283 351 285 q 375 284 367 283 q 400 286 383 285 l 404 283 l 446 303 l 449 301 q 557 347 481 310 q 669 385 624 379 q 567 338 647 368 q 472 278 499 311 l 479 265 l 497 278 q 519 272 497 274 q 658 264 589 264 l 668 251 q 684 249 675 250 q 706 249 693 249 q 750 247 729 249 q 785 239 771 246 l 810 264 l 813 261 q 966 392 894 326 q 1099 521 1038 457 l 1099 553 l 1090 561 l 1096 588 q 1092 600 1092 590 q 1093 629 1092 621 q 1094 631 1094 638 q 1100 718 1094 703 q 1174 758 1115 758 l 1186 753 l 1194 735 q 1180 683 1189 710 q 1160 626 1171 656 l 1167 583 q 1322 760 1253 676 q 1442 918 1390 844 q 1417 846 1444 894 q 1325 728 1389 797 l 1161 547 q 1176 500 1176 525 q 1171 468 1176 483 l 1178 469 l 1199 411 l 1197 403 q 1218 321 1197 379 q 1239 240 1240 263 l 1256 229 l 1256 224 q 1267 211 1256 211 q 1339 222 1288 211 q 1383 231 1364 228 q 1414 233 1401 233 l 1421 232 q 1363 201 1392 213 q 1306 188 1333 190 l 1303 190 l 1288 182 l 1290 165 l 1294 168 l 1325 106 l 1321 97 l 1347 67 l 1358 69 l 1361 104 l 1365 101 q 1415 32 1369 78 l 1418 33 q 1465 -3 1458 17 l 1442 -15 q 1414 0 1431 -10 q 1375 24 1397 10 l 1372 22 q 1346 39 1358 22 q 1335 52 1340 46 q 1324 65 1329 58 l 1324 69 q 1276 131 1300 85 l 1272 126 l 1261 153 l 1257 151 l 1231 183 l 1194 181 l 1190 183 l 1164 179 q 942 196 1149 179 l 936 190 l 879 200 q 847 205 861 203 q 822 207 833 207 q 729 135 792 207 l 722 136 l 715 122 q 632 58 703 107 q 576 22 597 36 q 546 4 556 8 l 536 -18 l 394 -119 l 392 -118 l 260 -200 l 247 -199 q 226 -215 242 -199 l 210 -208 l 192 -222 l 176 -215 q 167 -231 164 -215 l 144 -242 l 132 -232 l 111 -243 q 97 -241 104 -242 q 83 -240 90 -240 q 51 -247 65 -240 m 1144 208 q 1167 209 1157 208 q 1185 211 1178 210 l 1189 208 l 1194 211 l 1208 211 l 1210 218 l 1206 233 q 1175 283 1199 233 q 1150 350 1153 333 l 1143 353 l 1144 357 q 1140 372 1144 363 l 1140 378 l 1133 383 l 1135 389 q 1106 463 1125 403 l 1113 479 l 1107 492 q 1095 482 1101 489 q 1082 465 1089 475 q 1046 435 1072 458 q 978 372 1019 413 q 886 276 890 289 l 874 268 l 869 271 l 851 243 l 854 239 l 858 243 q 881 236 868 233 l 890 228 l 892 228 q 910 235 899 228 l 913 229 q 933 231 929 229 l 936 221 l 953 228 l 960 224 l 988 226 l 1001 219 l 1004 224 q 1021 217 1008 217 q 1035 218 1029 217 q 1063 213 1036 213 q 1081 215 1072 213 q 1099 219 1089 217 q 1117 214 1111 217 q 1122 215 1119 215 q 1124 215 1124 215 q 1134 212 1128 215 q 1144 208 1140 208 m 165 106 q 171 121 168 117 l 182 113 q 263 176 219 138 l 263 171 q 336 228 322 226 l 338 233 l 335 238 q 328 236 331 236 q 322 236 325 236 q 316 238 319 236 q 310 239 313 239 q 294 238 304 239 q 278 236 283 236 q 258 238 256 236 q 250 239 254 239 q 224 237 240 239 q 188 232 208 235 l 183 235 q 169 233 178 235 q 158 231 161 231 l 153 226 q 107 207 146 226 l 104 210 q 92 203 96 204 l 92 178 q 96 179 94 178 q 106 164 99 179 q 118 149 113 149 q 122 150 119 150 l 122 146 q 129 146 124 146 q 133 142 133 146 l 129 139 l 126 133 q 143 122 136 132 l 146 129 l 144 135 l 147 135 q 157 121 151 126 l 156 119 q 165 106 156 107 m 57 -204 l 68 -196 l 86 -197 l 89 -194 q 92 -197 90 -196 q 94 -200 93 -199 l 96 -196 l 103 -204 q 131 -182 107 -182 q 138 -183 136 -182 l 149 -174 l 156 -181 q 183 -164 165 -181 l 200 -174 l 208 -169 l 213 -154 l 215 -156 l 319 -93 q 426 -39 385 -54 q 574 71 447 -14 q 669 138 635 111 q 710 178 703 164 l 719 181 q 728 192 724 186 q 739 207 733 199 l 738 211 q 718 210 729 210 q 692 210 707 210 q 603 221 640 210 l 597 218 q 517 228 572 228 q 467 231 488 229 q 435 235 446 232 l 432 229 l 381 236 q 336 208 358 222 q 290 178 314 193 l 251 143 q 227 125 243 142 q 207 99 211 108 l 210 88 l 222 93 q 257 63 235 82 l 271 67 l 272 63 q 286 58 281 63 l 304 63 l 313 53 l 307 47 l 297 46 l 288 39 l 275 49 l 271 47 q 239 57 258 47 l 231 51 l 218 57 l 215 51 q 210 57 213 53 q 206 65 208 61 l 190 60 l 189 65 l 172 61 l 165 68 q 17 -156 17 -100 q 57 -204 17 -197 m 846 -165 q 808 -144 832 -165 q 786 -110 786 -124 q 833 -89 808 -101 q 889 -61 858 -76 l 890 -62 q 871 -94 882 -83 q 873 -103 872 -100 q 874 -108 874 -106 l 874 -119 l 865 -131 q 846 -165 865 -165 z "},"":{"ha":1440,"x_min":-25,"x_max":1465,"o":"m 51 -247 q 18 -226 21 -226 q 14 -229 17 -226 q -25 -161 -25 -190 q 136 72 -25 -85 l 133 86 l 92 115 q 67 185 79 135 q 88 210 76 194 q 115 249 100 226 l 142 257 l 146 256 l 196 276 l 204 274 q 235 276 215 274 q 285 281 256 278 q 331 284 311 283 q 367 283 351 285 q 375 284 367 283 q 400 286 383 285 l 404 283 l 446 303 l 449 301 q 557 347 481 310 q 669 385 624 379 q 567 338 647 368 q 472 278 499 311 l 479 265 l 497 278 q 519 272 497 274 q 658 264 589 264 l 668 251 q 684 249 675 250 q 706 249 693 249 q 750 247 729 249 q 785 239 771 246 l 810 264 l 813 261 q 966 392 894 326 q 1099 521 1038 457 l 1099 553 l 1090 561 l 1096 588 q 1092 600 1092 590 q 1093 629 1092 621 q 1094 631 1094 638 q 1100 718 1094 703 q 1174 758 1115 758 l 1186 753 l 1194 735 q 1180 683 1189 710 q 1160 626 1171 656 l 1167 583 q 1322 760 1253 676 q 1442 918 1390 844 q 1417 846 1444 894 q 1325 728 1389 797 l 1161 547 q 1176 500 1176 525 q 1171 468 1176 483 l 1178 469 l 1199 411 l 1197 403 q 1218 321 1197 379 q 1239 240 1240 263 l 1256 229 l 1256 224 q 1267 211 1256 211 q 1339 222 1288 211 q 1383 231 1364 228 q 1414 233 1401 233 l 1421 232 q 1363 201 1392 213 q 1306 188 1333 190 l 1303 190 l 1288 182 l 1290 165 l 1294 168 l 1325 106 l 1321 97 l 1347 67 l 1358 69 l 1361 104 l 1365 101 q 1415 32 1369 78 l 1418 33 q 1465 -3 1458 17 l 1442 -15 q 1414 0 1431 -10 q 1375 24 1397 10 l 1372 22 q 1346 39 1358 22 q 1335 52 1340 46 q 1324 65 1329 58 l 1324 69 q 1276 131 1300 85 l 1272 126 l 1261 153 l 1257 151 l 1231 183 l 1194 181 l 1190 183 l 1164 179 q 942 196 1149 179 l 936 190 l 879 200 q 847 205 861 203 q 822 207 833 207 q 729 135 792 207 l 722 136 l 715 122 q 632 58 703 107 q 576 22 597 36 q 546 4 556 8 l 536 -18 l 394 -119 l 392 -118 l 260 -200 l 247 -199 q 226 -215 242 -199 l 210 -208 l 192 -222 l 176 -215 q 167 -231 164 -215 l 144 -242 l 132 -232 l 111 -243 q 97 -241 104 -242 q 83 -240 90 -240 q 51 -247 65 -240 m 1144 208 q 1167 209 1157 208 q 1185 211 1178 210 l 1189 208 l 1194 211 l 1208 211 l 1210 218 l 1206 233 q 1175 283 1199 233 q 1150 350 1153 333 l 1143 353 l 1144 357 q 1140 372 1144 363 l 1140 378 l 1133 383 l 1135 389 q 1106 463 1125 403 l 1113 479 l 1107 492 q 1095 482 1101 489 q 1082 465 1089 475 q 1046 435 1072 458 q 978 372 1019 413 q 886 276 890 289 l 874 268 l 869 271 l 851 243 l 854 239 l 858 243 q 881 236 868 233 l 890 228 l 892 228 q 910 235 899 228 l 913 229 q 933 231 929 229 l 936 221 l 953 228 l 960 224 l 988 226 l 1001 219 l 1004 224 q 1021 217 1008 217 q 1035 218 1029 217 q 1063 213 1036 213 q 1081 215 1072 213 q 1099 219 1089 217 q 1117 214 1111 217 q 1122 215 1119 215 q 1124 215 1124 215 q 1134 212 1128 215 q 1144 208 1140 208 m 165 106 q 171 121 168 117 l 182 113 q 263 176 219 138 l 263 171 q 336 228 322 226 l 338 233 l 335 238 q 328 236 331 236 q 322 236 325 236 q 316 238 319 236 q 310 239 313 239 q 294 238 304 239 q 278 236 283 236 q 258 238 256 236 q 250 239 254 239 q 224 237 240 239 q 188 232 208 235 l 183 235 q 169 233 178 235 q 158 231 161 231 l 153 226 q 107 207 146 226 l 104 210 q 92 203 96 204 l 92 178 q 96 179 94 178 q 106 164 99 179 q 118 149 113 149 q 122 150 119 150 l 122 146 q 129 146 124 146 q 133 142 133 146 l 129 139 l 126 133 q 143 122 136 132 l 146 129 l 144 135 l 147 135 q 157 121 151 126 l 156 119 q 165 106 156 107 m 57 -204 l 68 -196 l 86 -197 l 89 -194 q 92 -197 90 -196 q 94 -200 93 -199 l 96 -196 l 103 -204 q 131 -182 107 -182 q 138 -183 136 -182 l 149 -174 l 156 -181 q 183 -164 165 -181 l 200 -174 l 208 -169 l 213 -154 l 215 -156 l 319 -93 q 426 -39 385 -54 q 574 71 447 -14 q 669 138 635 111 q 710 178 703 164 l 719 181 q 728 192 724 186 q 739 207 733 199 l 738 211 q 718 210 729 210 q 692 210 707 210 q 603 221 640 210 l 597 218 q 517 228 572 228 q 467 231 488 229 q 435 235 446 232 l 432 229 l 381 236 q 336 208 358 222 q 290 178 314 193 l 251 143 q 227 125 243 142 q 207 99 211 108 l 210 88 l 222 93 q 257 63 235 82 l 271 67 l 272 63 q 286 58 281 63 l 304 63 l 313 53 l 307 47 l 297 46 l 288 39 l 275 49 l 271 47 q 239 57 258 47 l 231 51 l 218 57 l 215 51 q 210 57 213 53 q 206 65 208 61 l 190 60 l 189 65 l 172 61 l 165 68 q 17 -156 17 -100 q 57 -204 17 -197 m 1249 939 q 1186 976 1226 950 l 1149 994 l 1118 1013 q 1110 1018 1114 1017 q 1108 1021 1110 1019 l 1104 1021 l 1067 1044 q 1056 1049 1067 1044 l 1035 1058 q 1016 1071 1026 1063 q 1007 1082 1006 1079 q 1007 1083 1007 1083 l 1007 1082 q 1011 1083 1008 1082 l 1014 1085 q 1024 1093 1014 1089 q 1030 1094 1025 1093 q 1043 1100 1035 1096 q 1044 1103 1043 1101 q 1060 1099 1053 1099 q 1060 1101 1057 1101 l 1063 1103 q 1072 1100 1067 1101 q 1083 1097 1078 1099 q 1090 1092 1086 1096 q 1099 1088 1094 1089 q 1100 1086 1097 1086 q 1101 1086 1100 1086 q 1103 1088 1101 1086 q 1115 1079 1108 1085 q 1131 1067 1121 1074 q 1135 1067 1132 1067 q 1140 1065 1138 1067 q 1143 1063 1142 1064 q 1147 1060 1144 1061 l 1150 1060 q 1154 1051 1150 1054 q 1222 992 1167 1040 l 1272 951 q 1274 949 1274 950 q 1266 940 1274 944 q 1249 939 1258 936 z "}}}
